<svg xmlns="http://www.w3.org/2000/svg" version="1.1" xmlns:xlink="http://www.w3.org/1999/xlink" xmlns:svgjs="http://svgjs.dev/svgjs" width="7680" height="1440" preserveAspectRatio="none" viewBox="0 0 7680 1440">
    <g mask="url(&quot;#SvgjsMask1006&quot;)" fill="none">
        <path d="M1356.28 0C1404.42 7.52 1397.03 56.25 1440 56.25C1488.89 56.25 1484.89 8.61 1540 0C1664.89 -19.51 1670 0 1800 0C1941.82 0 1955.09 -30 2083.64 0C2135.09 12 2107.7 74.62 2160 84C2325.88 113.75 2357.03 111.65 2520 78.26C2562.03 69.65 2528.51 9.02 2570 0C2708.51 -30.11 2725 0 2880 0C3060 0 3060 0 3240 0C3382 0 3393.22 -27.3 3524 0C3573.22 10.28 3552.58 75.16 3600 75.16C3717.24 75.16 3725.1 26.77 3853.33 0C3905.1 -10.81 3906.66 0 3960 0C4008 0 4032.37 -35.78 4056 0C4151.24 144.22 4101.23 201.79 4197.74 360C4233.23 418.19 4260.84 432.81 4320 432.81C4370.33 432.81 4404.11 414.46 4416.72 360C4454.23 198.05 4343.78 104.56 4420.25 0C4475.42 -75.44 4550.13 0 4680 0C4860 0 4860 0 5040 0C5220 0 5220 0 5400 0C5580 0 5580 0 5760 0C5940 0 5940 0 6120 0C6300 0 6300 0 6480 0C6660 0 6660 0 6840 0C7000.91 0 7061.37 -70.31 7161.82 0C7241.37 55.69 7121.8 233.96 7200 252C7320.89 279.88 7379.08 169.77 7560 91.84C7671.58 43.77 7669.28 29.52 7785 0C7849.28 -16.4 7901.59 -49.09 7920 0C7969.09 130.91 7920 180 7920 360C7920 518.64 8004 613.42 7920 677.29C7824 750.29 7736.74 621.71 7560 633.75C7423.19 643.07 7408.62 652.03 7292.9 720C7228.62 757.76 7236.87 777.08 7200 845.22C7139.48 957.08 7098.11 969.29 7098.11 1080C7098.11 1150.96 7142.87 1150 7200 1208.57C7318.43 1330 7449.23 1373.22 7449.23 1440C7449.23 1488.94 7324.61 1440 7200 1440C7020 1440 7020 1440 6840 1440C6660 1440 6660 1440 6480 1440C6300 1440 6300 1440 6120 1440C5940 1440 5940 1440 5760 1440C5580 1440 5580 1440 5400 1440C5220 1440 5220 1440 5040 1440C4860 1440 4760.98 1529.78 4680 1440C4598.63 1349.78 4715.29 1254.86 4715.29 1080C4715.29 1052.36 4702.24 1035 4680 1035C4643.69 1035 4632.05 1048.35 4598.18 1080C4452.05 1216.56 4446.74 1218.56 4320 1371.43C4297.51 1398.56 4331.02 1434.04 4299.72 1440C4151.02 1468.32 4129.86 1440 3960 1440C3780 1440 3780 1440 3600 1440C3420 1440 3420 1440 3240 1440C3060 1440 3060 1440 2880 1440C2700 1440 2700 1440 2520 1440C2389.35 1440 2379.06 1468.03 2258.71 1440C2199.06 1426.11 2210.58 1356.16 2160 1356.16C2105.59 1356.16 2113.35 1424.95 2048.73 1440C1933.35 1466.87 1924.36 1440 1800 1440C1620 1440 1620 1440 1440 1440C1260 1440 1260 1440 1080 1440C900 1440 900 1440 720 1440C540 1440 540 1440 360 1440C180 1440 90 1530 0 1440C-90 1350 0 1260 0 1080C0 900 0 900 0 720C0 540 0 540 0 360C0 180 -90 90 0 0C90 -90 180 0 360 0C540 0 540 0 720 0C900 0 900 0 1080 0C1218.14 0 1224.42 -20.6 1356.28 0" stroke="rgba(181, 162, 130, 0.25)" stroke-width="2"></path>
        <path d="M2880 275.56C2819.5 275.56 2755.64 309.42 2755.64 360C2755.64 424.41 2820.77 505.53 2880 505.53C2935.57 505.53 2985.23 425.66 2985.23 360C2985.23 310.67 2934.3 275.56 2880 275.56" stroke="rgba(181, 162, 130, 0.25)" stroke-width="2"></path>
        <path d="M5400 306.67C5370.98 306.67 5366.51 334.7 5366.51 360C5366.51 380.31 5375.88 397.89 5400 397.89C5572.63 397.89 5579.83 361.76 5760 360C5939.83 358.24 5975.62 308.08 6120 390.86C6289.58 488.08 6248.24 560.94 6387.91 720C6428.24 765.92 6435.27 800.82 6480 800.82C6521.73 800.82 6555.55 772.9 6560.82 720C6577.5 552.49 6556.38 535.49 6523.9 360C6515.97 317.19 6519.7 288.45 6480 283.4C6317.75 262.74 6299.31 289.49 6120 308.57C5939.31 327.79 5939.93 360.47 5760 360C5579.93 359.52 5567.72 306.67 5400 306.67" stroke="rgba(181, 162, 130, 0.25)" stroke-width="2"></path>
        <path d="M1080 694.29C1054.28 694.29 1032.63 704.45 1032.63 720C1032.63 738.24 1051.74 761.86 1080 761.86C1144.66 761.86 1218.46 737.12 1218.46 720C1218.46 703.33 1147.2 694.29 1080 694.29" stroke="rgba(181, 162, 130, 0.25)" stroke-width="2"></path>
        <path d="M2160 577.89C2060.69 577.89 1935 662.36 1935 720C1935 771.44 2053.19 796.06 2160 796.06C2218.63 796.06 2265.88 766.23 2265.88 720C2265.88 657.15 2226.13 577.89 2160 577.89" stroke="rgba(181, 162, 130, 0.25)" stroke-width="2"></path>
        <path d="M5040 602.07C4976.39 602.07 4913.33 662.82 4913.33 720C4913.33 774.4 4976.42 825.23 5040 825.23C5104.29 825.23 5169.06 774.43 5169.06 720C5169.06 662.85 5104.26 602.07 5040 602.07" stroke="rgba(181, 162, 130, 0.25)" stroke-width="2"></path>
        <path d="M720 972.77C566.46 972.77 384 1015.5 384 1080C384 1147.86 575.54 1237.5 720 1237.5C792 1237.5 816.92 1154.3 816.92 1080C816.92 1021.93 782.92 972.77 720 972.77" stroke="rgba(181, 162, 130, 0.25)" stroke-width="2"></path>
        <path d="M1440 912C1416.77 912 1384 1006.54 1384 1080C1384 1106.91 1413.77 1112.73 1440 1112.73C1459.52 1112.73 1475.49 1102.03 1475.49 1080C1475.49 1001.66 1462.52 912 1440 912" stroke="rgba(181, 162, 130, 0.25)" stroke-width="2"></path>
        <path d="M7607.71 1080C7675.83 889.71 7829.45 751.9 7920 751.9C7985.59 751.9 7920 915.95 7920 1080C7920 1260 7993.13 1333.13 7920 1440C7869.97 1513.13 7736.49 1512.41 7673.68 1440C7580.35 1332.41 7552.67 1233.76 7607.71 1080" stroke="rgba(181, 162, 130, 0.25)" stroke-width="2"></path>
        <path d="M0 39.13C38.84 -30.79 99.17 10.96 200 0C279.17 -8.6 280 0 360 0C411.43 0 434.58 -36.85 462.86 0C572.72 143.15 552.93 178.49 636.28 360C681.5 458.49 680.68 560 720 560C758.54 560 756.25 460.09 792 360C856.25 180.09 818.5 126.87 920 0C962.5 -53.13 1000 0 1080 0C1113.49 0 1118.27 -15.7 1146.98 0C1298.27 82.74 1289.59 196.88 1440 196.88C1611.1 196.88 1614.37 96.05 1790 0C1794.37 -2.39 1795 0 1800 0C1805.45 0 1807.42 -4.13 1810.91 0C1959.73 175.87 2107.78 213.37 2104.62 360C2102.32 466.7 1958.93 452.4 1800 506.67C1626.62 565.88 1622.03 572.03 1440 586.96C1262.03 601.55 1249.82 530.64 1080 565.71C927.72 597.16 934.1 637.18 795.79 720C754.1 744.96 764.57 762.87 720 781.28C546.67 852.87 518.2 808.11 360 900C261.06 957.47 205.71 992.96 205.71 1080C205.71 1160.11 275.15 1166.36 360 1234.29C499.98 1346.36 655.38 1383.51 655.38 1440C655.38 1486.36 507.69 1440 360 1440C180 1440 90 1530 0 1440C-90 1350 0 1260 0 1080C0 900 0 900 0 720C0 540 0 540 0 360C0 199.57 -61.16 149.21 0 39.13" stroke="rgba(181, 162, 130, 0.25)" stroke-width="2"></path>
        <path d="M2215.38 360C2231.94 264.86 2380.98 273.91 2520 273.91C2569.29 273.91 2555.64 317.26 2592 360C2735.64 528.82 2706.84 585.31 2880 697.02C2985.84 765.31 3015.12 707.3 3150 720C3195.12 724.25 3210.63 699.36 3240 730.91C3378.19 879.36 3419.5 887.73 3485.11 1080C3540.49 1242.28 3555.26 1332.35 3481.97 1440C3432.71 1512.35 3360.98 1440 3240 1440C3060 1440 3060 1440 2880 1440C2700 1440 2700 1440 2520 1440C2461.93 1440 2451.8 1467.58 2403.87 1440C2271.8 1364.02 2284.96 1232.88 2160 1232.88C2025.57 1232.88 2029.41 1356.97 1885.09 1440C1849.41 1460.53 1842.55 1440 1800 1440C1620 1440 1620 1440 1440 1440C1260 1440 1260 1440 1080 1440C932.31 1440 803.35 1514.9 784.62 1440C758.35 1334.9 879.85 1254.84 990 1080C1027.54 1020.42 1033.05 971.16 1080 971.16C1130.05 971.16 1123.39 1036.48 1184 1080C1303.39 1165.71 1320.11 1229.61 1440 1229.61C1529.24 1229.61 1529.17 1162.19 1602.25 1080C1709.17 959.75 1670.62 861.19 1800 824.73C1949.5 782.6 1993.74 949.93 2160 922.82C2314.91 897.56 2429.9 846.52 2442.35 720C2457.59 565.11 2193.12 487.91 2215.38 360" stroke="rgba(181, 162, 130, 0.25)" stroke-width="2"></path>
        <path d="M2880 164.44C2785.26 84.88 2695 47.05 2695 0C2695 -35.17 2787.5 0 2880 0C3060 0 3060 0 3240 0C3332 0 3347.25 -37.11 3424 0C3527.25 49.93 3491.49 128.18 3600 174.07C3759.49 241.52 3808.39 160.8 3960 226.67C4022.35 253.76 3972.91 313.05 4027.92 360C4152.91 466.68 4178.67 533.93 4320 533.93C4440.23 533.93 4503.36 478.85 4551.04 360C4610.45 211.89 4488.27 128.15 4534.18 0C4552.75 -51.85 4607.09 0 4680 0C4860 0 4860 0 5040 0C5211.63 0 5357.08 -80.42 5383.26 0C5415.68 99.58 5284.98 193.65 5157.21 360C5113.35 417.1 5094.79 398.86 5040 446.9C4889.52 578.86 4887.35 578.1 4746.67 720C4707.35 759.65 4724.9 777.73 4680 810C4511.56 931.06 4508.53 939.14 4320 1026.67C4217.76 1074.14 4126.59 1000.92 4098.46 1080C4053.07 1207.58 4216.8 1326.02 4172.96 1440C4147.57 1506.02 4066.48 1440 3960 1440C3838.07 1440 3733.4 1509.09 3716.13 1440C3688.4 1329.09 3887.06 1252.72 3870 1080C3851.5 892.72 3766.46 888.55 3645 720C3631.46 701.21 3623.53 706.26 3600 705.31C3421.03 698.08 3358.62 789.63 3240 703.64C3120.46 616.98 3220.4 504.85 3123.69 360C3040.4 235.25 2999.6 264.88 2880 164.44" stroke="rgba(181, 162, 130, 0.25)" stroke-width="2"></path>
        <path d="M5760 229.57C5590.61 229.57 5415.65 62.65 5415.65 0C5415.65 -52.13 5587.83 0 5760 0C5915.3 0 6070.59 -51.16 6070.59 0C6070.59 63.62 5918.08 229.57 5760 229.57" stroke="rgba(181, 162, 130, 0.25)" stroke-width="2"></path>
        <path d="M6480 91.91C6395.7 12.26 6252.63 23.85 6252.63 0C6252.63 -22.11 6366.32 0 6480 0C6660 0 6660 0 6840 0C6932.73 0 6984.14 -60.65 7025.45 0C7106.75 119.35 7092.52 181.46 7085.22 360C7077.8 541.46 7035.47 538.88 6996 720C6957.01 898.88 6881.81 919.84 6928.3 1080C6983.81 1271.27 7062.82 1252.66 7200 1422.86C7207.9 1432.66 7218.46 1435.05 7218.46 1440C7218.46 1443.62 7209.23 1440 7200 1440C7020 1440 7020 1440 6840 1440C6660 1440 6660 1440 6480 1440C6300 1440 6300 1440 6120 1440C5940 1440 5940 1440 5760 1440C5606.18 1440 5597.44 1461.1 5452.36 1440C5417.44 1434.92 5428.55 1387.64 5400 1387.64C5364.48 1387.64 5368.27 1433.59 5324.21 1440C5188.27 1459.77 5182.1 1440 5040 1440C4941.82 1440 4869.65 1503.17 4843.64 1440C4795.53 1323.17 4827.12 1236.81 4891.76 1080C4925.3 998.65 4966.62 1022.77 5040 963.69C5190.18 842.77 5197.37 849.3 5338.87 720C5377.37 684.82 5364.1 634.74 5400 634.74C5445.29 634.74 5448.29 680.39 5501.25 720C5628.29 815.02 5631.92 810.23 5760 904C5877.77 990.23 5903.92 969.72 5992.94 1080C6083.92 1192.72 6047.72 1350 6120 1350C6197.65 1350 6184.08 1190.39 6292.8 1080C6364.08 1007.63 6398.76 1049.24 6480 984.49C6624.6 869.24 6706.21 875.58 6744.49 720C6783.04 563.33 6706.31 532.52 6633.66 360C6574.06 218.47 6586.22 192.26 6480 91.91" stroke="rgba(181, 162, 130, 0.25)" stroke-width="2"></path>
        <path d="M7313.14 360C7313.14 271.23 7423.34 242.83 7560 183.67C7726.77 111.48 7814.71 45.73 7920 97.3C7994.71 133.89 7920 228.65 7920 360C7920 442.38 7976.48 496.51 7920 524.75C7796.48 586.51 7724.2 584.58 7560 540C7420.77 502.2 7313.14 449.4 7313.14 360" stroke="rgba(181, 162, 130, 0.25)" stroke-width="2"></path>
        <path d="M6036 720C6036 677.7 6081.23 648 6120 648C6152.53 648 6178.6 680.06 6178.6 720C6178.6 782.38 6154.23 852.63 6120 852.63C6082.93 852.63 6036 780.02 6036 720" stroke="rgba(181, 162, 130, 0.25)" stroke-width="2"></path>
        <path d="M7716.14 1080C7718.13 959.56 7860.89 865.82 7920 865.82C7962.82 865.82 7920 972.91 7920 1080C7920 1260 7924.61 1264.61 7920 1440C7919.88 1444.61 7912.84 1444.07 7910.53 1440C7810.91 1264.07 7713.39 1246.65 7716.14 1080" stroke="rgba(181, 162, 130, 0.25)" stroke-width="2"></path>
        <path d="M0 234.78C133.64 197.91 199.71 213.68 360 260.69C413.2 276.29 426.98 303.78 426.98 360C426.98 513.44 400.46 522.86 360 680C354.12 702.86 348.99 701.33 334.29 720C191.49 901.33 174.6 891.58 45 1080C7.45 1134.58 11.59 1206 0 1206C-10.91 1206 0 1143 0 1080C0 900 0 900 0 720C0 540 0 540 0 360C0 297.39 -46.36 247.57 0 234.78" stroke="rgba(181, 162, 130, 0.25)" stroke-width="2"></path>
        <path d="M972 360C972 286.05 1000.39 195.08 1080 191.25C1234.39 183.83 1258.76 267.99 1440 337.5C1478.76 352.37 1520 346.77 1520 360C1520 373.67 1482.11 383.92 1440 391.3C1262.11 422.49 1251.34 448.6 1080 437.14C1017.34 432.95 972 408.99 972 360" stroke="rgba(181, 162, 130, 0.25)" stroke-width="2"></path>
        <path d="M2880 53.33C2847.46 29.9 2820 15.26 2820 0C2820 -11.41 2850 0 2880 0C3060 0 3060 0 3240 0C3282 0 3324 -31.92 3324 0C3324 119.28 3332.7 291.27 3240 302.4C3110.7 317.93 3057.46 181.1 2880 53.33" stroke="rgba(181, 162, 130, 0.25)" stroke-width="2"></path>
        <path d="M3295.38 360C3295.38 300.47 3450.04 272.97 3600 272.97C3709.37 272.97 3814.05 302.46 3814.05 360C3814.05 426.79 3713.46 521.63 3600 521.63C3454.13 521.63 3295.38 424.8 3295.38 360" stroke="rgba(181, 162, 130, 0.25)" stroke-width="2"></path>
        <path d="M4680 315C4590.18 266.11 4648.1 143.08 4648.1 0C4648.1 -14.42 4664.05 0 4680 0C4860 0 4860 0 5040 0C5106.98 0 5173.95 -37.03 5173.95 0C5173.95 69.64 5139.38 149.95 5040 213.33C4892.41 307.45 4786.13 372.77 4680 315" stroke="rgba(181, 162, 130, 0.25)" stroke-width="2"></path>
        <path d="M5760 99.13C5686.85 99.13 5611.3 27.05 5611.3 0C5611.3 -22.51 5685.65 0 5760 0C5827.06 0 5894.12 -22.09 5894.12 0C5894.12 27.47 5828.26 99.13 5760 99.13" stroke="rgba(181, 162, 130, 0.25)" stroke-width="2"></path>
        <path d="M6743.41 360C6699.93 184.95 6658.36 128.11 6692.73 0C6706.65 -51.89 6766.36 0 6840 0C6864.55 0 6882.3 -21.29 6889.09 0C6939.69 158.71 6969.14 186.59 6954.78 360C6944.59 483.06 6893.62 592.94 6840 592.94C6787.93 592.94 6773.57 481.42 6743.41 360" stroke="rgba(181, 162, 130, 0.25)" stroke-width="2"></path>
        <path d="M7441.71 360C7441.71 317.47 7492 278.28 7560 275.51C7731.14 268.55 7749.09 300.43 7920 340.54C7929.09 342.67 7920 350.27 7920 360C7920 366.1 7925.78 370.81 7920 372.2C7745.78 413.94 7731.02 450.61 7560 446.25C7491.88 444.51 7441.71 402.84 7441.71 360" stroke="rgba(181, 162, 130, 0.25)" stroke-width="2"></path>
        <path d="M4083.75 720C4083.75 666.29 4202.71 635.06 4320 635.06C4425.83 635.06 4530 666.8 4530 720C4530 779.27 4426.86 860 4320 860C4203.73 860 4083.75 778.76 4083.75 720" stroke="rgba(181, 162, 130, 0.25)" stroke-width="2"></path>
        <path d="M1729.01 1080C1729.01 1028.67 1748.08 992.02 1800 988.36C1963.57 976.81 1979.1 1042.52 2160 1049.58C2339.1 1056.57 2342.55 1047.65 2520 1016.47C2702.55 984.4 2699.27 926.3 2880 923.08C3059.27 919.89 3074.94 941.02 3240 1003.64C3281.75 1019.48 3283.95 1035.32 3293.62 1080C3331.17 1253.5 3355.7 1297.21 3334.43 1440C3328.89 1477.21 3287.22 1440 3240 1440C3114.78 1440 3101.65 1472.69 2989.57 1440C2921.65 1420.19 2947.07 1367.14 2880 1335C2712.29 1254.64 2701.04 1271.68 2520 1215C2341.04 1158.97 2335.19 1095.27 2160 1109.59C1975.19 1124.7 1941.61 1283.57 1800 1273.85C1726.12 1268.78 1729.01 1171.41 1729.01 1080" stroke="rgba(181, 162, 130, 0.25)" stroke-width="2"></path>
        <path d="M5095.38 1080C5095.38 987.88 5246.74 871.58 5400 871.58C5557.45 871.58 5561.78 971.65 5716.8 1080C5741.78 1097.46 5743.75 1097.48 5760 1123.2C5857.45 1277.48 5944.19 1334.58 5944.19 1440C5944.19 1492.98 5852.09 1440 5760 1440C5688 1440 5673.67 1474.6 5616 1440C5493.67 1366.6 5523.78 1309.59 5400 1224C5263.47 1129.59 5095.38 1164.09 5095.38 1080" stroke="rgba(181, 162, 130, 0.25)" stroke-width="2"></path>
        <path d="M7824.58 1080C7824.58 1023.77 7892.33 979.75 7920 979.75C7940.04 979.75 7920 1029.88 7920 1080C7920 1166.09 7942.26 1252.17 7920 1252.17C7894.55 1252.17 7824.58 1159.98 7824.58 1080" stroke="rgba(181, 162, 130, 0.25)" stroke-width="2"></path>
        <path d="M234 1440C234 1428.41 300 1395 360 1395C395.31 1395 424.62 1427.64 424.62 1440C424.62 1450.14 392.31 1440 360 1440C297 1440 234 1450.91 234 1440" stroke="rgba(181, 162, 130, 0.25)" stroke-width="2"></path>
        <path d="M1015.38 1440C1015.38 1393.88 1018.54 1320.9 1080 1307.37C1230.85 1274.15 1265.15 1306.85 1440 1346.49C1557.65 1373.16 1665 1415.69 1665 1440C1665 1462.45 1552.5 1440 1440 1440C1260 1440 1260 1440 1080 1440C1047.69 1440 1015.38 1460.2 1015.38 1440" stroke="rgba(181, 162, 130, 0.25)" stroke-width="2"></path>
        <path d="M3861.29 1440C3861.29 1385.32 3913.03 1274.59 3960 1274.59C4005.48 1274.59 4046.2 1383.44 4046.2 1440C4046.2 1466.14 4003.1 1440 3960 1440C3910.65 1440 3861.29 1468.02 3861.29 1440" stroke="rgba(181, 162, 130, 0.25)" stroke-width="2"></path>
        <path d="M5007.27 1440C5007.27 1353.9 5020.12 1240 5040 1240C5060.17 1240 5087.37 1358.73 5087.37 1440C5087.37 1458.73 5063.68 1440 5040 1440C5023.64 1440 5007.27 1453.9 5007.27 1440" stroke="rgba(181, 162, 130, 0.25)" stroke-width="2"></path>
        <path d="M6660 1440C6660 1399.57 6761.73 1296 6840 1296C6898.18 1296 6932.9 1393.31 6932.9 1440C6932.9 1465.31 6886.45 1440 6840 1440C6750 1440 6660 1471.57 6660 1440" stroke="rgba(181, 162, 130, 0.25)" stroke-width="2"></path>
    </g>
    <defs>
        <mask id="SvgjsMask1006">
            <rect width="7680" height="1440" fill="#ffffff"></rect>
        </mask>
    </defs>
</svg>