<svg xmlns="http://www.w3.org/2000/svg" xmlns:xlink="http://www.w3.org/1999/xlink" width="756.262" height="757.194" viewBox="0 0 756.262 757.194"><defs><style>.a{fill:#828282;}.b{clip-path:url(#a);}.c{fill:#f7b70d;}.d{fill:#7fb432;}.e,.f,.g{fill:#fff;}.e{font-size:34px;font-family:Poppins-SemiBold, Poppins;font-weight:600;}.f{font-size:17px;font-family:Poppins-Light, Poppins;font-weight:300;}.h{fill:#212121;font-size:11px;font-family:Poppins-Medium, Poppins;font-weight:500;}.i{filter:url(#e);}.j{filter:url(#c);}</style><clipPath id="a"><path class="a" d="M363.162,144.879a1.956,1.956,0,0,0-.582.236c-2.452,2.028-5.5,2.515-8.425,3.018-4.244.692-8.567.88-12.574,2.484a4.37,4.37,0,0,1-1.918.22,11.933,11.933,0,0,0-6.822,1.682,10.351,10.351,0,0,1-1.792.708,3.049,3.049,0,0,1-2.5-.377,7.946,7.946,0,0,1-1.572-1.226c-1.572-1.572-3.034-3.144-4.574-4.605-.535-.55-.409-1.037-.094-1.666,1.179-2.436,1.179-3.018-.6-4.48a15.276,15.276,0,0,1-3.144-3.144c-1.839-2.7-4.464-4.715-6.649-7.089a15.551,15.551,0,0,0-4.841-3.143,10.767,10.767,0,0,1-6.57-7.419c-.409-1.886-1.1-3.71-1.682-5.58a9.636,9.636,0,0,0-3.348-4.715l-4.087-3.144a4.321,4.321,0,0,1-1.745-3.348,74.4,74.4,0,0,0-1.934-10.83,10.876,10.876,0,0,0-5.6-7.561,12.758,12.758,0,0,1-1.745-.833,4.2,4.2,0,0,1-1.053-1.572,4.461,4.461,0,0,1-.33-1.9,7.764,7.764,0,0,0-1.886-5.973,29.9,29.9,0,0,1-1.7-2.751c-2.562-4.008-5.25-7.859-6.287-12.669a11.713,11.713,0,0,0-1.147-2.31.88.88,0,0,1,.88-1.289c.864,0,1.745.252,2.468-.424a9.812,9.812,0,0,0,.833-2.735,1.572,1.572,0,0,1-.6-2.091C267.391,47.5,258.982,35.5,256.231,34.285a12.006,12.006,0,0,0-3.788-.566,13.125,13.125,0,0,0-8.016,2.075,4.918,4.918,0,0,1-3.741.5c-4.637-.99-9.2-2.31-13.942-2.845a11.993,11.993,0,0,1-4.983-1.273,17.2,17.2,0,0,0-6.743-2.043,8.913,8.913,0,0,1-5.171-2.483,4.5,4.5,0,0,0-2.248-1.21,16.19,16.19,0,0,0-10.767.912,6.507,6.507,0,0,0-3.348,7.073c.236.833.582,1.572.77,2.468a2.86,2.86,0,0,1-.676,2.4,11.436,11.436,0,0,1-1.289,1.462,3.615,3.615,0,0,1-4.2.613c-.739-.456-1.43-.975-2.153-1.462A33.723,33.723,0,0,0,182.7,37.79a17.637,17.637,0,0,0-8.614-2.5A3.144,3.144,0,0,1,171.07,33.2a24.6,24.6,0,0,1-.927-2.4,4.244,4.244,0,0,0-2.657-2.656,24.381,24.381,0,0,0-11.38-2.012,12.31,12.31,0,0,1-6.193-1.572,1.288,1.288,0,0,1-.566-.283,11,11,0,0,0-5.439-3.144,2.075,2.075,0,0,1-.676-2.829c.88-.943,1.871-1.792,2.735-2.751a4.417,4.417,0,0,0,.629-4.873A27.893,27.893,0,0,0,144.836,8a1.573,1.573,0,0,1-.157-1.226c.456-1.195,1.006-2.358,1.572-3.552a.912.912,0,0,0-1.1-1.148,2.4,2.4,0,0,1-2.892-.644,4.072,4.072,0,0,0-4.716-1.1c-1.666.44-3.238,1.163-4.9,1.572a17.817,17.817,0,0,1-3.144.283c-1.572-1.195-3.411.487-5-.3-1.886-.927-3.316.5-4.951.723a15.165,15.165,0,0,1-3.867,0,21.128,21.128,0,0,0-9.6.692,19.54,19.54,0,0,1-5.14.566A9.89,9.89,0,0,0,96.612,5c-2.279,1.242-4.574,2.421-6.947,3.443a15.439,15.439,0,0,0-5.125,2.845,5.454,5.454,0,0,1-6.067,1.022,9.18,9.18,0,0,0-5.014-.692,24.726,24.726,0,0,1-5.171.11,6.1,6.1,0,0,1-2.264-1.069,5.653,5.653,0,0,1-.9-.943c-1.7-1.745-3.474-1.3-4.291,1.053a28.742,28.742,0,0,0-1.21,3.678A8.944,8.944,0,0,1,54.5,20.736c-2.264,1.242-4.48,2.609-6.649,4.039s-3.914,2.7-3.914,5.533a5.188,5.188,0,0,1-1.462,2.829,6.759,6.759,0,0,0-1.352,4.873c.126,1.289.126,2.594.173,3.882a4.842,4.842,0,0,1-.911,3.049c-.865,1.242-1.65,2.531-2.594,3.725a8.9,8.9,0,0,1-1.855,1.745c-1.037.754-2.232,1.3-3.238,2.122a8.96,8.96,0,0,1-4.715,2.043,5.265,5.265,0,0,0-3.647,2.484,12.834,12.834,0,0,0-1.415,2.169,7.622,7.622,0,0,1-3.458,3.71,10,10,0,0,0-3.647,4.385c-1.572,3.018-3.033,6.209-5.643,8.629a6.837,6.837,0,0,0-1.415,2.153,54.459,54.459,0,0,1-5.281,9.619,8.929,8.929,0,0,0-1.32,4.291,4.087,4.087,0,0,0,1.886,4.464,3.269,3.269,0,0,1,1.478,3.945,7.04,7.04,0,0,0,0,4.37,14.963,14.963,0,0,1-.456,11.38,4.711,4.711,0,0,0-.361,1.242c-.66,3.867-1.572,7.592-4.558,10.5a1.242,1.242,0,0,0,0,1.179c.66,1.132,1.415,2.185,2.138,3.253a3.521,3.521,0,0,1,.6,3.631,6.617,6.617,0,0,0,.566,5.627,6.366,6.366,0,0,0,3.144,3.144,28.907,28.907,0,0,0,3.6,1.3v-.126l.189-.267-.142.409h0a3.489,3.489,0,0,0,1.682,3.144,4.605,4.605,0,0,1,2.31,2.955,2.845,2.845,0,0,0,1.7,1.855,13.206,13.206,0,0,1,4.558,3.584,4.213,4.213,0,0,1,1.21,2.216,16.738,16.738,0,0,0,2.719,7.23,10.75,10.75,0,0,0,5.658,5.124,18.707,18.707,0,0,1,4.92,3,101.6,101.6,0,0,0,10.893,8.126,25.157,25.157,0,0,0,5.942,2.562,3.143,3.143,0,0,0,1.886-.094c1.415-.534,2.767-1.21,4.134-1.855a15.909,15.909,0,0,1,7.513-1.7,27.054,27.054,0,0,0,5.155-.424,12.308,12.308,0,0,1,7.5.959,12.171,12.171,0,0,0,1.855.6,5.9,5.9,0,0,0,3.82-.11c1.415-.519,2.892-.9,4.291-1.446a14.813,14.813,0,0,0,3.505-1.572,17.493,17.493,0,0,1,5.3-2.389,30.377,30.377,0,0,1,5.533-1.729c2.782-.283,5.423-1.572,8.3-1.116a10.264,10.264,0,0,1,1.886.314,9.43,9.43,0,0,1,5.564,5.14c.487,1.21.912,2.452,1.478,3.615a5.628,5.628,0,0,0,5.266,3.144,10.084,10.084,0,0,0,1.949-.126c2.766-.487,5.549-.9,8.284-1.572,1.572-.377,2.908-.44,3.867,1.226a5.847,5.847,0,0,0,1.855,1.76c2.311,1.478,2.546,3.9,2.641,6.287a12.935,12.935,0,0,1-.88,4.433c-.377,1.21-1.352,2.279-1.572,3.505s.236,3.049-.142,4.433c-.6,2.248-.817,4.715-2.593,6.523-.251.251-.251.786-.3,1.195a1.305,1.305,0,0,0,.142.629c2.829,7.026,3.835,8.488,9.431,13.69.943.88,1.886,1.776,2.876,2.625a14.917,14.917,0,0,1,3.773,5.2,19.819,19.819,0,0,1,1.069,3.034,27.679,27.679,0,0,0,3.144,7.026c1.572,2.578,1.666,5.721,2.4,8.614.126.535-.377,1.226-.456,1.855a8.1,8.1,0,0,0-.094,2.531,17.6,17.6,0,0,0,1.808,5.533,9.967,9.967,0,0,1,1.085,2.358c.833,3.537.833,6.963-2.248,9.525a37.594,37.594,0,0,0-3.411,3.867,7.97,7.97,0,0,0-2.232,4.589,23.906,23.906,0,0,1-2.421,8.032,9.745,9.745,0,0,0-1.006,4.385v7.859a4.918,4.918,0,0,0,1.336,3.552,22.556,22.556,0,0,1,5.281,8.849,76.547,76.547,0,0,0,4.543,10.013,15.278,15.278,0,0,1,2.09,7.324,26.246,26.246,0,0,0,1.4,8.284,10.253,10.253,0,0,1,.676,3.143,42.528,42.528,0,0,0,1.462,8.928,20.681,20.681,0,0,0,4.2,8.677c1.053,1.367,2.043,2.8,3.144,4.1a10.329,10.329,0,0,1,2.122,4.715,36.884,36.884,0,0,0,3.458,9.761,14.441,14.441,0,0,1,1.022,2.373,4.952,4.952,0,0,1-.613,5.486,1.839,1.839,0,0,0-.141,2.389,10.881,10.881,0,0,1,1.572,5.549,1.572,1.572,0,0,0,.582,1.132c2.232,1.289,4.5,2.546,6.822,3.694a2.452,2.452,0,0,0,1.855,0,11.7,11.7,0,0,1,6.79-1.823,6.934,6.934,0,0,0,3.144-.723,14.251,14.251,0,0,1,5.674-1.037c2.138,0,4.244-.692,6.287.267a2.421,2.421,0,0,0,1.886.142c1.855-1.116,4.433.126,6-1.934a2.484,2.484,0,0,1,1.76-.629,15.542,15.542,0,0,0,8.347-3.144,82.76,82.76,0,0,0,9.808-8.488,30.562,30.562,0,0,0,5.517-6.288c1.572-2.389,3.38-4.48,4.9-6.853a9.8,9.8,0,0,1,3.049-3.316,12.15,12.15,0,0,0,5.093-7.278c.644-2.059,1.163-4.15,1.682-6.287a3.977,3.977,0,0,0-.346-3.144c-.849-1.43-.079-2.546.928-3.411a11.724,11.724,0,0,1,5.03-2.813,17.586,17.586,0,0,0,6.036-2.326,5.25,5.25,0,0,0,2.751-4.166,35,35,0,0,1,.9-6.413,6.664,6.664,0,0,0-.173-3.144c-.959-3.317-1.823-6.665-2.766-10a2.8,2.8,0,0,1,.692-3c4.715-3.756,9.274-7.733,13.926-11.584a16.024,16.024,0,0,1,4.527-2.468,41.123,41.123,0,0,0,5.14-2.719,17.464,17.464,0,0,0,7.859-9.179,9.685,9.685,0,0,0,.849-5.611,32.819,32.819,0,0,1,0-5.831,20.8,20.8,0,0,0,0-4.527,17.623,17.623,0,0,1,.361-7.686,2.954,2.954,0,0,0-1.4-3.38c-2.264-1.3-3.049-3.442-3.8-5.768-.928-2.924-.535-5.957-1.069-8.928a3.427,3.427,0,0,1,.424-1.839,2.625,2.625,0,0,0-.519-3.521,4.5,4.5,0,0,1-1.415-6.287,16.927,16.927,0,0,1,3.144-5.611c1.917-1.855,2.326-4.605,3.615-6.853a6.46,6.46,0,0,1,2.546-2.814,16.047,16.047,0,0,0,5.266-4.715,93.047,93.047,0,0,1,12.842-13.706c2.7-2.5,5.187-5.25,8.724-6.617a4.715,4.715,0,0,0,1.084-.708,59.506,59.506,0,0,0,18.689-23.672,42.228,42.228,0,0,1,5.439-10.248,20.6,20.6,0,0,0,3.144-7.058c1.053-3.379.691-6.822.943-10.248C365.708,145.633,363.948,144.58,363.162,144.879Zm-273.8,18.862-.629-.487a1.415,1.415,0,0,0,.77.314v.393Zm3.4,4.715c-.126-.079-.142-.33-.189-.5.142-.471.456-.629.865-.393a.643.643,0,0,1,.173.5C93.5,168.582,93.17,168.723,92.761,168.456Zm148.38,131.53c-.346-.283-.2-.456.346-.456a3.348,3.348,0,0,1,.126.361C241.456,299.924,241.2,300.05,241.141,299.987Zm3.442-41.433a4.708,4.708,0,0,1-1.006.519s-.283-.33-.251-.456c.189-.739.723-1.195,1.226-1.053.126,0,.189.283.267.456S244.725,258.459,244.584,258.553Zm11-3.269a.724.724,0,0,1-.566-.141,2.5,2.5,0,0,1-.5-2.751l-.11-.078v-.3c-1.069-.676-1.006-2.122-1.886-2.939a31.687,31.687,0,0,1-2.735-2.7,6.114,6.114,0,0,1-1.572-2.782c-.377-3.8-1.682-7.513-1.43-11.412,0-.252.5-.723.723-.691s.943.361,1.006.644c.582,2.5,1.069,5.014,1.572,7.529a5.109,5.109,0,0,0,2.247,6.1A4.574,4.574,0,0,1,254,249.122c.11.975.236,1.933.346,2.892.079,0,.11.126.2.173v.2c1.038.487,1.258,1.478,1.446,2.5C256,255,255.743,255.252,255.586,255.284Zm9.289-203.835c.173.094.409.157.5.3s-.094.33-.157.5a2.356,2.356,0,0,1-.487-.377S264.829,51.607,264.876,51.449Zm4.055,170.543a4.715,4.715,0,0,1-1.666.849,3.751,3.751,0,0,1-1.257,0,7.437,7.437,0,0,1-1.226-.189,17.7,17.7,0,0,1-2.562.094c-.267,0-.6-.55-.707-.912a2.435,2.435,0,0,1,0-1.257,27.2,27.2,0,0,0,.754-7.639,3.647,3.647,0,0,1,.393-1.871c.267-.519.77-1.163,1.257-1.273a61.56,61.56,0,0,1,6.287-1.037,3.961,3.961,0,0,1,3.709,2.09,1.478,1.478,0,0,1,.2,1.163,19.576,19.576,0,0,1-4.008,6.523,3.034,3.034,0,0,0-.912,2.31C269.214,221.238,269.183,221.788,268.931,221.993Zm7.372,63.36c-.409.252-.692-.157-.959-.582a21.479,21.479,0,0,1-2.515-7.2,4.713,4.713,0,0,1,.11-2.515,12.134,12.134,0,0,0,.377-6.932,25.679,25.679,0,0,1-.251-3.82,1.568,1.568,0,0,1,.251-.582c.346.2.9.314,1.006.613a20.68,20.68,0,0,1,.613,2.452,18.772,18.772,0,0,0,.9,3.678,6.539,6.539,0,0,1,.173,5.014,6.854,6.854,0,0,0-.267,4.967,38.305,38.305,0,0,1,.786,3.772C276.555,284.6,276.508,285.212,276.3,285.353Zm14.775-140.789c-.283,0-.487-.44-.739-.692.126-.126.267-.361.362-.346a8.651,8.651,0,0,1,.959.33c0,.455-.2.8-.613.723Z" transform="translate(0 240.05) rotate(-41)"/></clipPath><filter id="c" x="456.893" y="464" width="46" height="46" filterUnits="userSpaceOnUse"><feOffset dy="3" input="SourceAlpha"/><feGaussianBlur stdDeviation="3" result="d"/><feFlood flood-opacity="0.161"/><feComposite operator="in" in2="d"/><feComposite in="SourceGraphic"/></filter><filter id="e" x="448.893" y="504" width="38" height="39" filterUnits="userSpaceOnUse"><feOffset dy="3" input="SourceAlpha"/><feGaussianBlur stdDeviation="3" result="f"/><feFlood flood-opacity="0.161"/><feComposite operator="in" in2="f"/><feComposite in="SourceGraphic"/></filter></defs><g transform="translate(-668.107 -1118)"><g class="b" transform="matrix(0.819, 0.574, -0.574, 0.819, 980.844, 1118)"><rect class="c" width="596.509" height="403.37" transform="translate(-26.741 70.882)"/></g><g class="b" transform="matrix(0.819, 0.574, -0.574, 0.819, 980.844, 1118)"><path class="d" d="M86,307.622a4.442,4.442,0,0,0-1.849-1.336c-1.12-.41-1.12-.469,0-.513,1.785-.076,3.865,1.336,3.088,2.093A.8.8,0,0,1,86,307.622Zm-41.808-2.7c.848,2.579,11.208,10.762,15.462,12.214,5.884,2,9.183,1.385,12.9-2.414,4.568-4.676,8.822-7.638,9.48-6.609a1,1,0,0,0,1.3.423c.414-.246,1.318.619,2.016,1.925,1.277,2.385,8.258,7.447,10.272,7.447,2.725,0,5.35,2.166,7.976,6.58,1.572,2.64,3.141,4.8,3.487,4.806s.632.511.632,1.125c0,4.04,13.327,12.71,19.286,12.545a4.262,4.262,0,0,1,3.875,1.586,6.706,6.706,0,0,0,3.326,2.174c1.171.285,2.149.968,2.177,1.52.094,1.808,7.61,6.454,10.577,6.535,3.212.086,7.044-2.837,7.044-5.376,0-1.407.371-1.523,3.156-.987a61.477,61.477,0,0,0,7.567.752c3.657.125,4.878.582,7.153,2.66,1.509,1.378,3.207,2.338,3.778,2.137s1.491.582,2.042,1.746c.982,2.083,8.636,6.968,10.909,6.958,4.086-.015,7.554-1.844,9.119-4.809a36,36,0,0,1,3.865-5.666l2.227-2.562,1.661,2.046c.914,1.122,2.179,2.043,2.808,2.043s1.376.712,1.663,1.584a3.5,3.5,0,0,0,2.009,2.043,9.424,9.424,0,0,1,3.346,2.891c1.026,1.339,2.359,2.434,2.969,2.434A4.962,4.962,0,0,1,220.9,364.3a5.609,5.609,0,0,0,3.514,1.628,12.672,12.672,0,0,1,5.147,2.016c6.224,3.986,13.537,3.777,15.34-.442a35.251,35.251,0,0,1,3.428-5.612c2.463-3.281,4.6-3.652,6.729-1.167,1.015,1.172,4.088,1.452,7.161.656,1.549-.4,5.714-5.74,15.744-20.223,1.524-2.21,3.149-4.141,3.631-4.293.457-.15,2.539.825,4.571,2.171,6.7,4.379,8.3,3.736,16.481-6.575l6.373-8.043h4.038c3.276,0,4.469-.423,6.425-2.282a134.063,134.063,0,0,0,13.788-16.214c1.6-2.338,3.2-4.261,3.53-4.271a35.431,35.431,0,0,1,5.257,2.1c6.475,2.967,9.091,2.353,14.855-3.468,2.488-2.508,6.805-6.842,9.573-9.635s7.237-7.845,9.929-11.229,5.764-7,6.856-8.048c3.276-3.19,7.415-10.686,7.567-13.7.127-3.148-1.473-6.744-4.368-9.743l-1.9-1.965,2.006-2.08c4.063-4.224,5.689-10.615,3.632-14.39-1.117-2.1-1.067-2.507.914-5.528,1.168-1.793,4.469-6.025,7.364-9.4a75.062,75.062,0,0,0,6.729-8.984c1.372-2.613,5.181-7.982,6.349-8.952.431-.364,1.549-2.324,4.419-7.729,2.818-5.364,2.158-11.921-1.5-14.567-1.168-.845-2.134-1.977-2.134-2.517a4.838,4.838,0,0,0-1.676-2.456c-.939-.811-1.675-1.164-1.675-.786s-.762-.1-1.7-1.061c-2.032-2.122-2.133-4.392-.279-7.793.737-1.412,1.7-3.2,2.082-3.981a8.919,8.919,0,0,0-1.575-9.608c-4.926-5.389-9.954-9.7-11.122-9.515-.965.147-1.245-.887-1.269-4.7-.025-4.178-.406-5.325-2.565-7.935-1.372-1.68-3.2-3.053-4.012-3.053-.838,0-2.158-1.1-2.971-2.444-.813-1.41-1.9-2.267-2.54-2.031-.66.233-1.32-.265-1.574-1.145a3.215,3.215,0,0,0-1.8-2.016c-1.346-.442-2.336-1-6.983-3.961a9.048,9.048,0,0,0-3.53-1.425c-2.108,0-2.336-1.306-.787-4.2a25.427,25.427,0,0,1,1.9-3.127,19.2,19.2,0,0,0,1.6-2.846c.635-1.346,1.854-3.777,2.717-5.4a13.359,13.359,0,0,0,1.574-4.517,3.92,3.92,0,0,1,.762-2.331c1.066-1.1-.432-4.438-1.981-4.438a1.264,1.264,0,0,1-1.3-1.218c0-1.375-2.92-4.477-4.215-4.477-.457,0-.838-.734-.838-1.628s-.483-1.633-1.066-1.641c-1.625-.019-9.243-7.972-8.583-9a3.231,3.231,0,0,0-.279-2.667,35.246,35.246,0,0,1-1.575-3.844c-.711-2.083-9.674-10.526-11.2-10.526a21.926,21.926,0,0,1-4.774-2.441c-2.209-1.344-4.673-2.441-5.51-2.441s-1.523-.295-1.523-.651-1.6-1.474-3.58-2.478c-1.955-1-4.52-2.353-5.663-3A11.978,11.978,0,0,0,320,33.857c-3.58-.015-3.657,2.161-.228,5.944l2.488,2.756L320.2,44.447l-2.107,1.891v-1.8c0-3.416-4.063-9.78-7.77-12.118a55.912,55.912,0,0,1-9.218-7.017,41.861,41.861,0,0,0-7.9-4.922c-2.742-1.3-5.713-2.731-6.627-3.168-2.692-1.3-14.017-4.632-15.744-4.632a3.432,3.432,0,0,0-2.539,2.034c-1.245,2.665-2.362,2.566-5.358-.472a62.341,62.341,0,0,0-8.151-6.167c-3.123-2.014-5.688-3.935-5.688-4.266,0-.978-7.466-4.31-8.405-3.75-1.244.746-1.041,3.934.381,5.752a5.747,5.747,0,0,1,1.245,2.8c.025,1.228-3.428,4.883-4.6,4.883-.356,0-1.117.641-1.727,1.427-1.346,1.8-9.561,1.726-10.612-.091a4.962,4.962,0,0,0-2.763-1.663,21.721,21.721,0,0,1-5.178-2.532A12.832,12.832,0,0,0,213.2,8.615a7.455,7.455,0,0,1-2.618-.7C208.262,6.812,198.3,3.73,197.044,3.73c-.673,0-.942.506-.655,1.233.307.774-1.041,2.807-3.621,5.465-3.768,3.883-4.406,4.224-7.626,4.1a10.609,10.609,0,0,1-4.568-.985c-.582-.466-1.3-.614-1.589-.329s-1.016.13-1.6-.339a9.666,9.666,0,0,0-3.969-1.135c-2.753-.265-2.931-.123-3.58,2.854-1.552,7.078-5.706,9.19-12.88,6.54-1.851-.685-4.881-1.616-6.732-2.073s-3.936-1.024-4.629-1.26a32.091,32.091,0,0,0-5.086-.768c-3.766-.332-3.842-.287-5.32,2.947-.825,1.805-1.884,3.284-2.351,3.284a4.894,4.894,0,0,0-2.342,1.773L129,26.809l-3.7-3.5c-4.454-4.215-10.612-8.183-12.7-8.183-1.859,0-1.866.28-.14,4.657l1.379,3.493-4.413,4.676c-7.483,7.925-9.6,9.964-10.32,9.964a19.8,19.8,0,0,1-3.72-1.221c-3.608-1.456-5.673-1.582-4.848-.295.744,1.162-3.489.459-10.31-1.717-2.656-.847-5.147-1.353-5.531-1.127s-.455,1.65-.16,3.156c.46,2.385.137,3.133-2.5,5.759-1.668,1.66-3.032,3.316-3.032,3.677,0,1.007-3.558,4.048-5.678,4.848A2.7,2.7,0,0,0,61.435,53.7c0,2.434-4.5,7-6.9,7-1.486,0-1.653.356-1.191,2.571a23.74,23.74,0,0,0,1.785,5.013c1.909,3.7,1.584,4.846-2.583,9.112a38.61,38.61,0,0,0-5.028,6.152,25.2,25.2,0,0,1-4.9,5.354l-3.72,3.136,2.321,4.765c1.277,2.623,2.781,5.044,3.352,5.383,1.5.9-1.963,7.164-5.554,10.067a19.641,19.641,0,0,0-4.22,4.853,14.742,14.742,0,0,1-3.347,4.055c-1.536,1.169-1.991,2.3-1.991,4.993,0,2.817-.521,4.006-2.74,6.251a40.881,40.881,0,0,0-4.33,5.209c-1.985,3.05-3.316,4.556-8.05,9.114-3.8,3.664-4.111,3.74-9.07,2.252-3.055-.914-2.344,1.221,2.638,7.935a56.8,56.8,0,0,1,5.056,7.648,23.455,23.455,0,0,0,3.862,5.118c5.122,5.482,5.119,6.2-.041,10.863a65.835,65.835,0,0,1-6.62,5.359,14.3,14.3,0,0,0-3.207,2.7,2.648,2.648,0,0,1-2.727.938,5.906,5.906,0,0,0-2.948.052h0c-.7.26-1.277.651-1.277.867,0,1.162,3.756,9.014,5.871,12.273a10.5,10.5,0,0,1,1.643,3.89A2.26,2.26,0,0,0,8.8,208.53c.673.251,2.034,2.075,3.027,4.055s2.527,3.981,3.405,4.435a2.822,2.822,0,0,1,1.6,1.975c0,.629,1.133,1.793,2.524,2.589s2.524,1.84,2.524,2.328-1.3,2.1-2.892,3.6c-2.021,1.9-3.41,2.576-4.624,2.269-.957-.24-1.92-.152-2.146.2-.475.744,3.527,6.223,6.267,8.571a38.291,38.291,0,0,1,5.17,7.393,42.566,42.566,0,0,0,5.589,7.913c1.272,1.181,3,2.854,3.844,3.713s6.414,3.9,12.387,6.737c7.692,3.659,10.871,5.587,10.886,6.6.01.783-.4,1.424-.9,1.424s-5.29,4.207-10.627,9.353c-7.125,6.867-9.484,9.625-8.872,10.374a9.569,9.569,0,0,1,1.336,3.07,16.026,16.026,0,0,0,3.448,5.153,19.161,19.161,0,0,1,3.448,4.644" transform="matrix(0.819, -0.574, 0.574, 0.819, 59.704, 259.117)"/></g><text class="e" transform="translate(1024 1445)"><tspan x="0" y="0">60%</tspan></text><text class="f" transform="translate(1025.821 1466.338)"><tspan x="0" y="0">Of population</tspan></text><g transform="translate(1134.343 1588.241)"><g class="j" transform="matrix(1, 0, 0, 1, -466.24, -470.24)"><circle class="g" cx="14" cy="14" r="14" transform="translate(465.89 470)"/></g><circle class="c" cx="8.5" cy="8.5" r="8.5" transform="translate(5.657 5.759)"/></g><g transform="translate(1126.305 1628.434)"><g class="i" transform="matrix(1, 0, 0, 1, -458.2, -510.43)"><ellipse class="g" cx="10" cy="10.5" rx="10" ry="10.5" transform="translate(457.89 510)"/></g><ellipse class="c" cx="6" cy="6.5" rx="6" ry="6.5" transform="translate(3.695 3.567)"/></g><text class="h" transform="translate(1208 1606)"><tspan x="-42.79" y="0">Maputo</tspan></text><text class="h" transform="translate(1209 1643)"><tspan x="-55.759" y="0">Swaziland</tspan></text></g></svg>