<svg id="Layer_1" data-name="Layer 1" xmlns="http://www.w3.org/2000/svg" viewBox="0 0 140.32 135.05"><defs><style>.cls-1{fill:#fdfdfe;}</style></defs><title>SWB_BÍLE</title><path class="cls-1" d="M33.47,32.4a48.22,48.22,0,0,0-6.4-5.68c-1.18-.9-2.39-1.76-3.61-2.62l-1.94-1.39c-0.53-.39-1.06-0.77-1.62-1.11a11.79,11.79,0,0,1-3-2.5l-0.16-.19a3.64,3.64,0,0,1-1-1.7,2,2,0,0,1,.8-1.87,1.14,1.14,0,0,1,1.42.08,10.12,10.12,0,0,1,2.61,1.8,7.86,7.86,0,0,0,1.27,1A1.76,1.76,0,0,0,24.31,18a1.83,1.83,0,0,0-.07-2.52c-0.16-.18-0.33-0.35-0.5-0.51l-0.24-.24a15.18,15.18,0,0,0-4.27-3.1,4.81,4.81,0,0,0-6,1.39c-0.33.43-.63,0.88-0.93,1.33l-0.4.6-0.38,1.62L11.62,17a5.14,5.14,0,0,1,.13.61,5.71,5.71,0,0,0,.74,2.29,15.74,15.74,0,0,0,2.48,3A18.79,18.79,0,0,0,17.71,25c0.38,0.26.76,0.51,1.12,0.78,0.77,0.56,1.56,1.11,2.35,1.66,1.48,1,3,2.09,4.42,3.24a43.13,43.13,0,0,1,5.14,4.72,10.84,10.84,0,0,1,1.91,3c0.19,0.46.09,0.55-.16,0.71a3.44,3.44,0,0,1-2.38.63,4.58,4.58,0,0,1-2.59-1.64c-0.73-.75-1.42-1.58-2.09-2.38l-0.56-.67a2.24,2.24,0,0,0-1.95-.88,2,2,0,0,0-1.53,1.07,2,2,0,0,0,.19,2.18c0.3,0.42.64,0.81,1,1.2L22.77,39a19.52,19.52,0,0,0,3.68,3.62,7.73,7.73,0,0,0,4.11,1.32h0.24a7.17,7.17,0,0,0,2.64-.65l0.18-.07a4.75,4.75,0,0,0,2.69-6.52A16.9,16.9,0,0,0,33.47,32.4Z"/><path class="cls-1" d="M60.53,33.75c-0.56-.22-1.11-0.45-1.65-0.7l-0.94-.44-1.11-.52-2-.89-2.3-1c-1.73-.77-3.45-1.55-5.17-2.34l-0.41-.19-0.72-.35,0,0,0.19-1c0.19-1.06.38-2.1,0.55-3.15,0.13-.81.25-1.62,0.36-2.43s0.2-1.37.3-2.06,0.26-1.64.4-2.47c0.21-1.28.42-2.55,0.61-3.83,0.29-2,.52-4,0.76-6l0.07-.57a11.8,11.8,0,0,0,.07-1.76A1.82,1.82,0,0,0,46,3.29a3.31,3.31,0,0,0-.21.85c0,0.21-.06.43-0.08,0.64s0,0.4-.07.59L45.38,6.75c-0.31,2-.62,4-0.94,6.07Q43.6,18,42.74,23.18l-0.2,1.21c-0.31-.63-0.6-1.24-0.89-1.85Q41.07,21.28,40.49,20c-1.27-2.77-2.58-5.63-4.14-8.32l-0.17-.3a3.7,3.7,0,0,0-1.24-1.51,1.83,1.83,0,0,0-2.16.11,1.77,1.77,0,0,0-.52,2.18,4.3,4.3,0,0,0,.28.51c0.07,0.11.14,0.22,0.19,0.33l1.45,3.07,6,12.7c1,2.09,2,4.17,2.94,6.27,0.6,1.31,1.16,2.63,1.76,4.07,0.18,0.42.34,0.85,0.51,1.28s0.35,0.92.54,1.37a2.05,2.05,0,0,0,2.6,1.12,2,2,0,0,0,1.18-2.42,5.62,5.62,0,0,0-.25-0.77Q48.23,36.78,47,33.85l-0.9-2.11,1.15,0.52,1.42,0.65c0.85,0.4,1.71.79,2.57,1.17,2,0.87,4,1.73,6.07,2.56a12.8,12.8,0,0,0,2.4.76,1.84,1.84,0,0,0,1.68-.52,1.86,1.86,0,0,0,.46-1.73A2,2,0,0,0,60.53,33.75Z"/><path class="cls-1" d="M85.39,29.5L84,28.09c-0.69-.72-1.38-1.45-2.05-2.19-1.53-1.7-3-3.42-4.52-5.15l-2.81-3.26c-1.51-1.76-3-3.52-4.55-5.26C69,11,67.9,9.75,66.77,8.53l-2-2.14a2.83,2.83,0,0,0-3.05-.76,2.21,2.21,0,0,0-1.46,1,2.46,2.46,0,0,0,0,1.9c0.26,0.83.48,1.68,0.7,2.52l0.09,0.34c0.14,0.52.27,1,.4,1.57,0.25,1,.51,2,0.81,3,0.62,2,1.27,4.09,1.93,6.13l1.45,4.55c0.53,1.68,1.07,3.36,1.56,5.05s0.88,3.12,1.31,4.69l0.38,1.42C69,38,69,38.26,69.05,38.48a8.32,8.32,0,0,0,.3,1.15,2,2,0,0,0,1.4,1.32,1.87,1.87,0,0,0,.47.06,2,2,0,0,0,1.36-.54,1.93,1.93,0,0,0,.62-1.85c-0.12-.7-0.28-1.41-0.49-2.18-0.58-2.17-1.16-4.33-1.78-6.49-0.24-.84-0.51-1.67-0.78-2.5l-0.23-.72,4.72-2.93,0.25,0.26c0.38,0.4.75,0.77,1.09,1.16s0.5,0.58.75,0.88,0.64,0.76,1,1.12q1.75,1.87,3.55,3.69c0.8,0.82,1.63,1.61,2.51,2.46a4,4,0,0,0,.68.5,1.61,1.61,0,0,0,1.77,0,1.87,1.87,0,0,0,.89-1.25A1.93,1.93,0,0,0,86.72,31C86.3,30.49,85.83,30,85.39,29.5Zm-13.2-8.73-3.5,2-0.42-1.3c-0.44-1.36-.87-2.69-1.29-4s-0.84-2.67-1.25-4c1.73,1.86,3.38,3.79,5.11,5.81Z"/><path class="cls-1" d="M127,34.53a2,2,0,0,0-2.71-1L120.65,35l-3.43,1.45c-1.57-4.21-3.27-8.65-5.31-13l1.87-.78,3-1.26q1.32-.56,2.62-1.17a1.92,1.92,0,0,0,1.14-1.78,1.89,1.89,0,0,0-1-1.76,2.09,2.09,0,0,0-1.91,0l-1.2.52c-0.74.32-1.48,0.64-2.21,1-1,.47-2,0.94-3.06,1.42l-0.76.36-3.85-9.14,0.1,0c0.47-.18.95-0.36,1.43-0.53l0.24-.08c1-.34,2-0.68,3-1,0.41-.12.81-0.26,1.21-0.4A11,11,0,0,1,115,8.13a1.91,1.91,0,0,0,1.38-.78,2.17,2.17,0,0,0,.35-1.74,2.05,2.05,0,0,0-2.53-1.52,15,15,0,0,0-1.54.4c-1.25.41-2.5,0.84-3.74,1.27A41.64,41.64,0,0,0,103.61,8a2.1,2.1,0,0,0-1.22,2.39,6.43,6.43,0,0,0,.36,1.31c0.69,1.82,1.38,3.64,2.1,5.45,0.82,2.06,1.64,4.12,2.5,6.16,0.23,0.55.49,1.08,0.75,1.61s0.45,0.91.65,1.37c0.72,1.64,1.41,3.3,2.08,5,0.6,1.5,1.18,3,1.75,4.51l0.4,1.05c0.11,0.3.22,0.6,0.33,0.91,0.2,0.56.39,1.12,0.64,1.65a2.72,2.72,0,0,0,1.48,1.56,2,2,0,0,0,.66.11,2.81,2.81,0,0,0,1.24-.32c0.88-.44,1.83-0.8,2.75-1.15l1.26-.49,1.29-.51c1.09-.43,2.18-0.87,3.25-1.33a2.08,2.08,0,0,0,1.16-1.14A2,2,0,0,0,127,34.53Z"/><path class="cls-1" d="M98,29.43l-0.5-1.17c-0.35-.82-0.69-1.64-1.06-2.46l-0.25-.57c-1-2.26-2-4.51-3.06-6.75-0.87-1.87-1.79-3.71-2.7-5.56L90,12c-0.22-.45-0.47-0.9-0.72-1.34l-0.07-.13,0.39-.17c1.09-.49,2.18-1,3.28-1.45,0.25-.11.5-0.2,0.76-0.28s0.6-.21.88-0.34a2,2,0,0,0,1.15-2.19A2,2,0,0,0,93.77,4.5a3.56,3.56,0,0,0-1.19.18,49.58,49.58,0,0,0-6.14,2.68c-2.38,1.16-4.84,2.37-7.2,3.8a4.19,4.19,0,0,0-1.21,1,1.73,1.73,0,0,0-.23,1.73A1.82,1.82,0,0,0,79.27,15a2.52,2.52,0,0,0,1.54-.37,52.26,52.26,0,0,1,5-2.43L86,12.57c0.29,0.58.58,1.14,0.85,1.72q1.44,3.12,2.85,6.25l0.78,1.71c0.32,0.7.64,1.39,1,2.09,0.73,1.57,1.48,3.19,2.15,4.81,1.58,3.86,2.89,6.76,4.26,9.41a3.47,3.47,0,0,0,.67.91,1.79,1.79,0,0,0,1.26.5,2.31,2.31,0,0,0,.77-0.14,1.69,1.69,0,0,0,1.2-1.65,3.31,3.31,0,0,0-.28-1.44C100.33,34.65,99.25,32.32,98,29.43Z"/><path class="cls-1" d="M22,96.77a15.88,15.88,0,0,0-4.19-1.89,18.32,18.32,0,0,0-3.1-.63A2.35,2.35,0,0,0,12,96.57a2.37,2.37,0,0,1-.06.37l-0.43,1.51c-0.25.85-.49,1.71-0.72,2.57-0.38,1.43-.74,2.87-1.1,4.31l-0.81,3.23c-0.38,1.5-.76,3-1.15,4.49-0.15.58-.3,1.15-0.46,1.72S7,115.92,6.84,116.5l-0.61,2.38c-0.25,1-.51,2-0.77,3-0.12.46-.26,0.92-0.39,1.38-0.25.84-.5,1.71-0.67,2.6-0.42,2.2.92,2.89,1.76,3.1,1.14,0.29,2.28.57,3.42,0.83a12,12,0,0,0,2.7.4,5.56,5.56,0,0,0,1.56-.21c0.39-.11.78-0.25,1.16-0.4l0.84-.29A4.8,4.8,0,0,0,18,127.77a10.17,10.17,0,0,0,2.37-4.71c0-.18.07-0.35,0.12-0.53a7.32,7.32,0,0,0,.23-1.42,10.54,10.54,0,0,0-.6-3.32l-0.06-.2a11.61,11.61,0,0,0-2.93-4.86c-0.25-.26-0.51-0.51-0.79-0.76l0.31,0a10.91,10.91,0,0,0,2.93-.91,14.73,14.73,0,0,0,2.79-1.82,8.5,8.5,0,0,0,3.35-5,5.09,5.09,0,0,0-.24-3.13A9.28,9.28,0,0,0,22,96.77Zm-6.6,20.31a4.76,4.76,0,0,1,.47.88,16.92,16.92,0,0,1,.7,2.43,3.38,3.38,0,0,1-.07,1.34,12.23,12.23,0,0,1-.66,2,3.7,3.7,0,0,1-3.59,2.4,7.32,7.32,0,0,1-1.8-.26l-0.6-.13c-0.35-.07-0.69-0.17-1.07-0.28l-0.08,0,3.17-12.1a7.62,7.62,0,0,1,.73.59,12.47,12.47,0,0,1,2.61,2.88Zm-2.11-9H13.2l2.36-9.86a10.73,10.73,0,0,1,1,.29,13,13,0,0,1,3.47,1.79,4.76,4.76,0,0,1,1.56,2.06,2.31,2.31,0,0,1-.59,2.45,9.82,9.82,0,0,1-3,2.37,8,8,0,0,1-3.28.83Z"/><path class="cls-1" d="M138.53,100.34a23,23,0,0,0-4.12-5.09,14.58,14.58,0,0,0-2.76-2,2.62,2.62,0,0,0-3.54.74L127,95.46l-1.05,1.37-2.05,2.7c-1.9,2.49-3.79,5-5.66,7.49-1.56,2.1-3.2,4.4-5,7-0.71,1-1.38,2.12-2,3.17l-0.68,1.1a4.8,4.8,0,0,0-.52,1,1.78,1.78,0,0,0,.43,1.94,1.74,1.74,0,0,0,2,.39,2.89,2.89,0,0,0,1.06-1q1.24-1.77,2.47-3.56c1-1.41,2-2.82,2.94-4.23,0.69-1,1.42-2,2.18-3l0.2-.26,0.1,1.29c0.13,1.61.25,3.27,0.31,4.91s0,3.26,0,4.86l0,1.84c0,1.95,0,3.9-.07,5.84a3.44,3.44,0,0,1-.1.66l-0.05.24a2.22,2.22,0,0,0,.7,2.19,1.9,1.9,0,0,0,1.3.52,2.16,2.16,0,0,0,.8-0.16,2,2,0,0,0,1.29-1.87c0.07-1.76.13-3.51,0.17-5.27,0-1.25,0-2.5,0-3.75v-1.22c0-1.87,0-3.73-.08-5.59,0-.74-0.1-1.49-0.18-2.23,0-.26-0.06-0.52-0.08-0.79,0.53,0.23,1,.45,1.56.63a4.8,4.8,0,0,0,1,.21l0.35,0,0.31,0,0.26,0a7.58,7.58,0,0,0,4.68-.64,11.19,11.19,0,0,0,4-3.6,9.37,9.37,0,0,0,1.37-2.42A6,6,0,0,0,138.53,100.34ZM135.14,104a6.89,6.89,0,0,1-.72,1.29,7.33,7.33,0,0,1-2.67,2.56,3.78,3.78,0,0,1-2.17.28l-0.17,0a1.76,1.76,0,0,0-.48-0.08h-0.11a2.25,2.25,0,0,1-1-.24l-0.23-.09a7.43,7.43,0,0,1-2.09-1.4c-0.34-.28-0.68-0.58-1.06-0.85l6.26-8a3.87,3.87,0,0,1,.92.74l0.72,0.73a12.43,12.43,0,0,1,1.9,2.23c0.12,0.2.25,0.38,0.38,0.57a4,4,0,0,1,.67,1.23A1.6,1.6,0,0,1,135.14,104Z"/><path class="cls-1" d="M102.6,97.89l1,0.39c1.32,0.5,2.64,1,3.95,1.53,0.66,0.26,1.31.53,2,.81l1.69,0.7a2.11,2.11,0,0,0,2.39-.58,1.83,1.83,0,0,0,.13-2.24,2.79,2.79,0,0,0-1.17-1c-1.68-.72-3.41-1.46-5.18-2.09-1.19-.42-2.4-0.79-3.61-1.16L102,93.7a2.09,2.09,0,0,0-1.73.09,2,2,0,0,0-.92,1.38A23.62,23.62,0,0,1,98,98.92c-0.16.39-.32,0.78-0.47,1.18l-0.48,1.21c-0.29.73-.59,1.46-0.85,2.2q-0.7,2-1.39,3.91c-0.49,1.38-1,2.76-1.47,4.13-0.25.7-.53,1.4-0.8,2.09s-0.61,1.56-.89,2.35c-0.69,1.94-1.36,3.89-2,5.84l-0.86,2.5a2.11,2.11,0,0,0,.12,1.79,2.09,2.09,0,0,0,1.49,1l0.27,0a4.05,4.05,0,0,1,.58.12l1.94,0.63L95,128.47q2.3,0.73,4.6,1.44a3.07,3.07,0,0,0,.88.14h0.1a1.86,1.86,0,0,0,1.59-1,1.79,1.79,0,0,0-.06-1.78,2.44,2.44,0,0,0-1.1-.88c-0.46-.2-0.93-0.35-1.4-0.51l-0.63-.21-5.52-1.94-0.19-.08,4.68-13,0.74,0.23c0.9,0.28,1.78.56,2.67,0.82q2.46,0.72,4.92,1.4a2.92,2.92,0,0,0,1.09.06,1.77,1.77,0,0,0,1.54-1.4,1.73,1.73,0,0,0-.82-1.95,4.21,4.21,0,0,0-.91-0.37l-0.16,0-1-.33-1.45-.46-3.39-1.16-1.78-.61h0l3.26-9h0Z"/><path class="cls-1" d="M48.53,98c-1.33-.55-2.66-1.09-4-1.62a44.09,44.09,0,0,0-5.64-1.78,8.16,8.16,0,0,0-1.54-.27,1.83,1.83,0,0,0-2.08,1.6c-0.09.39-.21,0.78-0.32,1.16l-2,6.49c-0.35,1.16-.69,2.33-1.05,3.49s-0.7,2.2-1.06,3.29L30,113q-0.59,1.82-1.18,3.64l-0.58,1.73c-0.3.9-.61,1.8-0.89,2.7-0.15.46-.28,0.93-0.41,1.4s-0.33,1.21-.54,1.79a2.88,2.88,0,0,0,.09,2.28,2.69,2.69,0,0,0,1.68,1.34c0.32,0.09.64,0.2,1,.31L36,130.51a3.38,3.38,0,0,0,.78.16h0.14a2.06,2.06,0,0,0,1.88-1.24,1.87,1.87,0,0,0-.6-2.25,3.82,3.82,0,0,0-1.21-.62l-3.75-1.12-2-.58-0.63-.2A54,54,0,0,1,32.34,119c0.91-2.48,1.65-5,2.39-7.63a5.24,5.24,0,0,1,.18-0.51l0.15,0c0.42,0.11.82,0.22,1.22,0.35l4.08,1.32,0.57,0.19,3,1a1.85,1.85,0,0,0,2-.47,1.9,1.9,0,0,0,.52-2,2.39,2.39,0,0,0-1.69-1.63c-0.7-.23-1.41-0.44-2.12-0.64l-3.78-1-2.66-.74,2.32-8.77,0.06,0c0.4,0.11.77,0.22,1.14,0.35l1.39,0.53c2.1,0.79,4.28,1.61,6.33,2.6A2,2,0,0,0,50,99,2.78,2.78,0,0,0,48.53,98Z"/><path class="cls-1" d="M69.64,98.36l-1-.2C67.85,98,67,97.83,66.25,97.61a82.11,82.11,0,0,0-10.66-2.12,3.22,3.22,0,0,0-1.23.1,1.76,1.76,0,0,0-1.28,1.27,1.73,1.73,0,0,0,.49,1.71,2.67,2.67,0,0,0,1.22.61c0.56,0.13,1.13.23,1.69,0.33l1.39,0.27c0.68,0.14,1.35.31,2,.48l0.42,0.1-1,3.65q-0.3,1.12-.6,2.24c-0.4,1.51-.8,3-1.24,4.51-0.89,3-1.86,6-2.68,8.54-0.48,1.48-1,2.95-1.47,4.42s-1,3.1-1.54,4.66a2.74,2.74,0,0,0,0,1.53A1.83,1.83,0,0,0,53,131.16a1.93,1.93,0,0,0,.57.09,1.83,1.83,0,0,0,1.18-.42,2.92,2.92,0,0,0,.82-1.17c0.27-.7.5-1.41,0.73-2.11l0.74-2.24c0.34-1,.68-2,1-3.07,0.16-.47.33-0.94,0.5-1.42,0.28-.77.56-1.54,0.8-2.33q1.24-4.05,2.39-8.13c0.49-1.71.94-3.44,1.37-5.17,0.25-1,.49-2,0.72-3.05l0.21-.89,0.2,0,1.6,0.37,3.24,0.74a2,2,0,0,0,2.18-.9,2,2,0,0,0-.16-2.3A2.55,2.55,0,0,0,69.64,98.36Z"/><path class="cls-1" d="M91.67,100.25a2,2,0,0,0-1.29-2.33,3.73,3.73,0,0,0-.83-0.19l-0.83-.12c-1-.14-2-0.28-2.94-0.39q-4.13-.46-8.27-0.87a13.07,13.07,0,0,0-2-.07,1.85,1.85,0,0,0-1.79,1.82A1.9,1.9,0,0,0,75.3,100c0.18,0,.36,0,0.54.06l0.35,0,4,0.53L79.63,103c-0.41,1.71-.82,3.42-1.22,5.14-0.32,1.41-.64,2.82-1,4.23-0.42,1.89-.85,3.78-1.29,5.66-0.51,2.17-1.05,4.34-1.59,6.5l-0.83,3.34a6.35,6.35,0,0,0-.15.87,2,2,0,0,0,1.65,2.3l0.33,0a2,2,0,0,0,2-1.64l1.86-7.66c0.27-1.09.54-2.17,0.8-3.27s0.48-2.11.72-3.16l1-4.37c0.34-1.45.68-2.9,1-4.36s0.56-2.74.84-4.14L84,101.06l2.22,0.31c1.07,0.15,2.14.3,3.21,0.43A2,2,0,0,0,91.67,100.25Z"/><path class="cls-1" d="M39.46,79.22l-0.62-4.09c-0.31-2.08-.63-4.15-0.92-6.23-0.24-1.76-.47-3.53-0.69-5.3l-0.36-2.88Q36.64,59,36.4,57.2l-0.24-1.82c0-.33-0.08-0.65-0.13-1a2.18,2.18,0,0,0-1.19-1.71,2,2,0,0,0-1.86.13,2.17,2.17,0,0,0-1,2.29c0.11,0.8.22,1.6,0.34,2.4s0.26,1.82.38,2.73c0.15,1.14.28,2.29,0.41,3.44l0.05,0.47c0,0.31.06,0.62,0.09,0.92,0,0.47.08,0.95,0.15,1.42,0.16,1.12.33,2.25,0.51,3.37l1,6.68a4.54,4.54,0,0,1-.51-0.61A28.2,28.2,0,0,0,32,73c-0.42-.47-0.84-0.94-1.25-1.42a13.32,13.32,0,0,0-2.22-2,2.31,2.31,0,0,0-2-.47,2.49,2.49,0,0,0-1.6,1.56,24.16,24.16,0,0,0-1.06,3.69l-0.06.26c-0.25,1.07-.48,2.15-0.72,3.22l-0.54,2.41-0.05.23-0.06-.31-0.19-1c-0.33-1.66-.66-3.33-1-5-0.15-.73-0.32-1.46-0.48-2.2s-0.33-1.48-.49-2.22c-0.08-.4-0.15-0.8-0.21-1.21s-0.15-.93-0.25-1.39q-0.58-2.64-1.23-5.27c-0.35-1.4-.74-2.78-1.13-4.17l-0.06-.21a3.31,3.31,0,0,0-.46-0.95A1.69,1.69,0,0,0,15,56a1.6,1.6,0,0,0-1.29,1.5,6.18,6.18,0,0,0,.13,1.43c0.09,0.45.2,0.89,0.31,1.33s0.19,0.77.27,1.16c0.14,0.64.26,1.28,0.39,1.92s0.21,1.05.31,1.58,0.21,1,.32,1.51c0.16,0.71.31,1.41,0.45,2.13,0.1,0.5.18,1,.26,1.51,0.11,0.68.22,1.35,0.37,2,0.21,1,.45,2,0.68,2.93s0.52,2.16.75,3.25,0.43,2.15.62,3.22c0.13,0.71.26,1.43,0.4,2.14,0.06,0.33.16,0.64,0.25,1s0.11,0.36.15,0.54l0.25,1c0.14,0.59.29,1.19,0.45,1.78a2.12,2.12,0,0,0,2.09,1.71h0.09A2.18,2.18,0,0,0,24.43,88c0.23-.67.46-1.34,0.68-2,0.1-.32.21-0.64,0.32-1a24.2,24.2,0,0,0,.73-2.35c0.37-1.57.71-3.15,1-4.73,0.19-.88.37-1.76,0.57-2.63,0.06-.26.13-0.53,0.21-0.8l1.46,1.66c0.39,0.44.79,0.88,1.16,1.33,0.19,0.23.36,0.47,0.53,0.72s0.38,0.54.6,0.8a46.85,46.85,0,0,1,3.43,4.54,12.63,12.63,0,0,0,1.17,1.6,2.13,2.13,0,0,0,2,.71,2.11,2.11,0,0,0,1.58-1.34A2.79,2.79,0,0,0,40,83.12C39.86,81.82,39.66,80.52,39.46,79.22Z"/><path class="cls-1" d="M90,82.76l-0.33.46L90,82.76a1.3,1.3,0,0,1-.15-0.21l-2.13-3.19c-0.49-.74-1-1.48-1.49-2.21s-0.87-1.24-1.31-1.86L83.94,74c-0.28-.4-0.56-0.8-0.85-1.19-0.5-.67-1-1.33-1.52-2l-0.2-.26,0.45-.14a15.52,15.52,0,0,0,1.82-.64,7.1,7.1,0,0,0,2.92-2.25,12,12,0,0,0,2.19-5.09L88.82,62A6.11,6.11,0,0,0,89,60.18a10,10,0,0,0-2.05-6L86.78,54a5.32,5.32,0,0,0-1.09-1.09,9.29,9.29,0,0,0-5.08-1.64c-0.46,0-.91-0.06-1.37-0.12s-0.76-.09-1.14-0.11l-0.37,0a15.36,15.36,0,0,0-2.34,0c-1.35.12-2.69,0.33-4.06,0.55a3,3,0,0,0-2.8,2.71,27.51,27.51,0,0,0,0,4.95v0.2c0.07,1,.16,2,0.26,3s0.2,2,.26,2.95c0.14,2.17.24,4.38,0.29,6.56,0,1.69.07,3.38,0.09,5.07,0,2,.06,4,0.12,6.06a7.44,7.44,0,0,0,.53,2.32,2,2,0,0,0,2.22,1.07A1.91,1.91,0,0,0,74.2,84.8a4.71,4.71,0,0,0,0-.89l0-.23c0-.17,0-0.35,0-0.52a7.32,7.32,0,0,1-.06-0.82c0-1.16,0-2.33,0-3.49s0-2.16,0-3.24c0-.86,0-1.72,0-2.57V71.35c0-.06,0-0.12,0-0.18l2.32,0,1,1.45c0.82,1.15,1.63,2.29,2.43,3.43s1.61,2.33,2.41,3.5l0.27,0.39c0.87,1.27,1.74,2.55,2.59,3.83,0.19,0.29.37,0.59,0.54,0.88s0.46,0.78.73,1.16a2.53,2.53,0,0,0,2.07,1,3,3,0,0,0,.64-0.07,2.13,2.13,0,0,0,1.67-1.81A2.09,2.09,0,0,0,90,82.76Zm-10.57-16a15,15,0,0,1-3.68.34H74c0-1.82-.2-3.63-0.36-5.38a59.75,59.75,0,0,1-.35-6.27,13.55,13.55,0,0,1,5-.31l2.25,0.2a3.22,3.22,0,0,1,2.65,1.29,6,6,0,0,1,1,3.67,13.34,13.34,0,0,1-.43,2.85,4.15,4.15,0,0,1-.49,1c-0.13.21-.25,0.42-0.36,0.63C82.28,66,80.84,66.41,79.4,66.77Z"/><path class="cls-1" d="M60.62,74.14c0-.5,0-1-0.06-1.49l-0.12-1.83c-0.08-1.12-.15-2.23-0.21-3.35,0-.48,0-1,0-1.44,0-.67,0-1.34-0.08-2s-0.16-1.39-.25-2.08-0.19-1.31-.24-2a9,9,0,0,0-1.38-4.08,8.41,8.41,0,0,0-3.5-3.14,6.91,6.91,0,0,0-5.48-.17,4.31,4.31,0,0,0-1.79,1.06,7.47,7.47,0,0,0-2.15,4.79c0,0.47-.05.93-0.08,1.4l-0.06,1.47c0,0.64-.1,1.28-0.09,1.92A73.33,73.33,0,0,0,45.63,71c0.19,1.65.41,3.29,0.63,4.93q0.19,1.42.41,2.83l0.09,0.55a15.56,15.56,0,0,0,1.33,4.9,9,9,0,0,0,3,3.42,5.75,5.75,0,0,0,3.29,1,7.29,7.29,0,0,0,1.18-.1,5.07,5.07,0,0,0,3.91-2.77,14,14,0,0,0,1.28-6.29c0-1.29,0-2.59,0-3.89Zm-4.27,8.37A4.78,4.78,0,0,1,55.76,84a1.33,1.33,0,0,1-1.42.58,2.78,2.78,0,0,1-2.17-1.4,7.71,7.71,0,0,1-1.22-3c-0.12-.75-0.22-1.5-0.32-2.25l-0.32-2.28c-0.16-1.06-.31-2.12-0.43-3.19-0.27-2.47-.48-4.65-0.63-6.67-0.07-1-.09-1.93-0.11-2.9,0-.24,0-0.49,0-0.73l0.13-1.31c0-.74.09-1.48,0.13-2.22a3.27,3.27,0,0,1,.94-2.06,1.72,1.72,0,0,1,1.26-.38h0.19a2.67,2.67,0,0,1,2,.77,5.5,5.5,0,0,1,1.94,4.2c0,0.67.08,1.34,0.15,2,0,0.43.09,0.86,0.12,1.29q0.16,2.44.27,4.88c0.1,2.24.19,4.48,0.27,6.72l0,0.84c0,0.83.08,1.66,0.05,2.49A22.69,22.69,0,0,1,56.36,82.51Z"/><path class="cls-1" d="M133,62.49a12.91,12.91,0,0,0-.91-5L132,57.22a8.77,8.77,0,0,0-1.19-2.07,15.31,15.31,0,0,0-3.21-3.09,11,11,0,0,0-3.51-1.49,2.72,2.72,0,0,0-2.17.36,2.65,2.65,0,0,0-1.16,1.84c-0.15,1-.35,2-0.58,3.06-0.11.55-.24,1.09-0.36,1.64-0.17.74-.33,1.48-0.47,2.22-0.19,1-.36,1.94-0.53,2.91l-1.1,6.06c-0.1.58-.2,1.16-0.32,1.73s-0.32,1.42-.49,2.12c-0.22.93-.44,1.86-0.63,2.79-0.3,1.44-.57,2.88-0.84,4.33l-0.38,2a2,2,0,0,0,.65,2,3.07,3.07,0,0,0,2,.8H118a3.4,3.4,0,0,0,.71-0.07l1-.24c1.05-.25,2.14-0.5,3.19-0.85a8.46,8.46,0,0,0,3.3-1.89c0.45-.43.91-0.86,1.38-1.26a7.74,7.74,0,0,0,1.68-2.06,21.1,21.1,0,0,0,1.46-3.44,38.93,38.93,0,0,0,1.09-3.77,13,13,0,0,0,.27-1.69,6.74,6.74,0,0,1,.6-2.51l0.08-.29c0-.34.08-0.67,0.12-1a13.44,13.44,0,0,0,.18-2.42Zm-4.21,2.6a7.1,7.1,0,0,1-.32,1.32c-0.07.24-.15,0.47-0.21,0.71a4.9,4.9,0,0,0-.14.73,18.84,18.84,0,0,1-1.24,5.22c-0.14.34-.26,0.69-0.38,1a12.31,12.31,0,0,1-.59,1.5,4.51,4.51,0,0,1-1.16,1.55l-0.69.6a12.35,12.35,0,0,1-1.34,1.08,6.33,6.33,0,0,1-2.41,1,6.73,6.73,0,0,0-.82.21l0.14-.78c0.15-.83.3-1.67,0.47-2.5s0.4-1.8.6-2.69,0.41-1.81.61-2.72c0.13-.62.24-1.25,0.35-1.87,0.06-.36.12-0.73,0.19-1.09l0.42-2.21c0.19-1,.38-2,0.57-3,0.1-.53.18-1.07,0.27-1.6s0.16-1,.24-1.43c0.24-1.34.49-2.67,0.74-4l0.26-1.39h0A8.09,8.09,0,0,1,127,56.87a4.08,4.08,0,0,0,.36.47,6.51,6.51,0,0,1,1.59,4.46A23.5,23.5,0,0,1,128.84,65.09Z"/><path class="cls-1" d="M108.37,81c-1.44-.22-2.88-0.39-4.44-0.57l-2.7-.3L100.4,80l0-.58c0-.78.05-1.53,0.11-2.29,0.25-3.11.53-6.22,0.82-9.33,0.08-.86.17-1.73,0.25-2.59,0.16-1.57.32-3.14,0.42-4.71,0.16-2.33.24-4.69,0.31-7l0-.64a5.64,5.64,0,0,0-.23-1.61A1.88,1.88,0,0,0,100.9,50a1.82,1.82,0,0,0-1.71.3,2,2,0,0,0-.72,1.87l0,0.23a7.41,7.41,0,0,1,0,1.21q-0.23,3.13-.52,6.26c-0.08.83-.17,1.66-0.26,2.48s-0.22,1.94-.3,2.91c-0.34,3.87-.65,7.74-1,11.61-0.11,1.41-.2,2.83-0.28,4.24a2.07,2.07,0,0,0,1.43,2.16,11.71,11.71,0,0,0,1.92.52c0.71,0.11,1.43.2,2.15,0.28l1.34,0.16c0.29,0,.58.09,0.87,0.14l0.78,0.13,2.4,0.34L108,85h0.3a2.08,2.08,0,0,0,1.79-1.35,1.81,1.81,0,0,0-.49-2A2.47,2.47,0,0,0,108.37,81Z"/></svg>