<svg xmlns="http://www.w3.org/2000/svg" width="47.997" height="50" viewBox="0 0 47.997 28.683">
  <g id="education_educate_school_college_graduate_graduation" data-name="education, educate, school, college, graduate, graduation" transform="translate(-8.023 -17.657)">
    <path id="Path_6972" data-name="Path 6972" d="M52,26.14V36.85a1.09,1.09,0,0,0-.79,1A1.12,1.12,0,0,0,52.33,39H53a1.12,1.12,0,0,0,1.12-1.13V26.14Z" fill="#7fb432" opacity="0.816"/>
    <path id="Path_6973" data-name="Path 6973" d="M14.55,25.11V42.49c0,2.13,7.82,3.85,17.45,3.85s17.45-1.72,17.45-3.85V25.11Z" fill="#f7b70d"/>
    <path id="Path_6974" data-name="Path 6974" d="M55.41,24.75,33.35,17.86a4.6,4.6,0,0,0-2.7,0L8.59,24.75a.82.82,0,0,0,0,1.56l21.89,8a4.64,4.64,0,0,0,3.12,0l21.89-8a.82.82,0,0,0-.08-1.56Z" fill="#7fb432"/>
  </g>
</svg>
