<svg xmlns="http://www.w3.org/2000/svg" width="50" height="50" viewBox="0 0 50 50">
  <g id="Group_150" data-name="Group 150" transform="translate(-833.002 -1409.5)">
    <path id="Icon_awesome-heartbeat" data-name="Icon awesome-heartbeat" d="M30.674,22.541l-4.761,9.522a1.532,1.532,0,0,1-2.769-.057l-5.451-12.1L14.82,26.775H5.806L23.288,44.641a1.707,1.707,0,0,0,2.462,0L43.243,26.775H32.791Zm14.7-16.276-.23-.239a12.549,12.549,0,0,0-17.952,0l-2.673,2.74-2.673-2.73a12.533,12.533,0,0,0-17.952,0l-.23.23a13.153,13.153,0,0,0-.7,17.444h9.81l3.439-8.258a1.536,1.536,0,0,1,2.816-.038L24.61,27.8,29.3,18.422a1.531,1.531,0,0,1,2.74,0l2.644,5.288h11.39a13.153,13.153,0,0,0-.7-17.444Z" transform="translate(833.003 1407.254)" fill="#f7b70d"/>
    <path id="Icon_awesome-heartbeat-2" data-name="Icon awesome-heartbeat" d="M45.379,6.265l-.23-.239a12.549,12.549,0,0,0-17.952,0l-2.673,2.74-2.673-2.73a12.533,12.533,0,0,0-17.952,0l-.23.23a13.153,13.153,0,0,0-.7,17.444h9.81l3.439-8.258a1.536,1.536,0,0,1,2.816-.038L24.61,27.8,29.3,18.422a1.531,1.531,0,0,1,2.74,0l2.644,5.288h11.39a13.153,13.153,0,0,0-.7-17.444Z" transform="translate(833.431 1407.254)" fill="#7fb432"/>
  </g>
</svg>
