<svg xmlns="http://www.w3.org/2000/svg" width="50" height="50" viewBox="0 0 50 50">
  <g id="Group_3657" data-name="Group 3657" transform="translate(-774.971 -907.301)">
    <g id="Group_3656" data-name="Group 3656" transform="translate(774.971 907.301)">
      <circle id="Ellipse_521" data-name="Ellipse 521" cx="20.137" cy="20.137" r="20.137" transform="translate(0 39.753) rotate(-80.78)" fill="#f7b70d"/>
      <path id="Path_6981" data-name="Path 6981" d="M35.953,20.857a2.115,2.115,0,0,1-2.115-1.648,2.033,2.033,0,0,1,2.005-2.417A2.06,2.06,0,0,1,37.6,17.808a2.17,2.17,0,0,0,1.841,1.016h0a2.143,2.143,0,0,0,2.005-3.132A6.428,6.428,0,0,0,38.1,12.945h0A2.005,2.005,0,0,0,36.09,10.94h-.137a2.005,2.005,0,0,0-2.005,2.005h0a6.373,6.373,0,0,0-3.654,8.6,6.511,6.511,0,0,0,5.659,3.626,2.033,2.033,0,1,1,0,4.066,2.06,2.06,0,0,1-1.758-1.016A2.115,2.115,0,0,0,32.354,27.2h0a2.143,2.143,0,0,0-1.9,3.132,6.236,6.236,0,0,0,3.352,2.747h0a1.978,1.978,0,0,0,2.005,2.005h.275A1.978,1.978,0,0,0,38.1,33.082h0a6.318,6.318,0,0,0-2.143-12.225Z" transform="translate(-12.849 0.104)" fill="#7fb432"/>
    </g>
  </g>
</svg>
