<?xml version="1.0" encoding="utf-8"?>
<!-- Generator: Adobe Illustrator 25.4.1, SVG Export Plug-In . SVG Version: 6.00 Build 0)  -->
<svg version="1.1" id="Layer_1" xmlns="http://www.w3.org/2000/svg" xmlns:xlink="http://www.w3.org/1999/xlink" x="0px" y="0px"
	 viewBox="0 0 147.88 147.54" style="enable-background:new 0 0 147.88 147.54;" xml:space="preserve">
<style type="text/css">
	.st0{fill:#FFFFFF;}
</style>
<g id="Layer_2">
</g>
<g id="design_00000129887325750915252130000011485717323795834785_">
	<g>
		<path class="st0" d="M81.75,14.28l-0.98-0.13v58.44l-7.26-29.3l-6.97,28.13V14.14l-0.98,0.13c-1.53,0.21-3.08,0.48-4.59,0.8
			c-2.12,0.46-4.22,1.03-6.24,1.7l-0.59,0.2v11.7l0.06,1.27v86.66l-0.06-0.02v12.47l0.06,0.63v0.35l0.59,0.2
			c3.59,1.19,7.33,2.04,11.1,2.53l0.81,0.1l6.82-36.95l7.07,36.93l0.8-0.1c3.77-0.49,7.49-1.34,11.07-2.54l0.59-0.2V16.97l-0.59-0.2
			C89,15.62,85.39,14.78,81.75,14.28z"/>
		<path class="st0" d="M122.85,77.24l-1.32-1.27l-2.31-2.31l2.33-2.33l0.01,0.12l10.77-10.77l-0.11-0.46
			c-0.77-3.35-1.84-6.65-3.18-9.82c-1.83-4.34-4.18-8.45-6.98-12.23c-0.14-0.18-0.27-0.37-0.41-0.55l-0.19-0.24
			c-3.84-4.99-8.41-9.32-13.59-12.86v-0.08l-0.38-0.26c-3.22-2.18-6.67-4.06-10.26-5.58l-1.39-0.57v110.96l1.19-0.49
			c13.54-5.6,24.44-15.9,30.81-29.06l0.05,0.05l0.51-1.12c0.22-0.48,0.43-0.96,0.63-1.44c1.32-3.13,2.38-6.39,3.15-9.7l0.1-0.44l0,0
			l0.02-0.06L122.85,77.24z M118.58,90.16c-2.34,6.25-5.94,11.85-10.7,16.65V79.46L118.58,90.16z M107.88,40.3
			c4.8,4.84,8.41,10.48,10.75,16.79l-10.75,10.75V40.3z"/>
		<path class="st0" d="M30.95,31.42c-5.49,5.49-9.8,11.88-12.81,19c-1.37,3.25-2.46,6.64-3.24,10.07l-0.08,0.38l0.22,0.31
			c0.33,0.46,4.64,4.74,5.96,6.04c1.93,1.91,2.87,2.83,3.39,3.25l-0.02,0.02l14.96,14.96l0,21.25c-3.97-4.04-7.16-8.67-9.46-13.76
			c-2.31-5.12-3.67-10.58-4.05-16.25l-0.09-1.81l-1.31,1.03c-0.05,0.04-0.06,0.05-4.73,4.71c-1.16,1.16-2.32,2.32-3.19,3.19
			c-1.78,1.78-1.78,1.78-1.69,2.22l0.04,0.18c4.14,18.97,17.33,34.78,35.3,42.28l1.19,0.5V80.24L28.46,57.36
			c2.3-6.41,5.96-12.19,10.88-17.19l0.01,20.83l11.99,11.72V18.02l-1.4,0.59C42.83,21.62,36.44,25.93,30.95,31.42z"/>
	</g>
	<g>
		<path class="st0" d="M14.08,35.15c0.57,0.4,1.19,0.57,1.84,0.5c0.63-0.07,1.23-0.38,1.79-0.94l0.72-0.76
			c0.44-0.43,0.72-0.34,0.95-0.17c0.19,0.14,0.57,0.42-0.07,1.35c-0.46,0.63-1.02,1.02-1.73,1.2l-0.41,0.1l0.52,1.99l0.4-0.09
			c1.19-0.28,2.17-0.95,2.91-1.99c1.47-2.12,0.58-3.47-0.44-4.23c-0.55-0.39-1.17-0.56-1.81-0.53c-0.68,0.04-1.32,0.37-1.91,1
			c-0.25,0.27-0.45,0.49-0.6,0.63c-0.21,0.21-0.42,0.33-0.58,0.35c-0.15,0.02-0.27,0-0.37-0.07c-0.28-0.21-0.32-0.39-0.33-0.52
			c-0.01-0.22,0.06-0.43,0.22-0.65c0.38-0.51,0.85-0.87,1.46-1.09l0.4-0.15l-0.74-1.9l-0.38,0.12c-0.94,0.31-1.74,0.9-2.39,1.77
			c-0.53,0.76-0.74,1.51-0.63,2.23C13,34.05,13.4,34.67,14.08,35.15z"/>
		<path class="st0" d="M26.44,17.13l-1.22,1.04l3.41,8.86l-5.9-1.34l-0.77-4.62l-1.68,1.84l0.75,4.28l-2.54-2.31l-1.37,1.51
			l6.67,6.07l1.37-1.51l-2.03-1.85l-0.11-1.3l4.08,1.01l1.59-1.74l1.63-1.39l-0.73-1.78l1.82-1.56l1.65,0.99l1.65-1.4L26.44,17.13z
			 M29.69,21.26l-0.89,0.76l-0.74-1.76L29.69,21.26z"/>
		<polygon class="st0" points="32,15.27 36.03,21.09 37.7,19.93 33.68,14.11 35.47,12.88 34.37,11.28 29.12,14.91 30.22,16.5 		"/>
		<polygon class="st0" points="45.7,15.29 44.75,13.53 41.35,15.36 40.61,13.98 43.51,12.42 42.59,10.71 39.68,12.28 38.97,10.96 
			42.37,9.13 41.42,7.36 36.23,10.16 40.51,18.1 		"/>
		<polygon class="st0" points="53.44,12.25 53.22,7.43 55.73,11.54 57.32,11.06 56.76,1.8 54.71,2.42 55.11,6.98 52.67,3.05 
			51.22,3.5 51.4,8.12 49.17,4.12 47.13,4.75 51.85,12.73 		"/>
		<path class="st0" d="M59.68,5.85c0.15,0.96,0.28,1.59,0.39,1.93c0.07,0.2,0.14,0.36,0.21,0.5c0.07,0.11,0.14,0.22,0.23,0.35
			c0.29,0.4,0.71,0.73,1.22,0.97c0.39,0.2,0.84,0.3,1.34,0.3c0.17,0,0.35-0.01,0.54-0.04c0.7-0.13,1.27-0.41,1.69-0.82
			c0.42-0.4,0.7-0.84,0.83-1.25c0.13-0.27,0.19-0.61,0.19-1.01c0-0.36-0.08-1-0.23-1.94c-0.15-0.97-0.27-1.6-0.38-1.94
			c-0.12-0.37-0.28-0.66-0.45-0.84c-0.28-0.4-0.69-0.73-1.21-0.99c-0.54-0.27-1.17-0.35-1.89-0.25c-0.69,0.12-1.26,0.39-1.69,0.81
			c-0.42,0.41-0.71,0.85-0.85,1.28c-0.11,0.26-0.17,0.59-0.17,0.97C59.46,4.23,59.53,4.86,59.68,5.85L59.68,5.85z M61.53,3.97
			c0.01-0.21,0.05-0.37,0.15-0.53c0.07-0.13,0.17-0.25,0.31-0.36c0.13-0.1,0.3-0.17,0.49-0.2c0.22-0.03,0.42-0.01,0.56,0.03
			c0.16,0.06,0.28,0.14,0.42,0.27c0.12,0.1,0.22,0.25,0.29,0.44c0.09,0.25,0.19,0.76,0.32,1.54c0.16,0.99,0.17,1.4,0.17,1.54
			c-0.01,0.21-0.06,0.39-0.17,0.57c-0.06,0.12-0.15,0.23-0.3,0.34c-0.13,0.11-0.3,0.18-0.5,0.21c-0.21,0.03-0.38,0.02-0.55-0.05
			c-0.16-0.05-0.29-0.13-0.42-0.25c-0.12-0.1-0.21-0.25-0.29-0.46c-0.09-0.24-0.2-0.75-0.32-1.52C61.55,4.58,61.52,4.16,61.53,3.97z
			"/>
		<path class="st0" d="M74.7,2.6c-0.05-0.88-0.39-1.56-1-2.02C73.2,0.17,72.55-0.02,71.8,0l-3.51,0.11l0.3,9.01l2.04-0.07L70.5,5.57
			l0.85-0.03l1.75,3.44l2.37-0.08L73.4,5.12C74.28,4.58,74.72,3.73,74.7,2.6z M72.73,2.67c0.01,0.25-0.06,0.45-0.21,0.63
			c-0.14,0.17-0.36,0.26-0.68,0.28l-1.4,0.05l-0.05-1.64l1.47-0.05c0.29,0,0.49,0.04,0.64,0.15C72.54,2.13,72.71,2.25,72.73,2.67z"
			/>
		<polygon class="st0" points="82.59,7.5 78.74,7.17 79.34,0.18 77.31,0.01 76.54,8.99 82.42,9.5 		"/>
		<path class="st0" d="M87.7,10.43c0.36,0,0.71-0.06,1.02-0.18c0.52-0.18,0.96-0.47,1.31-0.84c0.13-0.14,0.24-0.27,0.35-0.41
			c0.1-0.15,0.19-0.32,0.27-0.52c0.14-0.36,0.31-0.98,0.49-1.85c0.17-0.8,0.28-1.4,0.31-1.78c0.02-0.39-0.04-0.79-0.18-1.18
			c-0.38-1.15-1.18-1.86-2.39-2.13l-3.12-0.66l-1.86,8.82l3.05,0.64C87.2,10.41,87.46,10.43,87.7,10.43z M88.34,3.48
			c0.46,0.08,0.76,0.31,0.95,0.76c0.08,0.15,0.11,0.34,0.1,0.55c-0.03,0.28-0.12,0.77-0.26,1.46c-0.14,0.7-0.26,1.17-0.34,1.4
			c-0.07,0.19-0.16,0.33-0.29,0.45c-0.3,0.3-0.68,0.39-1.2,0.28L86.3,8.17l1.03-4.9L88.34,3.48z"/>
		<path class="st0" d="M100.04,14.36c0.33,0,0.66-0.07,0.99-0.21c0.65-0.26,1.14-0.77,1.47-1.53c0.19-0.46,0.26-0.94,0.19-1.44
			c-0.04-0.25-0.13-0.48-0.26-0.69c0.01,0,0.01,0,0.02-0.01c0.25-0.08,0.45-0.18,0.63-0.32c0.33-0.27,0.56-0.6,0.71-0.96
			c0.3-0.71,0.32-1.39,0.06-2.01c-0.25-0.62-0.79-1.11-1.62-1.46l-3.22-1.34l-3.45,8.33l3.47,1.44
			C99.36,14.29,99.71,14.36,100.04,14.36z M101.35,7.45c0.29,0.13,0.48,0.28,0.54,0.44c0.07,0.19,0.06,0.38-0.02,0.59
			c-0.08,0.2-0.21,0.34-0.41,0.42c-0.17,0.08-0.4,0.06-0.68-0.06l-1.21-0.5l0.58-1.4L101.35,7.45z M98.2,11.64l0.62-1.5l1.31,0.54
			c0.3,0.13,0.47,0.28,0.53,0.46c0.07,0.21,0.06,0.41-0.03,0.63c-0.09,0.21-0.23,0.36-0.42,0.46c-0.17,0.09-0.41,0.07-0.7-0.04
			L98.2,11.64z"/>
		<polygon class="st0" points="108.05,18.79 109.03,17.04 105.67,15.15 106.44,13.79 109.31,15.4 110.26,13.71 107.39,12.1 
			108.12,10.79 111.49,12.68 112.47,10.93 107.33,8.04 102.91,15.9 		"/>
		<polygon class="st0" points="110.39,20.41 112.05,21.59 116.16,15.83 117.93,17.09 119.05,15.51 113.86,11.81 112.73,13.38 
			114.5,14.65 		"/>
		<polygon class="st0" points="120.44,19.21 115.75,24.52 117.27,25.87 121.96,20.56 123.59,22 124.88,20.55 120.09,16.32 
			118.81,17.78 		"/>
		<polygon class="st0" points="123.72,32.54 125.2,31.19 122.61,28.33 123.77,27.28 125.98,29.72 127.42,28.42 125.2,25.98 
			126.31,24.97 128.91,27.83 130.4,26.48 126.43,22.11 119.75,28.17 		"/>
		<path class="st0" d="M125.79,35.32l2.85-2.02l0.49,0.69l-1.9,3.36l1.37,1.94l2.02-3.82c0.93,0.44,1.89,0.34,2.81-0.31
			c0.7-0.53,1.08-1.19,1.13-1.95c0.06-0.65-0.13-1.29-0.57-1.91l-2.03-2.87l-7.35,5.22L125.79,35.32z M131.56,31.22l0.85,1.2
			c0.16,0.22,0.24,0.43,0.23,0.61c0,0.07-0.01,0.28-0.35,0.53c-0.2,0.15-0.41,0.21-0.65,0.18c-0.22-0.02-0.42-0.16-0.61-0.42
			l-0.81-1.14L131.56,31.22z"/>
		<path class="st0" d="M136.27,47.41c-0.22,0.09-0.66,0.27-1.13-0.75c-0.3-0.71-0.35-1.4-0.14-2.1l0.12-0.4l-1.97-0.58l-0.13,0.39
			c-0.37,1.17-0.3,2.35,0.21,3.52c0.7,1.55,1.64,2.05,2.54,2.07c0.46,0.01,0.91-0.11,1.31-0.27c0.62-0.27,1.08-0.71,1.39-1.29
			c0.32-0.6,0.36-1.32,0.13-2.15c-0.11-0.36-0.18-0.64-0.23-0.84c-0.07-0.29-0.07-0.53,0.01-0.69c0.06-0.14,0.14-0.23,0.25-0.28
			c0.32-0.13,0.5-0.07,0.61-0.01c0.19,0.1,0.34,0.28,0.45,0.52c0.24,0.59,0.3,1.18,0.19,1.81l-0.08,0.42l2.01,0.34l0.09-0.39
			c0.22-0.97,0.13-1.96-0.28-2.96c-0.38-0.84-0.92-1.41-1.59-1.68c-0.69-0.29-1.43-0.27-2.19,0.07c-0.64,0.28-1.1,0.72-1.38,1.32
			c-0.27,0.58-0.31,1.25-0.12,2.02c0.1,0.37,0.2,0.72,0.28,1.01C136.76,47.11,136.53,47.3,136.27,47.41z"/>
		<path class="st0" d="M135.75,53.88l2.63-0.79l1.17,0.57l-2.97,2.98l0.68,2.25l0.35,2.09l1.9,0.3l0.4,2.37l-1.7,0.91l0.36,2.13
			l8.36-4.63l-0.27-1.58l-9.33-1.62l4.17-4.35l4.36,1.72l-0.71-2.39l-4.05-1.56l3.29-0.99l-0.58-1.95l-8.64,2.59L135.75,53.88z
			 M141.52,61.57l1.88,0.27l-1.69,0.87L141.52,61.57z"/>
		<polygon class="st0" points="145.67,67.79 138.6,68.26 138.74,70.29 145.8,69.83 145.94,72 147.88,71.87 147.46,65.5 
			145.52,65.63 		"/>
		<polygon class="st0" points="138.88,73.64 138.62,79.53 140.63,79.62 140.79,75.76 142.36,75.83 142.22,79.12 144.15,79.2 
			144.29,75.91 145.8,75.97 145.63,79.83 147.63,79.92 147.88,74.02 		"/>
		<polygon class="st0" points="137.62,86.89 141.88,89.15 137.06,89.22 136.67,90.84 144.93,95.07 145.43,92.99 141.3,91.01 
			145.93,90.91 146.28,89.43 142.21,87.24 146.78,87.35 147.28,85.27 138.01,85.28 		"/>
		<path class="st0" d="M142.49,97c-0.17-0.23-0.41-0.44-0.74-0.64c-0.3-0.18-0.89-0.45-1.81-0.82c-0.9-0.36-1.51-0.57-1.86-0.65
			c-0.21-0.05-0.4-0.05-0.55-0.07c-0.13,0-0.26,0.01-0.42,0.02c-0.49,0.05-0.98,0.23-1.46,0.55c-0.5,0.32-0.9,0.81-1.18,1.48
			c-0.25,0.67-0.3,1.3-0.16,1.88c0.13,0.56,0.36,1.03,0.66,1.35c0.17,0.25,0.42,0.47,0.77,0.68c0.31,0.18,0.91,0.45,1.79,0.79
			c0.91,0.36,1.51,0.58,1.86,0.66c0.21,0.05,0.4,0.07,0.58,0.08c0.14,0,0.27-0.01,0.37-0.03c0.49-0.04,0.98-0.22,1.47-0.53
			c0.5-0.32,0.9-0.82,1.18-1.5c0.25-0.66,0.31-1.29,0.17-1.86C143.03,97.81,142.8,97.34,142.49,97z M141.15,98.94
			c0.02,0.17-0.01,0.35-0.08,0.53c-0.09,0.21-0.2,0.36-0.32,0.47c-0.13,0.11-0.26,0.17-0.45,0.22c-0.15,0.05-0.33,0.06-0.52,0.03
			c-0.19-0.04-0.59-0.16-1.49-0.52c-0.89-0.35-1.26-0.55-1.41-0.64c-0.18-0.12-0.31-0.25-0.4-0.43c-0.08-0.12-0.12-0.26-0.14-0.43
			c-0.02-0.17,0-0.35,0.08-0.54c0.08-0.19,0.18-0.33,0.33-0.45c0.13-0.11,0.26-0.19,0.43-0.23c0.09-0.03,0.18-0.05,0.29-0.04
			c0.08,0,0.16,0.01,0.25,0.03c0.18,0.03,0.58,0.15,1.47,0.5l0,0c0.89,0.36,1.27,0.55,1.43,0.66c0.17,0.11,0.29,0.23,0.38,0.4
			C141.08,98.62,141.13,98.77,141.15,98.94z"/>
		<path class="st0" d="M131.61,103.27l3.06,1.69l-0.41,0.74l-3.85-0.25l-1.14,2.08l4.32,0.15c0.01,1.02,0.52,1.85,1.5,2.4
			c0.44,0.23,0.87,0.34,1.29,0.35c0.33,0.01,0.64-0.05,0.95-0.18c0.61-0.23,1.1-0.68,1.47-1.35l1.69-3.08l-7.9-4.35L131.61,103.27z
			 M137.81,106.68l-0.71,1.28c-0.14,0.25-0.28,0.4-0.45,0.47c-0.06,0.03-0.25,0.11-0.63-0.09c-0.22-0.12-0.36-0.28-0.44-0.51
			c-0.08-0.21-0.04-0.45,0.11-0.73l0.67-1.23L137.81,106.68z"/>
		<polygon class="st0" points="125.2,113.22 126.83,114.39 129.08,111.25 134.78,115.32 135.97,113.66 128.63,108.42 		"/>
		<path class="st0" d="M122.18,116.67c-0.45,0.5-0.73,1.03-0.82,1.58c-0.11,0.54-0.09,1.06,0.06,1.56c0.06,0.18,0.11,0.34,0.18,0.5
			c0.08,0.17,0.18,0.33,0.31,0.49c0.23,0.3,0.67,0.75,1.34,1.36c0.63,0.58,1.08,0.96,1.38,1.17c0.33,0.22,0.7,0.37,1.1,0.44
			c0.24,0.05,0.47,0.08,0.69,0.08c0.9,0.02,1.69-0.34,2.36-1.06l2.15-2.36l-6.66-6.08L122.18,116.67z M128.08,120.61l-0.69,0.76
			c-0.31,0.36-0.66,0.49-1.14,0.43c-0.17-0.01-0.35-0.07-0.53-0.19c-0.23-0.17-0.61-0.5-1.13-0.97c-0.65-0.59-0.92-0.87-1.03-1
			c-0.13-0.15-0.21-0.3-0.24-0.48c-0.11-0.41,0.01-0.78,0.37-1.17l0.69-0.75L128.08,120.61z"/>
		<path class="st0" d="M113.27,125.5c-0.58,0.46-0.91,1.05-0.98,1.75c-0.09,0.7,0.11,1.38,0.61,2.03c0.31,0.39,0.7,0.68,1.16,0.87
			c0.24,0.09,0.49,0.12,0.73,0.12c0,0.01,0,0.01,0,0.02c-0.05,0.24-0.06,0.48-0.03,0.7c0.07,0.41,0.24,0.78,0.49,1.09
			c0.47,0.6,1.05,0.96,1.72,1.04c0.09,0.01,0.18,0.02,0.27,0.02c0.58,0,1.18-0.24,1.79-0.71l2.74-2.15l-5.57-7.09L113.27,125.5z
			 M118.99,130.01l-1.03,0.81c-0.18,0.13-0.43,0.29-0.64,0.26c-0.21-0.03-0.37-0.13-0.51-0.31c-0.14-0.18-0.19-0.35-0.17-0.56
			c0.01-0.19,0.14-0.38,0.38-0.57l1.03-0.81L118.99,130.01z M114.35,127.49c0.01-0.19,0.14-0.39,0.38-0.59l1.13-0.88l1,1.28
			l-1.12,0.88c-0.25,0.19-0.47,0.28-0.66,0.24c-0.21-0.04-0.38-0.15-0.53-0.34C114.4,127.9,114.34,127.71,114.35,127.49z"/>
		<polygon class="st0" points="104.82,131.07 105.86,132.79 109.16,130.78 109.98,132.12 107.16,133.83 108.16,135.49 
			110.98,133.78 111.76,135.06 108.46,137.07 109.51,138.78 114.55,135.72 109.86,128.01 		"/>
		<polygon class="st0" points="105.3,138.71 102.3,132.3 100.45,133.16 103.45,139.58 101.48,140.49 102.3,142.25 108.08,139.55 
			107.26,137.79 		"/>
		<polygon class="st0" points="98.35,141.65 96.04,134.96 94.11,135.62 96.42,142.31 94.37,143.02 95,144.85 101.04,142.77 
			100.4,140.94 		"/>
		<polygon class="st0" points="85.19,137.94 85.64,139.9 89.4,139.04 89.75,140.57 86.54,141.3 86.97,143.19 90.18,142.46 
			90.51,143.92 86.75,144.78 87.2,146.73 92.95,145.42 90.94,136.63 		"/>
		<path class="st0" d="M81.68,138.4l0.37,3.48l-0.84,0.09l-2-3.3l-2.36,0.25l2.34,3.63c-0.83,0.59-1.22,1.48-1.11,2.6
			c0.12,0.87,0.51,1.53,1.14,1.94c0.44,0.31,0.97,0.46,1.57,0.46c0.12,0,0.25-0.01,0.38-0.02l3.5-0.37l-0.95-8.97L81.68,138.4z
			 M80.32,145.49c-0.06-0.03-0.24-0.14-0.29-0.56c-0.03-0.25,0.02-0.46,0.16-0.65c0.13-0.18,0.35-0.29,0.66-0.33l1.39-0.15
			l0.17,1.64l-1.46,0.15C80.69,145.62,80.48,145.59,80.32,145.49z"/>
		<path class="st0" d="M67.52,139.9c0.77,0.09,1.39,0.38,1.9,0.91l0.29,0.3l1.48-1.43l-0.28-0.3c-0.83-0.9-1.9-1.42-3.17-1.55
			c-2.6-0.24-3.3,1.21-3.46,2.46c-0.07,0.67,0.08,1.29,0.43,1.84c0.37,0.57,0.97,0.96,1.81,1.17c0.36,0.09,0.65,0.16,0.85,0.21
			c0.29,0.09,0.49,0.2,0.59,0.34c0.09,0.12,0.13,0.24,0.12,0.36c-0.04,0.35-0.19,0.47-0.29,0.54c-0.19,0.12-0.41,0.16-0.68,0.13
			c-0.63-0.08-1.18-0.32-1.67-0.73l-0.33-0.27l-1.29,1.58l0.29,0.27c0.73,0.67,1.64,1.07,2.71,1.21c0.11,0.01,0.22,0.02,0.32,0.02
			c0.78,0.02,1.43-0.17,1.93-0.57c0.6-0.46,0.94-1.11,1.02-1.94c0.07-0.69-0.09-1.32-0.47-1.85c-0.37-0.52-0.94-0.88-1.71-1.1
			l-1.02-0.25c-0.59-0.17-0.65-0.46-0.61-0.74C66.34,140.28,66.39,139.8,67.52,139.9z"/>
		<path class="st0" d="M60.35,139.55l-1.08,0.74l-1.12-4.05l-2.26-0.51l-2.02-0.74l-1.2,1.51l-2.25-0.82l0.05-1.93L48.43,133
			l-0.11,9.56l1.5,0.55l6.02-7.31l1.73,5.77l-3.64,2.95l2.43,0.55l3.36-2.76l-0.76,3.35l1.99,0.45l2-8.79l-1.99-0.45L60.35,139.55z
			 M51.42,138.1l-1.17,1.5l0.08-1.9L51.42,138.1z"/>
		<polygon class="st0" points="45.24,131.39 42.16,137.76 40.2,136.81 39.35,138.55 45.1,141.33 45.94,139.59 43.99,138.64 
			47.08,132.27 		"/>
		<polygon class="st0" points="37.24,126.7 36.17,128.4 39.44,130.45 38.61,131.78 35.82,130.03 34.79,131.67 37.58,133.42 
			36.78,134.69 33.51,132.64 32.45,134.34 37.45,137.47 42.23,129.83 		"/>
		<polygon class="st0" points="26.7,124.07 29.03,119.85 27.82,118.71 20.05,123.77 21.6,125.24 25.37,122.64 23.16,126.71 
			24.26,127.75 28.19,125.3 25.82,129.22 27.38,130.68 31.98,122.63 30.77,121.49 		"/>
		<path class="st0" d="M22.11,119.21c0.75-0.6,1.24-1.02,1.48-1.29c0.14-0.15,0.25-0.29,0.33-0.43c0.06-0.11,0.13-0.23,0.2-0.38
			c0.2-0.45,0.29-0.97,0.25-1.54c-0.03-0.6-0.26-1.18-0.7-1.76c-0.46-0.55-0.98-0.91-1.55-1.07c-0.55-0.17-1.07-0.2-1.5-0.1
			c-0.3,0.02-0.63,0.14-0.97,0.33c-0.31,0.18-0.83,0.56-1.58,1.16c-0.76,0.61-1.25,1.03-1.5,1.29c-0.26,0.28-0.44,0.57-0.51,0.8
			c-0.21,0.44-0.3,0.96-0.27,1.54c0.03,0.6,0.27,1.19,0.71,1.76c0.45,0.55,0.96,0.91,1.53,1.07c0.33,0.1,0.65,0.15,0.95,0.16
			c0.2,0,0.4-0.01,0.58-0.05c0.29-0.04,0.59-0.14,0.93-0.33C20.82,120.21,21.34,119.83,22.11,119.21z M22.28,115.62
			c0.03,0.17,0.03,0.32-0.01,0.49c-0.03,0.16-0.11,0.31-0.25,0.47c-0.12,0.14-0.42,0.43-1.17,1.03c-0.61,0.48-1.04,0.79-1.28,0.92
			c-0.18,0.1-0.35,0.15-0.54,0.13c-0.13,0.01-0.3-0.03-0.46-0.09c-0.15-0.07-0.3-0.18-0.42-0.33c-0.13-0.18-0.22-0.35-0.25-0.51
			c-0.03-0.17-0.02-0.31,0.03-0.49c0.03-0.16,0.11-0.32,0.24-0.48c0.17-0.2,0.57-0.55,1.18-1.03c0.61-0.49,1.04-0.79,1.26-0.91
			c0.19-0.09,0.36-0.14,0.55-0.13c0.01,0,0.01,0,0.02,0c0.15-0.01,0.28,0.02,0.44,0.09c0.16,0.06,0.3,0.17,0.43,0.34
			C22.18,115.28,22.26,115.43,22.28,115.62z"/>
		<path class="st0" d="M19.53,108.13l-2.99,1.82l-0.44-0.73l2.13-3.22L17,103.97l-2.28,3.67c-0.89-0.5-1.86-0.47-2.83,0.11
			c-0.74,0.48-1.17,1.11-1.27,1.86c-0.11,0.64,0.04,1.3,0.44,1.95l1.83,3l7.7-4.69L19.53,108.13z M13.49,111.81l-0.76-1.25
			c-0.15-0.24-0.21-0.44-0.18-0.63c0.01-0.07,0.02-0.27,0.38-0.5c0.17-0.1,0.33-0.15,0.5-0.15c0.05,0,0.1,0.01,0.15,0.02
			c0.22,0.04,0.41,0.19,0.58,0.46l0.73,1.2L13.49,111.81z"/>
		<polygon class="st0" points="14.1,97.61 12.28,98.45 13.88,101.96 7.5,104.87 8.35,106.72 16.55,102.98 		"/>
		<path class="st0" d="M12.63,93.29c-0.2-0.64-0.53-1.15-0.96-1.5c-0.42-0.36-0.88-0.61-1.38-0.72c-0.18-0.04-0.36-0.07-0.53-0.09
			c-0.19-0.02-0.38-0.01-0.58,0.02C8.8,91.04,8.2,91.2,7.33,91.48c-0.81,0.26-1.36,0.45-1.7,0.61c-0.35,0.17-0.67,0.42-0.94,0.74
			c-0.81,0.9-1.03,1.95-0.67,3.12l0.97,3.04l8.6-2.73L12.63,93.29z M6.28,96.44l-0.31-0.98c-0.15-0.44-0.1-0.81,0.19-1.2
			c0.09-0.14,0.24-0.27,0.43-0.36c0.27-0.12,0.74-0.28,1.4-0.49c0.84-0.27,1.22-0.36,1.38-0.39c0.09-0.02,0.17-0.02,0.24-0.02
			c0.1,0,0.2,0.02,0.29,0.05c0.41,0.11,0.67,0.4,0.83,0.9l0.31,0.97L6.28,96.44z"/>
		<path class="st0" d="M9.68,82.4c-0.11-0.73-0.46-1.31-1.03-1.72c-0.56-0.43-1.25-0.58-2.07-0.47c-0.49,0.07-0.94,0.26-1.34,0.58
			c-0.19,0.17-0.35,0.36-0.46,0.58c-0.01,0-0.01-0.01-0.01-0.01c-0.18-0.16-0.38-0.29-0.6-0.38c-0.39-0.14-0.8-0.17-1.19-0.11
			c-0.76,0.11-1.35,0.44-1.76,0.98c-0.4,0.53-0.55,1.25-0.42,2.14l0.51,3.45l8.92-1.32L9.68,82.4z M6.25,82.53
			c0.14-0.16,0.32-0.26,0.55-0.29c0.05-0.01,0.1-0.01,0.15-0.01c0.16,0,0.31,0.04,0.46,0.13c0.16,0.1,0.27,0.31,0.32,0.62l0.21,1.42
			l-1.61,0.24l-0.21-1.41C6.09,82.91,6.13,82.67,6.25,82.53z M2.83,83.16c0.13-0.16,0.3-0.25,0.52-0.28
			c0.05-0.01,0.1-0.01,0.14-0.01c0.16,0,0.3,0.04,0.43,0.14c0.16,0.1,0.26,0.3,0.3,0.61l0.19,1.3l-1.5,0.22l-0.19-1.29
			C2.7,83.53,2.73,83.3,2.83,83.16z"/>
		<polygon class="st0" points="9.01,72.31 7.01,72.37 7.12,76.23 5.55,76.28 5.46,72.98 3.52,73.04 3.62,76.33 2.12,76.37 
			2.01,72.51 0,72.57 0.17,78.47 9.18,78.21 		"/>
		<polygon class="st0" points="2.14,68.91 9.2,69.48 9.36,67.44 2.31,66.88 2.48,64.71 0.55,64.56 0.04,70.92 1.97,71.07 		"/>
		<polygon class="st0" points="3.02,61.45 9.98,62.76 10.36,60.75 3.4,59.44 3.8,57.31 1.9,56.95 0.72,63.22 2.62,63.58 		"/>
		<polygon class="st0" points="12.77,51.85 10.85,51.27 9.73,54.96 8.23,54.5 9.19,51.35 7.33,50.79 6.37,53.94 4.94,53.5 
			6.06,49.81 4.14,49.23 2.43,54.87 11.05,57.5 		"/>
		<path class="st0" d="M14.11,48.59l-3.2-1.41l0.34-0.78l3.86-0.09l0.96-2.17l-4.31,0.23c-0.1-1.02-0.68-1.79-1.7-2.26
			c-0.82-0.33-1.58-0.32-2.25,0.03c-0.59,0.28-1.05,0.78-1.35,1.47l-1.42,3.22l8.25,3.64L14.11,48.59z M7.63,45.74l0.59-1.34
			c0.11-0.25,0.25-0.43,0.41-0.51c0.06-0.03,0.24-0.14,0.63,0.03c0.23,0.1,0.38,0.25,0.48,0.46c0.1,0.2,0.08,0.45-0.04,0.74
			L9.14,46.4L7.63,45.74z"/>
	</g>
	<circle class="st0" cx="13.17" cy="39.45" r="1.35"/>
	<circle class="st0" cx="134.4" cy="39.23" r="1.35"/>
	<circle class="st0" cx="74.15" cy="143.33" r="1.35"/>
</g>
</svg>
