<?xml version="1.0" encoding="utf-8"?>
<!-- Generator: Adobe Illustrator 25.4.1, SVG Export Plug-In . SVG Version: 6.00 Build 0)  -->
<svg version="1.1" id="Layer_1" xmlns="http://www.w3.org/2000/svg" xmlns:xlink="http://www.w3.org/1999/xlink" x="0px" y="0px"
	 viewBox="0 0 164.15 164.15" style="enable-background:new 0 0 164.15 164.15;" xml:space="preserve">
<style type="text/css">
	.st0{fill:#FFFFFF;}
</style>
<g id="Layer_2">
	<path class="st0" d="M82.07,164.15C36.82,164.15,0,127.33,0,82.07S36.82,0,82.07,0s82.07,36.82,82.07,82.07
		S127.33,164.15,82.07,164.15z"/>
</g>
<g id="design_00000070824835786350592540000012993521269537335477_">
	<g>
		<path d="M89.88,22.58l-0.98-0.13v58.44l-7.26-29.3l-6.97,28.13V22.44l-0.98,0.13c-1.53,0.21-3.08,0.48-4.59,0.8
			c-2.12,0.46-4.22,1.03-6.24,1.7l-0.59,0.2v11.7l0.06,1.27v86.66l-0.06-0.02v12.47l0.06,0.63v0.35l0.59,0.2
			c3.59,1.19,7.33,2.04,11.1,2.53l0.81,0.1l6.82-36.95l7.07,36.93l0.8-0.1c3.77-0.49,7.49-1.34,11.07-2.54l0.59-0.2V25.27l-0.59-0.2
			C97.13,23.92,93.52,23.08,89.88,22.58z"/>
		<path d="M130.98,85.54l-1.32-1.27l-2.31-2.31l2.33-2.33l0.01,0.12l10.77-10.77l-0.11-0.46c-0.77-3.35-1.84-6.65-3.18-9.82
			c-1.83-4.34-4.18-8.45-6.98-12.23c-0.14-0.18-0.27-0.37-0.41-0.55l-0.19-0.24c-3.84-4.99-8.41-9.32-13.59-12.86v-0.08l-0.38-0.26
			c-3.22-2.18-6.67-4.06-10.26-5.58l-1.39-0.57v110.96l1.19-0.49c13.54-5.6,24.44-15.9,30.81-29.06l0.05,0.05l0.51-1.12
			c0.22-0.48,0.43-0.96,0.63-1.44c1.32-3.13,2.38-6.39,3.15-9.7l0.1-0.44l0,0l0.02-0.06L130.98,85.54z M126.71,98.46
			c-2.34,6.25-5.94,11.85-10.7,16.65V87.76L126.71,98.46z M116.01,48.61c4.8,4.84,8.41,10.48,10.75,16.79l-10.75,10.75V48.61z"/>
		<path d="M39.08,39.72c-5.49,5.49-9.8,11.88-12.81,19c-1.37,3.25-2.46,6.64-3.24,10.07l-0.08,0.38l0.22,0.31
			c0.33,0.46,4.64,4.74,5.96,6.04c1.93,1.91,2.87,2.83,3.39,3.25l-0.02,0.02l14.96,14.96l0,21.25c-3.97-4.04-7.16-8.67-9.46-13.76
			c-2.31-5.12-3.67-10.58-4.05-16.25l-0.09-1.81l-1.31,1.03c-0.05,0.04-0.06,0.05-4.73,4.71c-1.16,1.16-2.32,2.32-3.19,3.19
			c-1.78,1.78-1.78,1.78-1.69,2.22l0.04,0.18c4.14,18.97,17.33,34.78,35.3,42.28l1.19,0.5V88.54L36.59,65.66
			c2.3-6.41,5.96-12.19,10.88-17.19l0.01,20.83l11.99,11.72V26.32l-1.4,0.59C50.96,29.92,44.57,34.23,39.08,39.72z"/>
	</g>
	<g>
		<path d="M22.21,43.46c0.57,0.4,1.19,0.57,1.84,0.5c0.63-0.07,1.23-0.38,1.79-0.94l0.72-0.76c0.44-0.43,0.72-0.34,0.95-0.17
			c0.19,0.14,0.57,0.42-0.07,1.35c-0.46,0.63-1.02,1.02-1.73,1.2l-0.41,0.1l0.52,1.99l0.4-0.09c1.19-0.28,2.17-0.95,2.91-1.99
			c1.47-2.12,0.58-3.47-0.44-4.23c-0.55-0.39-1.17-0.56-1.81-0.53c-0.68,0.04-1.32,0.37-1.91,1c-0.25,0.27-0.45,0.49-0.6,0.63
			c-0.21,0.21-0.42,0.33-0.58,0.35c-0.15,0.02-0.27,0-0.37-0.07c-0.28-0.21-0.32-0.39-0.33-0.52c-0.01-0.22,0.06-0.43,0.22-0.65
			c0.38-0.51,0.85-0.87,1.46-1.09l0.4-0.15l-0.74-1.9l-0.38,0.12c-0.94,0.31-1.74,0.9-2.39,1.77c-0.53,0.76-0.74,1.51-0.63,2.23
			C21.13,42.36,21.53,42.98,22.21,43.46z"/>
		<path d="M34.57,25.43l-1.22,1.04l3.41,8.86l-5.9-1.34l-0.77-4.62l-1.68,1.84l0.75,4.28l-2.54-2.31l-1.37,1.51l6.67,6.07l1.37-1.51
			l-2.03-1.85l-0.11-1.3l4.08,1.01l1.59-1.74l1.63-1.39l-0.73-1.78l1.82-1.56l1.65,0.99l1.65-1.4L34.57,25.43z M37.82,29.56
			l-0.89,0.76l-0.74-1.76L37.82,29.56z"/>
		<polygon points="40.14,23.57 44.16,29.39 45.84,28.23 41.81,22.41 43.6,21.18 42.5,19.58 37.25,23.21 38.35,24.8 		"/>
		<polygon points="53.83,23.6 52.88,21.83 49.48,23.66 48.74,22.29 51.64,20.72 50.72,19.01 47.82,20.58 47.1,19.26 50.5,17.43 
			49.55,15.66 44.36,18.46 48.64,26.4 		"/>
		<polygon points="61.57,20.55 61.35,15.73 63.86,19.85 65.45,19.36 64.89,10.1 62.85,10.73 63.24,15.29 60.8,11.35 59.35,11.8 
			59.53,16.42 57.3,12.43 55.26,13.05 59.99,21.03 		"/>
		<path d="M67.81,14.15c0.15,0.96,0.28,1.59,0.39,1.93c0.07,0.2,0.14,0.36,0.21,0.5c0.07,0.11,0.14,0.22,0.23,0.35
			c0.29,0.4,0.71,0.73,1.22,0.97c0.39,0.2,0.84,0.3,1.34,0.3c0.17,0,0.35-0.01,0.54-0.04c0.7-0.13,1.27-0.41,1.69-0.82
			c0.42-0.4,0.7-0.84,0.83-1.25c0.13-0.27,0.19-0.61,0.19-1.01c0-0.36-0.08-1-0.23-1.94c-0.15-0.97-0.27-1.6-0.38-1.94
			c-0.12-0.37-0.28-0.66-0.45-0.84c-0.28-0.4-0.69-0.73-1.21-0.99c-0.54-0.27-1.17-0.35-1.89-0.25c-0.69,0.12-1.26,0.39-1.69,0.81
			c-0.42,0.41-0.71,0.85-0.85,1.28c-0.11,0.26-0.17,0.59-0.17,0.97C67.59,12.53,67.66,13.16,67.81,14.15L67.81,14.15z M69.66,12.27
			c0.01-0.21,0.05-0.37,0.15-0.53c0.07-0.13,0.17-0.25,0.31-0.36c0.13-0.1,0.3-0.17,0.49-0.2c0.22-0.03,0.42-0.01,0.56,0.03
			c0.16,0.06,0.28,0.14,0.42,0.27c0.12,0.1,0.22,0.25,0.29,0.44c0.09,0.25,0.19,0.76,0.32,1.54c0.16,0.99,0.17,1.4,0.17,1.54
			c-0.01,0.21-0.06,0.39-0.17,0.57c-0.06,0.12-0.15,0.23-0.3,0.34c-0.13,0.11-0.3,0.18-0.5,0.21c-0.21,0.03-0.38,0.02-0.55-0.05
			c-0.16-0.05-0.29-0.13-0.42-0.25c-0.12-0.1-0.21-0.25-0.29-0.46c-0.09-0.24-0.2-0.75-0.32-1.52
			C69.68,12.88,69.66,12.46,69.66,12.27z"/>
		<path d="M82.84,10.9c-0.05-0.88-0.39-1.56-1-2.02c-0.5-0.41-1.16-0.6-1.91-0.58l-3.51,0.11l0.3,9.01l2.04-0.07l-0.11-3.49
			l0.85-0.03l1.75,3.44l2.37-0.08l-2.07-3.79C82.41,12.89,82.86,12.03,82.84,10.9z M80.87,10.97c0.01,0.25-0.06,0.45-0.21,0.63
			c-0.14,0.17-0.36,0.26-0.68,0.28l-1.4,0.05l-0.05-1.64l1.47-0.05c0.29,0,0.49,0.04,0.64,0.15C80.67,10.43,80.85,10.55,80.87,10.97
			z"/>
		<polygon points="90.72,15.8 86.87,15.47 87.47,8.49 85.44,8.31 84.67,17.29 90.55,17.8 		"/>
		<path d="M95.83,18.74c0.36,0,0.71-0.06,1.02-0.18c0.52-0.18,0.96-0.47,1.31-0.84c0.13-0.14,0.24-0.27,0.35-0.41
			c0.1-0.15,0.19-0.32,0.27-0.52c0.14-0.36,0.31-0.98,0.49-1.85c0.17-0.8,0.28-1.4,0.31-1.78c0.02-0.39-0.04-0.79-0.18-1.18
			c-0.38-1.15-1.18-1.86-2.39-2.13l-3.12-0.66l-1.86,8.82l3.05,0.64C95.33,18.71,95.59,18.74,95.83,18.74z M96.47,11.78
			c0.46,0.08,0.76,0.31,0.95,0.76c0.08,0.15,0.11,0.34,0.1,0.55c-0.03,0.28-0.12,0.77-0.26,1.46c-0.14,0.7-0.26,1.17-0.34,1.4
			c-0.07,0.19-0.16,0.33-0.29,0.45c-0.3,0.3-0.68,0.39-1.2,0.28l-0.99-0.21l1.03-4.9L96.47,11.78z"/>
		<path d="M108.17,22.66c0.33,0,0.66-0.07,0.99-0.21c0.65-0.26,1.14-0.77,1.47-1.53c0.19-0.46,0.26-0.94,0.19-1.44
			c-0.04-0.25-0.13-0.48-0.26-0.69c0.01,0,0.01,0,0.02-0.01c0.25-0.08,0.45-0.18,0.63-0.32c0.33-0.27,0.56-0.6,0.71-0.96
			c0.3-0.71,0.32-1.39,0.06-2.01c-0.25-0.62-0.79-1.11-1.62-1.46l-3.22-1.34l-3.45,8.33l3.47,1.44
			C107.5,22.59,107.84,22.66,108.17,22.66z M109.49,15.75c0.29,0.13,0.48,0.28,0.54,0.44c0.07,0.19,0.06,0.38-0.02,0.59
			c-0.08,0.2-0.21,0.34-0.41,0.42c-0.17,0.08-0.4,0.06-0.68-0.06l-1.21-0.5l0.58-1.4L109.49,15.75z M106.34,19.94l0.62-1.5
			l1.31,0.54c0.3,0.13,0.47,0.28,0.53,0.46c0.07,0.21,0.06,0.41-0.03,0.63c-0.09,0.21-0.23,0.36-0.42,0.46
			c-0.17,0.09-0.41,0.07-0.7-0.04L106.34,19.94z"/>
		<polygon points="116.18,27.09 117.17,25.35 113.8,23.45 114.57,22.09 117.44,23.7 118.39,22.01 115.52,20.4 116.25,19.09 
			119.62,20.98 120.6,19.23 115.46,16.34 111.04,24.2 		"/>
		<polygon points="118.52,28.71 120.18,29.89 124.29,24.13 126.06,25.39 127.19,23.81 121.99,20.11 120.86,21.68 122.63,22.95 		"/>
		<polygon points="128.57,27.52 123.88,32.82 125.4,34.17 130.09,28.87 131.72,30.3 133.01,28.85 128.22,24.63 126.94,26.08 		"/>
		<polygon points="131.85,40.84 133.33,39.49 130.74,36.63 131.9,35.58 134.11,38.02 135.55,36.72 133.34,34.28 134.45,33.27 
			137.04,36.13 138.53,34.79 134.56,30.41 127.88,36.47 		"/>
		<path d="M133.92,43.62l2.85-2.02l0.49,0.69l-1.9,3.36l1.37,1.94l2.02-3.82c0.93,0.44,1.89,0.34,2.81-0.31
			c0.7-0.53,1.08-1.19,1.13-1.95c0.06-0.65-0.13-1.29-0.57-1.91l-2.03-2.87l-7.35,5.22L133.92,43.62z M139.69,39.52l0.85,1.2
			c0.16,0.22,0.24,0.43,0.23,0.61c0,0.07-0.01,0.28-0.35,0.53c-0.2,0.15-0.41,0.21-0.65,0.18c-0.22-0.02-0.42-0.16-0.61-0.42
			l-0.81-1.14L139.69,39.52z"/>
		<path d="M144.4,55.72c-0.22,0.09-0.66,0.27-1.13-0.75c-0.3-0.71-0.35-1.4-0.14-2.1l0.12-0.4l-1.97-0.58l-0.13,0.39
			c-0.37,1.17-0.3,2.35,0.21,3.52c0.7,1.55,1.64,2.05,2.54,2.07c0.46,0.01,0.91-0.11,1.31-0.27c0.62-0.27,1.08-0.71,1.39-1.29
			c0.32-0.6,0.36-1.32,0.13-2.15c-0.11-0.36-0.18-0.64-0.23-0.84c-0.07-0.29-0.07-0.53,0.01-0.69c0.06-0.14,0.14-0.23,0.25-0.28
			c0.32-0.13,0.5-0.07,0.61-0.01c0.19,0.1,0.34,0.28,0.45,0.52c0.24,0.59,0.3,1.18,0.19,1.81l-0.08,0.42l2.01,0.34l0.09-0.39
			c0.22-0.97,0.13-1.96-0.28-2.96c-0.38-0.84-0.92-1.41-1.59-1.68c-0.69-0.29-1.43-0.27-2.19,0.07c-0.64,0.28-1.1,0.72-1.38,1.32
			c-0.27,0.58-0.31,1.25-0.12,2.02c0.1,0.37,0.2,0.72,0.28,1.01C144.89,55.42,144.66,55.6,144.4,55.72z"/>
		<path d="M143.88,62.18l2.63-0.79l1.17,0.57l-2.97,2.98l0.68,2.25l0.35,2.09l1.9,0.3l0.4,2.37l-1.7,0.91l0.36,2.13l8.36-4.63
			l-0.27-1.58l-9.33-1.62l4.17-4.35l4.36,1.72l-0.71-2.39l-4.05-1.56l3.29-0.99l-0.58-1.95l-8.64,2.59L143.88,62.18z M149.65,69.87
			l1.88,0.27l-1.69,0.87L149.65,69.87z"/>
		<polygon points="153.8,76.09 146.74,76.56 146.87,78.6 153.93,78.13 154.08,80.3 156.01,80.17 155.59,73.8 153.66,73.93 		"/>
		<polygon points="147.01,81.94 146.76,87.83 148.76,87.92 148.93,84.06 150.49,84.13 150.35,87.42 152.29,87.5 152.43,84.21 
			153.93,84.27 153.76,88.13 155.77,88.22 156.02,82.32 		"/>
		<polygon points="145.75,95.19 150.01,97.45 145.19,97.52 144.8,99.14 153.06,103.37 153.56,101.29 149.43,99.31 154.06,99.21 
			154.42,97.73 150.34,95.54 154.92,95.65 155.42,93.57 146.14,93.59 		"/>
		<path d="M150.62,105.3c-0.17-0.23-0.41-0.44-0.74-0.64c-0.3-0.18-0.89-0.45-1.81-0.82c-0.9-0.36-1.51-0.57-1.86-0.65
			c-0.21-0.05-0.4-0.05-0.55-0.07c-0.13,0-0.26,0.01-0.42,0.02c-0.49,0.05-0.98,0.23-1.46,0.55c-0.5,0.32-0.9,0.81-1.18,1.48
			c-0.25,0.67-0.3,1.3-0.16,1.88c0.13,0.56,0.36,1.03,0.66,1.35c0.17,0.25,0.42,0.47,0.77,0.68c0.31,0.18,0.91,0.45,1.79,0.79
			c0.91,0.36,1.51,0.58,1.86,0.66c0.21,0.05,0.4,0.07,0.58,0.08c0.14,0,0.27-0.01,0.37-0.03c0.49-0.04,0.98-0.22,1.47-0.53
			c0.5-0.32,0.9-0.82,1.18-1.5c0.25-0.66,0.31-1.29,0.17-1.86C151.16,106.11,150.93,105.64,150.62,105.3z M149.28,107.24
			c0.02,0.17-0.01,0.35-0.08,0.53c-0.09,0.21-0.2,0.36-0.32,0.47c-0.13,0.11-0.26,0.17-0.45,0.22c-0.15,0.05-0.33,0.06-0.52,0.03
			c-0.19-0.04-0.59-0.16-1.49-0.52c-0.89-0.35-1.26-0.55-1.41-0.64c-0.18-0.12-0.31-0.25-0.4-0.43c-0.08-0.12-0.12-0.26-0.14-0.43
			c-0.02-0.17,0-0.35,0.08-0.54c0.08-0.19,0.18-0.33,0.33-0.45c0.13-0.11,0.26-0.19,0.43-0.23c0.09-0.03,0.18-0.05,0.29-0.04
			c0.08,0,0.16,0.01,0.25,0.03c0.18,0.03,0.58,0.15,1.47,0.5l0,0c0.89,0.36,1.27,0.55,1.43,0.66c0.17,0.11,0.29,0.23,0.38,0.4
			C149.21,106.92,149.26,107.07,149.28,107.24z"/>
		<path d="M139.74,111.57l3.06,1.69l-0.41,0.74l-3.85-0.25l-1.14,2.08l4.32,0.15c0.01,1.02,0.52,1.85,1.5,2.4
			c0.44,0.23,0.87,0.34,1.29,0.35c0.33,0.01,0.64-0.05,0.95-0.18c0.61-0.23,1.1-0.68,1.47-1.35l1.69-3.08l-7.9-4.35L139.74,111.57z
			 M145.94,114.98l-0.71,1.28c-0.14,0.25-0.28,0.4-0.45,0.47c-0.06,0.03-0.25,0.11-0.63-0.09c-0.22-0.12-0.36-0.28-0.44-0.51
			c-0.08-0.21-0.04-0.45,0.11-0.73l0.67-1.23L145.94,114.98z"/>
		<polygon points="133.33,121.52 134.97,122.69 137.21,119.55 142.91,123.62 144.1,121.97 136.76,116.72 		"/>
		<path d="M130.31,124.97c-0.45,0.5-0.73,1.03-0.82,1.58c-0.11,0.54-0.09,1.06,0.06,1.56c0.06,0.18,0.11,0.34,0.18,0.5
			c0.08,0.17,0.18,0.33,0.31,0.49c0.23,0.3,0.67,0.75,1.34,1.36c0.63,0.58,1.08,0.96,1.38,1.17c0.33,0.22,0.7,0.37,1.1,0.44
			c0.24,0.05,0.47,0.08,0.69,0.08c0.9,0.02,1.69-0.34,2.36-1.06l2.15-2.36l-6.66-6.08L130.31,124.97z M136.21,128.91l-0.69,0.76
			c-0.31,0.36-0.66,0.49-1.14,0.43c-0.17-0.01-0.35-0.07-0.53-0.19c-0.23-0.17-0.61-0.5-1.13-0.97c-0.65-0.59-0.92-0.87-1.03-1
			c-0.13-0.15-0.21-0.3-0.24-0.48c-0.11-0.41,0.01-0.78,0.37-1.17l0.69-0.75L136.21,128.91z"/>
		<path d="M121.4,133.8c-0.58,0.46-0.91,1.05-0.98,1.75c-0.09,0.7,0.11,1.38,0.61,2.03c0.31,0.39,0.7,0.68,1.16,0.87
			c0.24,0.09,0.49,0.12,0.73,0.12c0,0.01,0,0.01,0,0.02c-0.05,0.24-0.06,0.48-0.03,0.7c0.07,0.41,0.24,0.78,0.49,1.09
			c0.47,0.6,1.05,0.96,1.72,1.04c0.09,0.01,0.18,0.02,0.27,0.02c0.58,0,1.18-0.24,1.79-0.71l2.74-2.15l-5.57-7.09L121.4,133.8z
			 M127.12,138.31l-1.03,0.81c-0.18,0.13-0.43,0.29-0.64,0.26c-0.21-0.03-0.37-0.13-0.51-0.31c-0.14-0.18-0.19-0.35-0.17-0.56
			c0.01-0.19,0.14-0.38,0.38-0.57l1.03-0.81L127.12,138.31z M122.48,135.79c0.01-0.19,0.14-0.39,0.38-0.59l1.13-0.88l1,1.28
			l-1.12,0.88c-0.25,0.19-0.47,0.28-0.66,0.24c-0.21-0.04-0.38-0.15-0.53-0.34C122.54,136.2,122.47,136.01,122.48,135.79z"/>
		<polygon points="112.95,139.37 114,141.09 117.29,139.08 118.11,140.42 115.29,142.14 116.3,143.79 119.12,142.08 119.89,143.36 
			116.59,145.37 117.64,147.08 122.68,144.02 118,136.31 		"/>
		<polygon points="113.43,147.01 110.43,140.6 108.59,141.46 111.58,147.88 109.61,148.8 110.44,150.55 116.22,147.85 115.4,146.09 
					"/>
		<polygon points="106.48,149.95 104.17,143.26 102.25,143.92 104.56,150.62 102.5,151.32 103.13,153.16 109.17,151.08 
			108.53,149.24 		"/>
		<polygon points="93.33,146.24 93.77,148.2 97.53,147.34 97.88,148.87 94.67,149.6 95.1,151.49 98.31,150.76 98.65,152.22 
			94.88,153.08 95.33,155.03 101.08,153.72 99.08,144.93 		"/>
		<path d="M89.81,146.7l0.37,3.48l-0.84,0.09l-2-3.3l-2.36,0.25l2.34,3.63c-0.83,0.59-1.22,1.48-1.11,2.6
			c0.12,0.87,0.51,1.53,1.14,1.94c0.44,0.31,0.97,0.46,1.57,0.46c0.12,0,0.25-0.01,0.38-0.02l3.5-0.37l-0.95-8.97L89.81,146.7z
			 M88.46,153.79c-0.06-0.03-0.24-0.14-0.29-0.56c-0.03-0.25,0.02-0.46,0.16-0.65c0.13-0.18,0.35-0.29,0.66-0.33l1.39-0.15
			l0.17,1.64l-1.46,0.15C88.82,153.92,88.61,153.9,88.46,153.79z"/>
		<path d="M75.65,148.2c0.77,0.09,1.39,0.38,1.9,0.91l0.29,0.3l1.48-1.43l-0.28-0.3c-0.83-0.9-1.9-1.42-3.17-1.55
			c-2.6-0.24-3.3,1.21-3.46,2.46c-0.07,0.67,0.08,1.29,0.43,1.84c0.37,0.57,0.97,0.96,1.81,1.17c0.36,0.09,0.65,0.16,0.85,0.21
			c0.29,0.09,0.49,0.2,0.59,0.34c0.09,0.12,0.13,0.24,0.12,0.36c-0.04,0.35-0.19,0.47-0.29,0.54c-0.19,0.12-0.41,0.16-0.68,0.13
			c-0.63-0.08-1.18-0.32-1.67-0.73l-0.33-0.27l-1.29,1.58l0.29,0.27c0.73,0.67,1.64,1.07,2.71,1.21c0.11,0.01,0.22,0.02,0.32,0.02
			c0.78,0.02,1.43-0.17,1.93-0.57c0.6-0.46,0.94-1.11,1.02-1.94c0.07-0.69-0.09-1.32-0.47-1.85c-0.37-0.52-0.94-0.88-1.71-1.1
			l-1.02-0.25c-0.59-0.17-0.65-0.46-0.61-0.74C74.47,148.58,74.52,148.1,75.65,148.2z"/>
		<path d="M68.48,147.85l-1.08,0.74l-1.12-4.05l-2.26-0.51L62,143.28l-1.2,1.51l-2.25-0.82l0.05-1.93l-2.03-0.74l-0.11,9.56
			l1.5,0.55l6.02-7.31l1.73,5.77l-3.64,2.95l2.43,0.55l3.36-2.76l-0.76,3.35l1.99,0.45l2-8.79l-1.99-0.45L68.48,147.85z
			 M59.55,146.4l-1.17,1.5l0.08-1.9L59.55,146.4z"/>
		<polygon points="53.37,139.69 50.29,146.06 48.33,145.11 47.49,146.86 53.23,149.64 54.08,147.89 52.12,146.95 55.21,140.58 		"/>
		<polygon points="45.37,135 44.3,136.7 47.57,138.75 46.74,140.08 43.95,138.33 42.92,139.97 45.71,141.72 44.91,142.99 
			41.64,140.94 40.58,142.64 45.58,145.78 50.36,138.14 		"/>
		<polygon points="34.83,132.37 37.16,128.15 35.95,127.01 28.18,132.07 29.74,133.54 33.5,130.95 31.29,135.01 32.4,136.05 
			36.33,133.6 33.95,137.52 35.51,138.98 40.11,130.93 38.9,129.79 		"/>
		<path d="M30.25,127.51c0.75-0.6,1.24-1.02,1.48-1.29c0.14-0.15,0.25-0.29,0.33-0.43c0.06-0.11,0.13-0.23,0.2-0.38
			c0.2-0.45,0.29-0.97,0.25-1.54c-0.03-0.6-0.26-1.18-0.7-1.76c-0.46-0.55-0.98-0.91-1.55-1.07c-0.55-0.17-1.07-0.2-1.5-0.1
			c-0.3,0.02-0.63,0.14-0.97,0.33c-0.31,0.18-0.83,0.56-1.58,1.16c-0.76,0.61-1.25,1.03-1.5,1.29c-0.26,0.28-0.44,0.57-0.51,0.8
			c-0.21,0.44-0.3,0.96-0.27,1.54c0.03,0.6,0.27,1.19,0.71,1.76c0.45,0.55,0.96,0.91,1.53,1.07c0.33,0.1,0.65,0.15,0.95,0.16
			c0.2,0,0.4-0.01,0.58-0.05c0.29-0.04,0.59-0.14,0.93-0.33C28.95,128.51,29.47,128.13,30.25,127.51z M30.41,123.92
			c0.03,0.17,0.03,0.32-0.01,0.49c-0.03,0.16-0.11,0.31-0.25,0.47c-0.12,0.14-0.42,0.43-1.17,1.03c-0.61,0.48-1.04,0.79-1.28,0.92
			c-0.18,0.1-0.35,0.15-0.54,0.13c-0.13,0.01-0.3-0.03-0.46-0.09c-0.15-0.07-0.3-0.18-0.42-0.33c-0.13-0.18-0.22-0.35-0.25-0.51
			c-0.03-0.17-0.02-0.31,0.03-0.49c0.03-0.16,0.11-0.32,0.24-0.48c0.17-0.2,0.57-0.55,1.18-1.03c0.61-0.49,1.04-0.79,1.26-0.91
			c0.19-0.09,0.36-0.14,0.55-0.13c0.01,0,0.01,0,0.02,0c0.15-0.01,0.28,0.02,0.44,0.09c0.16,0.06,0.3,0.17,0.43,0.34
			C30.31,123.58,30.39,123.73,30.41,123.92z"/>
		<path d="M27.67,116.43l-2.99,1.82l-0.44-0.73l2.13-3.22l-1.24-2.03l-2.28,3.67c-0.89-0.5-1.86-0.47-2.83,0.11
			c-0.74,0.48-1.17,1.11-1.27,1.86c-0.11,0.64,0.04,1.3,0.44,1.95l1.83,3l7.7-4.69L27.67,116.43z M21.62,120.11l-0.76-1.25
			c-0.15-0.24-0.21-0.44-0.18-0.63c0.01-0.07,0.02-0.27,0.38-0.5c0.17-0.1,0.33-0.15,0.5-0.15c0.05,0,0.1,0.01,0.15,0.02
			c0.22,0.04,0.41,0.19,0.58,0.46l0.73,1.2L21.62,120.11z"/>
		<polygon points="22.24,105.92 20.41,106.75 22.01,110.26 15.63,113.17 16.48,115.02 24.68,111.28 		"/>
		<path d="M20.77,101.59c-0.2-0.64-0.53-1.15-0.96-1.5c-0.42-0.36-0.88-0.61-1.38-0.72c-0.18-0.04-0.36-0.07-0.53-0.09
			c-0.19-0.02-0.38-0.01-0.58,0.02c-0.38,0.05-0.99,0.21-1.85,0.49c-0.81,0.26-1.36,0.45-1.7,0.61c-0.35,0.17-0.67,0.42-0.94,0.74
			c-0.81,0.9-1.03,1.95-0.67,3.12l0.97,3.04l8.6-2.73L20.77,101.59z M14.41,104.74l-0.31-0.98c-0.15-0.44-0.1-0.81,0.19-1.2
			c0.09-0.14,0.24-0.27,0.43-0.36c0.27-0.12,0.74-0.28,1.4-0.49c0.84-0.27,1.22-0.36,1.38-0.39c0.09-0.02,0.17-0.02,0.24-0.02
			c0.1,0,0.2,0.02,0.29,0.05c0.41,0.11,0.67,0.4,0.83,0.9l0.31,0.97L14.41,104.74z"/>
		<path d="M17.81,90.7c-0.11-0.73-0.46-1.31-1.03-1.72c-0.56-0.43-1.25-0.58-2.07-0.47c-0.49,0.07-0.94,0.26-1.34,0.58
			c-0.19,0.17-0.35,0.36-0.46,0.58c-0.01,0-0.01-0.01-0.01-0.01c-0.18-0.16-0.38-0.29-0.6-0.38c-0.39-0.14-0.8-0.17-1.19-0.11
			c-0.76,0.11-1.35,0.44-1.76,0.98c-0.4,0.53-0.55,1.25-0.42,2.14l0.51,3.45l8.92-1.32L17.81,90.7z M14.39,90.83
			c0.14-0.16,0.32-0.26,0.55-0.29c0.05-0.01,0.1-0.01,0.15-0.01c0.16,0,0.31,0.04,0.46,0.13c0.16,0.1,0.27,0.31,0.32,0.62l0.21,1.42
			l-1.61,0.24l-0.21-1.41C14.22,91.21,14.26,90.98,14.39,90.83z M10.96,91.46c0.13-0.16,0.3-0.25,0.52-0.28
			c0.05-0.01,0.1-0.01,0.14-0.01c0.16,0,0.3,0.04,0.43,0.14c0.16,0.1,0.26,0.3,0.3,0.61l0.19,1.3l-1.5,0.22l-0.19-1.29
			C10.83,91.83,10.86,91.6,10.96,91.46z"/>
		<polygon points="17.15,80.61 15.14,80.67 15.25,84.53 13.69,84.58 13.59,81.28 11.65,81.34 11.75,84.63 10.25,84.67 10.14,80.82 
			8.13,80.87 8.3,86.77 17.32,86.51 		"/>
		<polygon points="10.27,77.21 17.33,77.78 17.49,75.75 10.44,75.18 10.61,73.01 8.68,72.86 8.17,79.22 10.1,79.37 		"/>
		<polygon points="11.15,69.75 18.11,71.06 18.49,69.05 11.53,67.75 11.93,65.61 10.03,65.25 8.85,71.52 10.76,71.88 		"/>
		<polygon points="20.9,60.15 18.98,59.57 17.86,63.26 16.36,62.81 17.32,59.65 15.47,59.09 14.51,62.24 13.07,61.8 14.19,58.11 
			12.28,57.53 10.56,63.17 19.18,65.8 		"/>
		<path d="M22.24,56.89l-3.2-1.41l0.34-0.78l3.86-0.09l0.96-2.17l-4.31,0.23c-0.1-1.02-0.68-1.79-1.7-2.26
			c-0.82-0.33-1.58-0.32-2.25,0.03c-0.59,0.28-1.05,0.78-1.35,1.47l-1.42,3.22l8.25,3.64L22.24,56.89z M15.77,54.04l0.59-1.34
			c0.11-0.25,0.25-0.43,0.41-0.51c0.06-0.03,0.24-0.14,0.63,0.03c0.23,0.1,0.38,0.25,0.48,0.46c0.1,0.2,0.08,0.45-0.04,0.74
			l-0.56,1.28L15.77,54.04z"/>
	</g>
	<circle cx="21.3" cy="47.75" r="1.35"/>
	<circle cx="142.53" cy="47.53" r="1.35"/>
	<circle cx="82.28" cy="151.63" r="1.35"/>
</g>
</svg>
