<?xml version="1.0" encoding="utf-8"?>
<!-- Generator: Adobe Illustrator 25.4.1, SVG Export Plug-In . SVG Version: 6.00 Build 0)  -->
<svg version="1.1" id="Layer_1" xmlns="http://www.w3.org/2000/svg" xmlns:xlink="http://www.w3.org/1999/xlink" x="0px" y="0px"
	 viewBox="0 0 167.9 169.9" style="enable-background:new 0 0 167.9 169.9;" xml:space="preserve">
<style type="text/css">
	.st0{fill:#FFFFFF;}
</style>
<g id="Layer_2">
	<path d="M83.33,166.66c-45.26,0-82.07-36.82-82.07-82.07S38.07,2.51,83.33,2.51s82.07,36.82,82.07,82.07
		S128.58,166.66,83.33,166.66z"/>
</g>
<g id="design_00000142872364916601504670000006593930535647176347_">
	<g>
		<path class="st0" d="M91.13,25.1l-0.98-0.13V83.4L82.9,54.1l-6.97,28.13V24.95l-0.98,0.13c-1.53,0.21-3.08,0.48-4.59,0.8
			c-2.12,0.46-4.22,1.03-6.24,1.7l-0.59,0.2v11.7l0.06,1.27v86.66l-0.06-0.02v12.47l0.06,0.63v0.35l0.59,0.2
			c3.59,1.19,7.33,2.04,11.1,2.53l0.81,0.1l6.82-36.95l7.07,36.93l0.8-0.1c3.77-0.49,7.49-1.34,11.07-2.54l0.59-0.2V27.78l-0.59-0.2
			C98.39,26.43,94.78,25.59,91.13,25.1z"/>
		<path class="st0" d="M132.24,88.05l-1.32-1.27l-2.31-2.31l2.33-2.33l0.01,0.12l10.77-10.77l-0.11-0.46
			c-0.77-3.35-1.84-6.65-3.18-9.82c-1.83-4.34-4.18-8.45-6.98-12.23c-0.14-0.18-0.27-0.37-0.41-0.55l-0.19-0.24
			c-3.84-4.99-8.41-9.32-13.59-12.86v-0.08l-0.38-0.26c-3.22-2.18-6.67-4.06-10.26-5.58l-1.39-0.57v110.96l1.19-0.49
			c13.54-5.6,24.44-15.9,30.81-29.06l0.05,0.05l0.51-1.12c0.22-0.48,0.43-0.96,0.63-1.44c1.32-3.13,2.38-6.39,3.15-9.7l0.1-0.44l0,0
			l0.02-0.06L132.24,88.05z M127.96,100.98c-2.34,6.25-5.94,11.85-10.7,16.65V90.27L127.96,100.98z M117.26,51.12
			c4.8,4.84,8.41,10.48,10.75,16.79l-10.75,10.75V51.12z"/>
		<path class="st0" d="M40.33,42.23c-5.49,5.49-9.8,11.88-12.81,19c-1.37,3.25-2.46,6.64-3.24,10.07l-0.08,0.38l0.22,0.31
			c0.33,0.46,4.64,4.74,5.96,6.04c1.93,1.91,2.87,2.83,3.39,3.25l-0.02,0.02l14.96,14.96l0,21.25c-3.97-4.04-7.16-8.67-9.46-13.76
			c-2.31-5.12-3.67-10.58-4.05-16.25l-0.09-1.81l-1.31,1.03c-0.05,0.04-0.06,0.05-4.73,4.71c-1.16,1.16-2.32,2.32-3.19,3.19
			c-1.78,1.78-1.78,1.78-1.69,2.22L24.24,97c4.14,18.97,17.33,34.78,35.3,42.28l1.19,0.5V91.06L37.85,68.18
			c2.3-6.41,5.96-12.19,10.88-17.19l0.01,20.83l11.99,11.72V28.84l-1.4,0.59C52.21,32.43,45.82,36.74,40.33,42.23z"/>
	</g>
	<g>
		<path class="st0" d="M23.46,45.97c0.57,0.4,1.19,0.57,1.84,0.5c0.63-0.07,1.23-0.38,1.79-0.94l0.72-0.76
			c0.44-0.43,0.72-0.34,0.95-0.17c0.19,0.14,0.57,0.42-0.07,1.35c-0.46,0.63-1.02,1.02-1.73,1.2l-0.41,0.1l0.52,1.99l0.4-0.09
			c1.19-0.28,2.17-0.95,2.91-1.99c1.47-2.12,0.58-3.47-0.44-4.23c-0.55-0.39-1.17-0.56-1.81-0.53c-0.68,0.04-1.32,0.37-1.91,1
			c-0.25,0.27-0.45,0.49-0.6,0.63c-0.21,0.21-0.42,0.33-0.58,0.35c-0.15,0.02-0.27,0-0.37-0.07c-0.28-0.21-0.32-0.39-0.33-0.52
			c-0.01-0.22,0.06-0.43,0.22-0.65c0.38-0.51,0.85-0.87,1.46-1.09l0.4-0.15l-0.74-1.9l-0.38,0.12c-0.94,0.31-1.74,0.9-2.39,1.77
			c-0.53,0.76-0.74,1.51-0.63,2.23C22.39,44.87,22.79,45.49,23.46,45.97z"/>
		<path class="st0" d="M35.83,27.94l-1.22,1.04l3.41,8.86l-5.9-1.34l-0.77-4.62l-1.68,1.84L30.42,38l-2.54-2.31l-1.37,1.51
			l6.67,6.07l1.37-1.51l-2.03-1.85l-0.11-1.3l4.08,1.01l1.59-1.74l1.63-1.39l-0.73-1.78l1.82-1.56l1.65,0.99l1.65-1.4L35.83,27.94z
			 M39.07,32.08l-0.89,0.76l-0.74-1.76L39.07,32.08z"/>
		<polygon class="st0" points="41.39,26.08 45.42,31.91 47.09,30.75 43.07,24.92 44.85,23.69 43.75,22.09 38.5,25.72 39.61,27.32 		
			"/>
		<polygon class="st0" points="55.09,26.11 54.14,24.34 50.74,26.18 49.99,24.8 52.89,23.23 51.97,21.53 49.07,23.09 48.36,21.77 
			51.76,19.94 50.81,18.17 45.61,20.98 49.9,28.91 		"/>
		<polygon class="st0" points="62.82,23.06 62.6,18.24 65.12,22.36 66.7,21.87 66.14,12.61 64.1,13.24 64.49,17.8 62.05,13.87 
			60.6,14.31 60.78,18.93 58.56,14.94 56.51,15.57 61.24,23.55 		"/>
		<path class="st0" d="M69.07,16.67c0.15,0.96,0.28,1.59,0.39,1.93c0.07,0.2,0.14,0.36,0.21,0.5c0.07,0.11,0.14,0.22,0.23,0.35
			c0.29,0.4,0.71,0.73,1.22,0.97c0.39,0.2,0.84,0.3,1.34,0.3c0.17,0,0.35-0.01,0.54-0.04c0.7-0.13,1.27-0.41,1.69-0.82
			c0.42-0.4,0.7-0.84,0.83-1.25c0.13-0.27,0.19-0.61,0.19-1.01c0-0.36-0.08-1-0.23-1.94c-0.15-0.97-0.27-1.6-0.38-1.94
			c-0.12-0.37-0.28-0.66-0.45-0.84c-0.28-0.4-0.69-0.73-1.21-0.99c-0.54-0.27-1.17-0.35-1.89-0.25c-0.69,0.12-1.26,0.39-1.69,0.81
			c-0.42,0.41-0.71,0.85-0.85,1.28c-0.11,0.26-0.17,0.59-0.17,0.97C68.84,15.05,68.91,15.67,69.07,16.67L69.07,16.67z M70.92,14.78
			c0.01-0.21,0.05-0.37,0.15-0.53c0.07-0.13,0.17-0.25,0.31-0.36c0.13-0.1,0.3-0.17,0.49-0.2c0.22-0.03,0.42-0.01,0.56,0.03
			c0.16,0.06,0.28,0.14,0.42,0.27c0.12,0.1,0.22,0.25,0.29,0.44c0.09,0.25,0.19,0.76,0.32,1.54c0.16,0.99,0.17,1.4,0.17,1.54
			c-0.01,0.21-0.06,0.39-0.17,0.57c-0.06,0.12-0.15,0.23-0.3,0.34c-0.13,0.11-0.3,0.18-0.5,0.21c-0.21,0.03-0.38,0.02-0.55-0.05
			c-0.16-0.05-0.29-0.13-0.42-0.25c-0.12-0.1-0.21-0.25-0.29-0.46c-0.09-0.24-0.2-0.75-0.32-1.52
			C70.93,15.4,70.91,14.98,70.92,14.78z"/>
		<path class="st0" d="M84.09,13.41c-0.05-0.88-0.39-1.56-1-2.02c-0.5-0.41-1.16-0.6-1.91-0.58l-3.51,0.11l0.3,9.01L80,19.88
			l-0.11-3.49l0.85-0.03l1.75,3.44l2.37-0.08l-2.07-3.79C83.66,15.4,84.11,14.54,84.09,13.41z M82.12,13.49
			c0.01,0.25-0.06,0.45-0.21,0.63c-0.14,0.17-0.36,0.26-0.68,0.28l-1.4,0.05l-0.05-1.64l1.47-0.05c0.29,0,0.49,0.04,0.64,0.15
			C81.93,12.94,82.1,13.06,82.12,13.49z"/>
		<polygon class="st0" points="91.97,18.32 88.13,17.98 88.73,11 86.7,10.82 85.93,19.81 91.8,20.31 		"/>
		<path class="st0" d="M97.09,21.25c0.36,0,0.71-0.06,1.02-0.18c0.52-0.18,0.96-0.47,1.31-0.84c0.13-0.14,0.24-0.27,0.35-0.41
			c0.1-0.15,0.19-0.32,0.27-0.52c0.14-0.36,0.31-0.98,0.49-1.85c0.17-0.8,0.28-1.4,0.31-1.78c0.02-0.39-0.04-0.79-0.18-1.18
			c-0.38-1.15-1.18-1.86-2.39-2.13l-3.12-0.66l-1.86,8.82l3.05,0.64C96.59,21.22,96.84,21.25,97.09,21.25z M97.72,14.3
			c0.46,0.08,0.76,0.31,0.95,0.76c0.08,0.15,0.11,0.34,0.1,0.55c-0.03,0.28-0.12,0.77-0.26,1.46c-0.14,0.7-0.26,1.17-0.34,1.4
			c-0.07,0.19-0.16,0.33-0.29,0.45c-0.3,0.3-0.68,0.39-1.2,0.28l-0.99-0.21l1.03-4.9L97.72,14.3z"/>
		<path class="st0" d="M109.43,25.18c0.33,0,0.66-0.07,0.99-0.21c0.65-0.26,1.14-0.77,1.47-1.53c0.19-0.46,0.26-0.94,0.19-1.44
			c-0.04-0.25-0.13-0.48-0.26-0.69c0.01,0,0.01,0,0.02-0.01c0.25-0.08,0.45-0.18,0.63-0.32c0.33-0.27,0.56-0.6,0.71-0.96
			c0.3-0.71,0.32-1.39,0.06-2.01c-0.25-0.62-0.79-1.11-1.62-1.46l-3.22-1.34l-3.45,8.33l3.47,1.44
			C108.75,25.11,109.09,25.18,109.43,25.18z M110.74,18.27c0.29,0.13,0.48,0.28,0.54,0.44c0.07,0.19,0.06,0.38-0.02,0.59
			c-0.08,0.2-0.21,0.34-0.41,0.42c-0.17,0.08-0.4,0.06-0.68-0.06l-1.21-0.5l0.58-1.4L110.74,18.27z M107.59,22.45l0.62-1.5
			l1.31,0.54c0.3,0.13,0.47,0.28,0.53,0.46c0.07,0.21,0.06,0.41-0.03,0.63c-0.09,0.21-0.23,0.36-0.42,0.46
			c-0.17,0.09-0.41,0.07-0.7-0.04L107.59,22.45z"/>
		<polygon class="st0" points="117.44,29.61 118.42,27.86 115.05,25.97 115.82,24.6 118.7,26.22 119.64,24.53 116.77,22.91 
			117.51,21.6 120.87,23.5 121.86,21.75 116.71,18.86 112.3,26.72 		"/>
		<polygon class="st0" points="119.78,31.22 121.44,32.41 125.55,26.64 127.32,27.9 128.44,26.33 123.25,22.62 122.12,24.2 
			123.89,25.46 		"/>
		<polygon class="st0" points="129.82,30.03 125.14,35.33 126.66,36.68 131.35,31.38 132.98,32.82 134.26,31.37 129.48,27.14 
			128.2,28.59 		"/>
		<polygon class="st0" points="133.1,43.36 134.59,42.01 131.99,39.15 133.16,38.1 135.37,40.54 136.81,39.24 134.59,36.79 
			135.7,35.79 138.29,38.65 139.78,37.3 135.82,32.93 129.14,38.99 		"/>
		<path class="st0" d="M135.17,46.13l2.85-2.02l0.49,0.69l-1.9,3.36l1.37,1.94l2.02-3.82c0.93,0.44,1.89,0.34,2.81-0.31
			c0.7-0.53,1.08-1.19,1.13-1.95c0.06-0.65-0.13-1.29-0.57-1.91l-2.03-2.87L134,44.47L135.17,46.13z M140.95,42.03l0.85,1.2
			c0.16,0.22,0.24,0.43,0.23,0.61c0,0.07-0.01,0.28-0.35,0.53c-0.2,0.15-0.41,0.21-0.65,0.18c-0.22-0.02-0.42-0.16-0.61-0.42
			l-0.81-1.14L140.95,42.03z"/>
		<path class="st0" d="M145.65,58.23c-0.22,0.09-0.66,0.27-1.13-0.75c-0.3-0.71-0.35-1.4-0.14-2.1l0.12-0.4l-1.97-0.58l-0.13,0.39
			c-0.37,1.17-0.3,2.35,0.21,3.52c0.7,1.55,1.64,2.05,2.54,2.07c0.46,0.01,0.91-0.11,1.31-0.27c0.62-0.27,1.08-0.71,1.39-1.29
			c0.32-0.6,0.36-1.32,0.13-2.15c-0.11-0.36-0.18-0.64-0.23-0.84c-0.07-0.29-0.07-0.53,0.01-0.69c0.06-0.14,0.14-0.23,0.25-0.28
			c0.32-0.13,0.5-0.07,0.61-0.01c0.19,0.1,0.34,0.28,0.45,0.52c0.24,0.59,0.3,1.18,0.19,1.81l-0.08,0.42l2.01,0.34l0.09-0.39
			c0.22-0.97,0.13-1.96-0.28-2.96c-0.38-0.84-0.92-1.41-1.59-1.68c-0.69-0.29-1.43-0.27-2.19,0.07c-0.64,0.28-1.1,0.72-1.38,1.32
			c-0.27,0.58-0.31,1.25-0.12,2.02c0.1,0.37,0.2,0.72,0.28,1.01C146.15,57.93,145.92,58.12,145.65,58.23z"/>
		<path class="st0" d="M145.13,64.69l2.63-0.79l1.17,0.57l-2.97,2.98l0.68,2.25l0.35,2.09l1.9,0.3l0.4,2.37l-1.7,0.91l0.36,2.13
			l8.36-4.63l-0.27-1.58l-9.33-1.62l4.17-4.35l4.36,1.72l-0.71-2.39l-4.05-1.56l3.29-0.99l-0.58-1.95l-8.64,2.59L145.13,64.69z
			 M150.9,72.38l1.88,0.27l-1.69,0.87L150.9,72.38z"/>
		<polygon class="st0" points="155.05,78.61 147.99,79.07 148.12,81.11 155.19,80.64 155.33,82.81 157.26,82.68 156.84,76.31 
			154.91,76.44 		"/>
		<polygon class="st0" points="148.26,84.45 148.01,90.34 150.01,90.43 150.18,86.57 151.75,86.64 151.61,89.93 153.54,90.02 
			153.68,86.72 155.18,86.79 155.01,90.64 157.02,90.73 157.27,84.84 		"/>
		<polygon class="st0" points="147.01,97.71 151.27,99.97 146.45,100.04 146.06,101.65 154.32,105.88 154.82,103.8 150.69,101.82 
			155.32,101.72 155.67,100.25 151.6,98.05 156.17,98.17 156.67,96.09 147.4,96.1 		"/>
		<path class="st0" d="M151.88,107.81c-0.17-0.23-0.41-0.44-0.74-0.64c-0.3-0.18-0.89-0.45-1.81-0.82c-0.9-0.36-1.51-0.57-1.86-0.65
			c-0.21-0.05-0.4-0.05-0.55-0.07c-0.13,0-0.26,0.01-0.42,0.02c-0.49,0.05-0.98,0.23-1.46,0.55c-0.5,0.32-0.9,0.81-1.18,1.48
			c-0.25,0.67-0.3,1.3-0.16,1.88c0.13,0.56,0.36,1.03,0.66,1.35c0.17,0.25,0.42,0.47,0.77,0.68c0.31,0.18,0.91,0.45,1.79,0.79
			c0.91,0.36,1.51,0.58,1.86,0.66c0.21,0.05,0.4,0.07,0.58,0.08c0.14,0,0.27-0.01,0.37-0.03c0.49-0.04,0.98-0.22,1.47-0.53
			c0.5-0.32,0.9-0.82,1.18-1.5c0.25-0.66,0.31-1.29,0.17-1.86C152.41,108.63,152.18,108.15,151.88,107.81z M150.53,109.75
			c0.02,0.17-0.01,0.35-0.08,0.53c-0.09,0.21-0.2,0.36-0.32,0.47c-0.13,0.11-0.26,0.17-0.45,0.22c-0.15,0.05-0.33,0.06-0.52,0.03
			c-0.19-0.04-0.59-0.16-1.49-0.52c-0.89-0.35-1.26-0.55-1.41-0.64c-0.18-0.12-0.31-0.25-0.4-0.43c-0.08-0.12-0.12-0.26-0.14-0.43
			c-0.02-0.17,0-0.35,0.08-0.54c0.08-0.19,0.18-0.33,0.33-0.45c0.13-0.11,0.26-0.19,0.43-0.23c0.09-0.03,0.18-0.05,0.29-0.04
			c0.08,0,0.16,0.01,0.25,0.03c0.18,0.03,0.58,0.15,1.47,0.5l0,0c0.89,0.36,1.27,0.55,1.43,0.66c0.17,0.11,0.29,0.23,0.38,0.4
			C150.46,109.43,150.51,109.58,150.53,109.75z"/>
		<path class="st0" d="M141,114.08l3.06,1.69l-0.41,0.74l-3.85-0.25l-1.14,2.08l4.32,0.15c0.01,1.02,0.52,1.85,1.5,2.4
			c0.44,0.23,0.87,0.34,1.29,0.35c0.33,0.01,0.64-0.05,0.95-0.18c0.61-0.23,1.1-0.68,1.47-1.35l1.69-3.08l-7.9-4.35L141,114.08z
			 M147.2,117.5l-0.71,1.28c-0.14,0.25-0.28,0.4-0.45,0.47c-0.06,0.03-0.25,0.11-0.63-0.09c-0.22-0.12-0.36-0.28-0.44-0.51
			c-0.08-0.21-0.04-0.45,0.11-0.73l0.67-1.23L147.2,117.5z"/>
		<polygon class="st0" points="134.59,124.04 136.22,125.2 138.47,122.06 144.17,126.14 145.35,124.48 138.02,119.24 		"/>
		<path class="st0" d="M131.57,127.49c-0.45,0.5-0.73,1.03-0.82,1.58c-0.11,0.54-0.09,1.06,0.06,1.56c0.06,0.18,0.11,0.34,0.18,0.5
			c0.08,0.17,0.18,0.33,0.31,0.49c0.23,0.3,0.67,0.75,1.34,1.36c0.63,0.58,1.08,0.96,1.38,1.17c0.33,0.22,0.7,0.37,1.1,0.44
			c0.24,0.05,0.47,0.08,0.69,0.08c0.9,0.02,1.69-0.34,2.36-1.06l2.15-2.36l-6.66-6.08L131.57,127.49z M137.46,131.42l-0.69,0.76
			c-0.31,0.36-0.66,0.49-1.14,0.43c-0.17-0.01-0.35-0.07-0.53-0.19c-0.23-0.17-0.61-0.5-1.13-0.97c-0.65-0.59-0.92-0.87-1.03-1
			c-0.13-0.15-0.21-0.3-0.24-0.48c-0.11-0.41,0.01-0.78,0.37-1.17l0.69-0.75L137.46,131.42z"/>
		<path class="st0" d="M122.65,136.32c-0.58,0.46-0.91,1.05-0.98,1.75c-0.09,0.7,0.11,1.38,0.61,2.03c0.31,0.39,0.7,0.68,1.16,0.87
			c0.24,0.09,0.49,0.12,0.73,0.12c0,0.01,0,0.01,0,0.02c-0.05,0.24-0.06,0.48-0.03,0.7c0.07,0.41,0.24,0.78,0.49,1.09
			c0.47,0.6,1.05,0.96,1.72,1.04c0.09,0.01,0.18,0.02,0.27,0.02c0.58,0,1.18-0.24,1.79-0.71l2.74-2.15l-5.57-7.09L122.65,136.32z
			 M128.38,140.82l-1.03,0.81c-0.18,0.13-0.43,0.29-0.64,0.26c-0.21-0.03-0.37-0.13-0.51-0.31c-0.14-0.18-0.19-0.35-0.17-0.56
			c0.01-0.19,0.14-0.38,0.38-0.57l1.03-0.81L128.38,140.82z M123.74,138.3c0.01-0.19,0.14-0.39,0.38-0.59l1.13-0.88l1,1.28
			l-1.12,0.88c-0.25,0.19-0.47,0.28-0.66,0.24c-0.21-0.04-0.38-0.15-0.53-0.34C123.79,138.71,123.73,138.52,123.74,138.3z"/>
		<polygon class="st0" points="114.21,141.89 115.25,143.6 118.55,141.6 119.36,142.94 116.55,144.65 117.55,146.31 120.37,144.59 
			121.15,145.88 117.85,147.88 118.89,149.59 123.93,146.53 119.25,138.83 		"/>
		<polygon class="st0" points="114.69,149.53 111.69,143.11 109.84,143.98 112.84,150.39 110.87,151.31 111.69,153.07 
			117.47,150.36 116.65,148.61 		"/>
		<polygon class="st0" points="107.74,152.46 105.43,145.77 103.5,146.44 105.81,153.13 103.76,153.84 104.39,155.67 110.42,153.59 
			109.79,151.76 		"/>
		<polygon class="st0" points="94.58,148.76 95.03,150.71 98.79,149.85 99.14,151.38 95.93,152.11 96.35,154 99.57,153.27 
			99.9,154.73 96.14,155.59 96.58,157.55 102.34,156.24 100.33,147.45 		"/>
		<path class="st0" d="M91.07,149.22l0.37,3.48l-0.84,0.09l-2-3.3l-2.36,0.25l2.34,3.63c-0.83,0.59-1.22,1.48-1.11,2.6
			c0.12,0.87,0.51,1.53,1.14,1.94c0.44,0.31,0.97,0.46,1.57,0.46c0.12,0,0.25-0.01,0.38-0.02l3.5-0.37L93.09,149L91.07,149.22z
			 M89.71,156.31c-0.06-0.03-0.24-0.14-0.29-0.56c-0.03-0.25,0.02-0.46,0.16-0.65c0.13-0.18,0.35-0.29,0.66-0.33l1.39-0.15
			l0.17,1.64l-1.46,0.15C90.07,156.44,89.86,156.41,89.71,156.31z"/>
		<path class="st0" d="M76.9,150.71c0.77,0.09,1.39,0.38,1.9,0.91l0.29,0.3l1.48-1.43l-0.28-0.3c-0.83-0.9-1.9-1.42-3.17-1.55
			c-2.6-0.24-3.3,1.21-3.46,2.46c-0.07,0.67,0.08,1.29,0.43,1.84c0.37,0.57,0.97,0.96,1.81,1.17c0.36,0.09,0.65,0.16,0.85,0.21
			c0.29,0.09,0.49,0.2,0.59,0.34c0.09,0.12,0.13,0.24,0.12,0.36c-0.04,0.35-0.19,0.47-0.29,0.54c-0.19,0.12-0.41,0.16-0.68,0.13
			c-0.63-0.08-1.18-0.32-1.67-0.73l-0.33-0.27l-1.29,1.58l0.29,0.27c0.73,0.67,1.64,1.07,2.71,1.21c0.11,0.01,0.22,0.02,0.32,0.02
			c0.78,0.02,1.43-0.17,1.93-0.57c0.6-0.46,0.94-1.11,1.02-1.94c0.07-0.69-0.09-1.32-0.47-1.85c-0.37-0.52-0.94-0.88-1.71-1.1
			l-1.02-0.25c-0.59-0.17-0.65-0.46-0.61-0.74C75.72,151.09,75.78,150.62,76.9,150.71z"/>
		<path class="st0" d="M69.73,150.36l-1.08,0.74l-1.12-4.05l-2.26-0.51l-2.02-0.74l-1.2,1.51l-2.25-0.82l0.05-1.93l-2.03-0.74
			l-0.11,9.56l1.5,0.55l6.02-7.31l1.73,5.77l-3.64,2.95l2.43,0.55l3.36-2.76l-0.76,3.35l1.99,0.45l2-8.79l-1.99-0.45L69.73,150.36z
			 M60.8,148.91l-1.17,1.5l0.08-1.9L60.8,148.91z"/>
		<polygon class="st0" points="54.63,142.2 51.54,148.57 49.59,147.62 48.74,149.37 54.49,152.15 55.33,150.41 53.38,149.46 
			56.46,143.09 		"/>
		<polygon class="st0" points="46.62,137.52 45.56,139.21 48.83,141.27 47.99,142.59 45.2,140.84 44.18,142.49 46.97,144.24 
			46.17,145.51 42.9,143.46 41.83,145.15 46.83,148.29 51.62,140.65 		"/>
		<polygon class="st0" points="36.08,134.88 38.42,130.66 37.21,129.52 29.43,134.59 30.99,136.05 34.76,133.46 32.55,137.52 
			33.65,138.56 37.58,136.12 35.21,140.03 36.76,141.5 41.36,133.44 40.16,132.31 		"/>
		<path class="st0" d="M31.5,130.03c0.75-0.6,1.24-1.02,1.48-1.29c0.14-0.15,0.25-0.29,0.33-0.43c0.06-0.11,0.13-0.23,0.2-0.38
			c0.2-0.45,0.29-0.97,0.25-1.54c-0.03-0.6-0.26-1.18-0.7-1.76c-0.46-0.55-0.98-0.91-1.55-1.07c-0.55-0.17-1.07-0.2-1.5-0.1
			c-0.3,0.02-0.63,0.14-0.97,0.33c-0.31,0.18-0.83,0.56-1.58,1.16c-0.76,0.61-1.25,1.03-1.5,1.29c-0.26,0.28-0.44,0.57-0.51,0.8
			c-0.21,0.44-0.3,0.96-0.27,1.54c0.03,0.6,0.27,1.19,0.71,1.76c0.45,0.55,0.96,0.91,1.53,1.07c0.33,0.1,0.65,0.15,0.95,0.16
			c0.2,0,0.4-0.01,0.58-0.05c0.29-0.04,0.59-0.14,0.93-0.33C30.2,131.02,30.73,130.64,31.5,130.03z M31.67,126.44
			c0.03,0.17,0.03,0.32-0.01,0.49c-0.03,0.16-0.11,0.31-0.25,0.47c-0.12,0.14-0.42,0.43-1.17,1.03c-0.61,0.48-1.04,0.79-1.28,0.92
			c-0.18,0.1-0.35,0.15-0.54,0.13c-0.13,0.01-0.3-0.03-0.46-0.09c-0.15-0.07-0.3-0.18-0.42-0.33c-0.13-0.18-0.22-0.35-0.25-0.51
			c-0.03-0.17-0.02-0.31,0.03-0.49c0.03-0.16,0.11-0.32,0.24-0.48c0.17-0.2,0.57-0.55,1.18-1.03c0.61-0.49,1.04-0.79,1.26-0.91
			c0.19-0.09,0.36-0.14,0.55-0.13c0.01,0,0.01,0,0.02,0c0.15-0.01,0.28,0.02,0.44,0.09c0.16,0.06,0.3,0.17,0.43,0.34
			C31.57,126.09,31.64,126.25,31.67,126.44z"/>
		<path class="st0" d="M28.92,118.94l-2.99,1.82l-0.44-0.73l2.13-3.22l-1.24-2.03l-2.28,3.67c-0.89-0.5-1.86-0.47-2.83,0.11
			c-0.74,0.48-1.17,1.11-1.27,1.86c-0.11,0.64,0.04,1.3,0.44,1.95l1.83,3l7.7-4.69L28.92,118.94z M22.87,122.62l-0.76-1.25
			c-0.15-0.24-0.21-0.44-0.18-0.63c0.01-0.07,0.02-0.27,0.38-0.5c0.17-0.1,0.33-0.15,0.5-0.15c0.05,0,0.1,0.01,0.15,0.02
			c0.22,0.04,0.41,0.19,0.58,0.46l0.73,1.2L22.87,122.62z"/>
		<polygon class="st0" points="23.49,108.43 21.66,109.26 23.27,112.77 16.89,115.68 17.73,117.54 25.94,113.8 		"/>
		<path class="st0" d="M22.02,104.11c-0.2-0.64-0.53-1.15-0.96-1.5c-0.42-0.36-0.88-0.61-1.38-0.72c-0.18-0.04-0.36-0.07-0.53-0.09
			c-0.19-0.02-0.38-0.01-0.58,0.02c-0.38,0.05-0.99,0.21-1.85,0.49c-0.81,0.26-1.36,0.45-1.7,0.61c-0.35,0.17-0.67,0.42-0.94,0.74
			c-0.81,0.9-1.03,1.95-0.67,3.12l0.97,3.04l8.6-2.73L22.02,104.11z M15.66,107.25l-0.31-0.98c-0.15-0.44-0.1-0.81,0.19-1.2
			c0.09-0.14,0.24-0.27,0.43-0.36c0.27-0.12,0.74-0.28,1.4-0.49c0.84-0.27,1.22-0.36,1.38-0.39c0.09-0.02,0.17-0.02,0.24-0.02
			c0.1,0,0.2,0.02,0.29,0.05c0.41,0.11,0.67,0.4,0.83,0.9l0.31,0.97L15.66,107.25z"/>
		<path class="st0" d="M19.07,93.22c-0.11-0.73-0.46-1.31-1.03-1.72c-0.56-0.43-1.25-0.58-2.07-0.47c-0.49,0.07-0.94,0.26-1.34,0.58
			c-0.19,0.17-0.35,0.36-0.46,0.58c-0.01,0-0.01-0.01-0.01-0.01c-0.18-0.16-0.38-0.29-0.6-0.38c-0.39-0.14-0.8-0.17-1.19-0.11
			c-0.76,0.11-1.35,0.44-1.76,0.98c-0.4,0.53-0.55,1.25-0.42,2.14l0.51,3.45l8.92-1.32L19.07,93.22z M15.64,93.35
			c0.14-0.16,0.32-0.26,0.55-0.29c0.05-0.01,0.1-0.01,0.15-0.01c0.16,0,0.31,0.04,0.46,0.13c0.16,0.1,0.27,0.31,0.32,0.62l0.21,1.42
			l-1.61,0.24l-0.21-1.41C15.48,93.72,15.52,93.49,15.64,93.35z M12.22,93.98c0.13-0.16,0.3-0.25,0.52-0.28
			c0.05-0.01,0.1-0.01,0.14-0.01c0.16,0,0.3,0.04,0.43,0.14c0.16,0.1,0.26,0.3,0.3,0.61l0.19,1.3l-1.5,0.22l-0.19-1.29
			C12.08,94.34,12.12,94.11,12.22,93.98z"/>
		<polygon class="st0" points="18.4,83.13 16.39,83.18 16.51,87.04 14.94,87.09 14.85,83.8 12.91,83.85 13,87.15 11.5,87.19 
			11.39,83.33 9.39,83.39 9.56,89.28 18.57,89.02 		"/>
		<polygon class="st0" points="11.53,79.72 18.58,80.29 18.75,78.26 11.69,77.69 11.87,75.53 9.93,75.37 9.42,81.73 11.35,81.89 		
			"/>
		<polygon class="st0" points="12.41,72.26 19.37,73.57 19.74,71.57 12.79,70.26 13.19,68.12 11.28,67.77 10.11,74.04 12.01,74.4 		
			"/>
		<polygon class="st0" points="22.15,62.67 20.24,62.08 19.11,65.78 17.61,65.32 18.57,62.17 16.72,61.6 15.76,64.75 14.32,64.32 
			15.45,60.62 13.53,60.04 11.81,65.68 20.44,68.31 		"/>
		<path class="st0" d="M23.5,59.41L20.3,58l0.34-0.78l3.86-0.09l0.96-2.17l-4.31,0.23c-0.1-1.02-0.68-1.79-1.7-2.26
			c-0.82-0.33-1.58-0.32-2.25,0.03c-0.59,0.28-1.05,0.78-1.35,1.47l-1.42,3.22l8.25,3.64L23.5,59.41z M17.02,56.55l0.59-1.34
			c0.11-0.25,0.25-0.43,0.41-0.51c0.06-0.03,0.24-0.14,0.63,0.03c0.23,0.1,0.38,0.25,0.48,0.46c0.1,0.2,0.08,0.45-0.04,0.74
			l-0.56,1.28L17.02,56.55z"/>
	</g>
	<circle class="st0" cx="22.56" cy="50.27" r="1.35"/>
	<circle class="st0" cx="143.79" cy="50.04" r="1.35"/>
	<circle class="st0" cx="83.53" cy="154.15" r="1.35"/>
</g>
</svg>
