<svg xmlns="http://www.w3.org/2000/svg" width="86.965" height="103.977" viewBox="0 0 86.965 103.977"><defs><style>.a{fill:#122436;}.b{fill:#fff;}.c{fill:#7fb432;}.d{fill:#ffcc34;}</style></defs><g transform="translate(901 -22543)"><g transform="translate(-901 22543)"><g transform="translate(0.147 9.841)"><path class="a" d="M43.207,109.2l-2.458-.3q-.151,1.249-.23,2.518l2.471.154Q43.065,110.381,43.207,109.2Z" transform="translate(-40.436 -70.745)"/><path class="a" d="M45.741,141.028l-2.391.643q.33,1.226.728,2.422l2.349-.782Q46.052,142.184,45.741,141.028Z" transform="translate(-41.865 -86.96)"/><path class="a" d="M42.912,122.466q-.076-1.183-.085-2.385l-2.476.017q.009,1.272.09,2.527l2.471-.159Z" transform="translate(-40.351 -76.385)"/><path class="a" d="M45.509,114.3Z" transform="translate(-42.955 -73.468)"/><path class="a" d="M49.564,145.639h0Z" transform="translate(-45.002 -89.287)"/><path class="a" d="M43.592,130.648l-2.454.33q.17,1.26.411,2.5l2.43-.473Q43.752,131.836,43.592,130.648Z" transform="translate(-40.748 -81.72)"/><path class="a" d="M49.249,151.053,46.961,152q.484,1.17,1.032,2.3l2.229-1.078Q49.705,152.156,49.249,151.053Z" transform="translate(-43.688 -92.02)"/><path class="a" d="M58.1,170.87q.764,1.009,1.585,1.97l1.884-1.607h0q-.773-.907-1.494-1.858Z" transform="translate(-49.309 -101.27)"/><path class="a" d="M58.755,164.651Z" transform="translate(-49.642 -98.885)"/><path class="a" d="M54.051,160.548,51.9,161.779q.629,1.1,1.32,2.155L55.3,162.58Q54.645,161.584,54.051,160.548Z" transform="translate(-46.183 -96.814)"/><path class="a" d="M47.107,90.33q.376-1.138.816-2.245l-2.3-.914q-.466,1.174-.866,2.382l2.351.776Z" transform="translate(-42.575 -59.772)"/><path class="a" d="M204.592,87.359q.449,1.1.835,2.233l2.344-.8q-.409-1.2-.886-2.369l-2.293.935Z" transform="translate(-123.263 -59.395)"/><path class="a" d="M199.978,77.55q.587,1.035,1.114,2.106l2.221-1.093q-.559-1.136-1.181-2.233l-2.154,1.221Z" transform="translate(-120.934 -54.298)"/><path class="a" d="M210.224,110.79l2.469-.176q-.091-1.268-.253-2.516l-2.455.319Q210.138,109.593,210.224,110.79Z" transform="translate(-125.985 -70.336)"/><path class="a" d="M207.949,97.709q.3,1.148.54,2.322l2.427-.49q-.252-1.245-.573-2.464l-2.394.631Z" transform="translate(-124.958 -64.773)"/><path class="a" d="M58.672,74.481h0Z" transform="translate(-49.6 -53.365)"/><path class="a" d="M44.879,98.476l-2.4-.609q-.31,1.221-.55,2.469l2.431.467Q44.586,99.628,44.879,98.476Z" transform="translate(-41.148 -65.171)"/><path class="a" d="M80.758,187.339h0Z" transform="translate(-60.749 -110.338)"/><path class="a" d="M46.838,103.8Z" transform="translate(-43.626 -68.165)"/><path class="a" d="M56.555,52.955c.118-.181.241-.359.361-.538.134-.2.269-.4.407-.6.1-.136.192-.269.289-.4q1-1.4,2.114-2.706.723-.849,1.493-1.657,1.084-1.14,2.254-2.194c.528-.477,1.068-.943,1.62-1.392q1.277-1.038,2.637-1.971.229-.157.46-.312c.184-.123.37-.244.557-.364.156-.1.313-.2.471-.3q1.406-.879,2.887-1.646c.167-.087.336-.171.5-.255.2-.1.391-.2.588-.29q.259-.125.521-.245,1.509-.7,3.08-1.278c.168-.062.338-.12.507-.179.218-.077.436-.154.656-.227.175-.058.351-.113.527-.169,1.071-.34,2.16-.641,3.267-.893.13-.03.261-.055.392-.084.273-.059.547-.119.823-.173.161-.032.324-.059.486-.089,1.134-.208,2.284-.374,3.45-.486.07-.007.14-.011.21-.017.347-.032.694-.06,1.043-.084.149-.01.3-.016.447-.024.757-.042,1.519-.067,2.287-.067q.647,0,1.289.021c.128,0,.255.012.382.017.295.012.589.024.882.042.162.01.323.024.484.036q1.759.129,3.475.4c.141.022.28.049.42.073.27.046.54.092.808.143.165.032.328.067.493.1q1.7.347,3.344.827h0l.084.026q.547.163,1.089.339c.145.048.287.1.43.148a40.583,40.583,0,0,1,3.871,1.542c.162.074.325.147.486.223.225.107.448.219.67.33.143.071.287.139.428.212q1.484.761,2.894,1.639c.161.1.322.2.482.3.186.119.37.241.554.362.155.1.31.2.464.309q1.317.9,2.557,1.9.805.646,1.577,1.332,1.168,1.038,2.257,2.16.729.755,1.419,1.547c.676.774,1.326,1.571,1.943,2.394q.677.9,1.3,1.846c.036.053.074.106.109.16l2.067-1.363h0l-.06-.088h0c-.151-.227-.306-.45-.461-.673-.08-.116-.158-.235-.24-.35q-.348-.493-.709-.976-.934-1.249-1.955-2.425l0,0c-.037-.043-.077-.082-.114-.124q-.748-.857-1.537-1.676l-.058-.063,0,0q-1.058-1.088-2.191-2.1l0,0c-.079-.071-.161-.139-.241-.209q-.232-.205-.467-.406-.257-.22-.517-.436c-.157-.131-.315-.26-.474-.389-.078-.063-.154-.129-.233-.191l0,0q-1.187-.944-2.439-1.807l0,0-.147-.1c-.158-.107-.318-.212-.477-.318-.2-.134-.4-.267-.609-.4-.159-.1-.321-.2-.482-.3-.138-.085-.273-.174-.412-.257l0,0q-1.3-.785-2.65-1.484h0l-.039-.019c-.1-.051-.2-.1-.3-.15-.286-.144-.572-.286-.862-.424-.141-.067-.284-.13-.425-.2-.219-.1-.437-.2-.659-.3v0q-1.387-.611-2.822-1.128v0c-.263-.095-.53-.183-.8-.273-.119-.04-.236-.083-.355-.122q-.623-.2-1.254-.391h0q-1.449-.426-2.941-.75v0c-.208-.046-.417-.085-.626-.128-.166-.034-.332-.07-.5-.1-.293-.056-.588-.106-.883-.156-.141-.024-.28-.051-.421-.073l-.056-.01h0q-1.489-.236-3.012-.367v0c-.21-.018-.422-.031-.633-.046-.165-.012-.33-.026-.5-.036-.318-.02-.638-.033-.959-.046-.128,0-.255-.013-.383-.017l-.053,0h0c-.437-.013-.875-.021-1.315-.021-.576,0-1.148.015-1.718.037v0c-.239.009-.476.025-.714.038-.154.008-.309.014-.463.025-.387.025-.773.057-1.157.093l-.17.014h-.018c-1.014.1-2.016.234-3.008.4v0c-.218.037-.435.08-.652.119-.164.03-.33.058-.493.09-.308.06-.613.126-.918.193-.123.027-.247.051-.37.079l-.048.01h0c-.991.227-1.968.491-2.932.784v0c-.173.053-.345.111-.517.166s-.348.109-.521.167c-.251.084-.5.171-.75.259-.161.057-.323.112-.483.171l-.127.045v0q-1.427.527-2.8,1.153l0,0c-.126.057-.249.118-.374.176q-.255.118-.509.239c-.223.107-.445.217-.666.327-.167.084-.334.167-.5.253-.074.038-.149.074-.222.112l0,0q-1.346.706-2.635,1.5l0,0c-.075.046-.148.1-.222.142-.163.1-.325.206-.486.31-.2.13-.4.26-.6.393q-.242.162-.482.327c-.106.073-.215.144-.321.218l0,0q-1.243.871-2.424,1.824v0c-.017.014-.033.029-.05.043q-.891.724-1.741,1.5c-.041.037-.086.071-.127.109l0,0Q60.55,44.171,59.5,45.267h0c-.016.016-.03.034-.046.051a43.547,43.547,0,0,0-3.53,4.211l0,0c-.1.132-.19.267-.286.4-.118.164-.237.327-.352.493-.136.2-.269.392-.4.589-.083.123-.169.244-.251.368h0c-.051.077-.1.152-.154.228Z" transform="translate(-47.483 -31.839)"/><path class="a" d="M52.3,78.211l-2.164-1.2q-.614,1.105-1.164,2.249L51.2,80.331Q51.718,79.253,52.3,78.211Z" transform="translate(-44.701 -54.642)"/><path class="a" d="M67.2,177.392l-1.767,1.734q.885.9,1.823,1.753l1.664-1.833h0Q68.035,178.244,67.2,177.392Z" transform="translate(-53.012 -105.317)"/><path class="a" d="M197.565,162.118l2.082,1.34q.685-1.063,1.308-2.167l-2.156-1.217Q198.21,161.115,197.565,162.118Z" transform="translate(-119.715 -96.574)"/><path class="a" d="M192.754,168.95q-.715.957-1.484,1.869l1.894,1.595q.815-.967,1.573-1.982l-1.983-1.483Z" transform="translate(-116.538 -101.055)"/><path class="a" d="M175.706,185.57l1.43,2.021q1.032-.731,2.02-1.519l-1.545-1.935Q176.681,184.881,175.706,185.57Z" transform="translate(-108.681 -108.722)"/><path class="a" d="M183.943,178.679l1.676,1.823q.931-.856,1.811-1.764l-1.778-1.723Q184.821,177.871,183.943,178.679Z" transform="translate(-112.839 -105.126)"/><path class="a" d="M200.055,160.074Z" transform="translate(-120.972 -96.574)"/><path class="a" d="M207.313,140.469q-.3,1.158-.67,2.288l2.355.766q.39-1.2.711-2.427l-2.4-.626Z" transform="translate(-124.298 -86.677)"/><path class="a" d="M213.084,119.3l-2.476.005v.094q0,1.2-.068,2.385l2.472.142q.072-1.255.072-2.526Z" transform="translate(-126.265 -75.992)"/><path class="a" d="M209.261,132.429l2.434.456q.232-1.237.393-2.5l-2.456-.313Q209.48,131.263,209.261,132.429Z" transform="translate(-125.62 -81.429)"/><path class="a" d="M168.766,190.2q-1.017.618-2.071,1.178l1.16,2.187q1.118-.593,2.2-1.248l-1.285-2.116Z" transform="translate(-104.132 -111.784)"/><path class="a" d="M202.72,152.711l2.236,1.063q.542-1.142,1.02-2.319l-2.295-.929Q203.232,151.635,202.72,152.711Z" transform="translate(-122.318 -91.754)"/><path class="a" d="M204.661,150.525Z" transform="translate(-123.298 -91.754)"/><path class="a" d="M114.961,201.2l-.376,2.447q1.243.191,2.51.311l.233-2.465h0Q116.134,201.385,114.961,201.2Z" transform="translate(-77.826 -117.338)"/><path class="a" d="M103.617,201.3q1.211.35,2.45.631l.547-2.415q-1.168-.264-2.309-.595Z" transform="translate(-72.289 -116.188)"/><path class="a" d="M99.515,197.125Z" transform="translate(-70.218 -115.278)"/><path class="a" d="M73.792,186.411q.993.783,2.032,1.508l1.417-2.03q-.98-.683-1.916-1.422Z" transform="translate(-57.233 -108.888)"/><path class="a" d="M83.044,192.6q1.084.649,2.21,1.236l1.146-2.195h0q-1.06-.553-2.083-1.166Z" transform="translate(-61.903 -111.924)"/><path class="a" d="M93.042,197.6q1.159.5,2.352.943l.854-2.324q-1.125-.413-2.217-.889Z" transform="translate(-66.95 -114.372)"/><path class="a" d="M128.217,202.125q-.666.022-1.337.021-.527,0-1.05-.013l-.062,2.475q.554.014,1.112.014.711,0,1.416-.023l-.079-2.474Z" transform="translate(-83.471 -117.802)"/><path class="a" d="M149.229,198.762q-1.139.338-2.3.611l.564,2.411q1.237-.289,2.445-.648l-.7-2.373Z" transform="translate(-94.151 -116.105)"/><path class="a" d="M141.255,201.114Z" transform="translate(-91.289 -117.292)"/><path class="a" d="M159.257,195.1q-1.085.481-2.2.9l.87,2.318q1.185-.445,2.337-.956l-1-2.263Z" transform="translate(-99.265 -114.258)"/><path class="a" d="M136.48,201.424l.251,2.463q1.264-.128,2.507-.329l-.394-2.444Q137.673,201.3,136.48,201.424Z" transform="translate(-88.879 -117.292)"/></g><g transform="translate(0 71.705)"><path class="b" d="M120.96,171.482a7.163,7.163,0,0,0-8.79-9.5l-20.718,6.492.041-.216a5.931,5.931,0,0,0-4.394-6.835L70.52,157.282a5.91,5.91,0,0,0-3.673.258l-11,4.461v-3.282A1.85,1.85,0,0,0,54,156.871H42a1.85,1.85,0,0,0-1.848,1.848v24.163A1.85,1.85,0,0,0,42,184.73H54a1.85,1.85,0,0,0,1.848-1.848v-.866l.163.041L83.6,188.871a6.04,6.04,0,0,0,3.828-.334l29.779-13.168A7.121,7.121,0,0,0,120.96,171.482Z" transform="translate(-40.106 -156.822)"/><rect class="c" width="13.312" height="20.133" transform="translate(1.238 6.588)"/><path class="b" d="M53.449,199.686h2.418V197.21H53.449Zm-5.447,0h2.476V197.21H48Zm-5.447,0h2.476V197.21H42.555Z" transform="translate(-41.317 -177.186)"/><path class="d" d="M69.438,176.681l13.238-5.808a4.637,4.637,0,0,1,2.79-.3l19.688,4.021a5.585,5.585,0,0,1-6.5,3.982l-6.019-.907.352,1.313a7,7,0,0,0,4.721,4.885,6.879,6.879,0,0,0,4.3-.1l32.077-11.358s3.554,4.574-2.582,8.736-31.279,13.574-31.279,13.574L70.353,187.6Z" transform="translate(-54.888 -163.693)"/><path class="a" d="M120.926,166.012a7.207,7.207,0,0,0-8.822-4.126l-20.64,6.468a5.98,5.98,0,0,0-4.405-7.027L70.48,157.184a5.992,5.992,0,0,0-3.7.26l-10.934,4.432V158.67a1.9,1.9,0,0,0-1.9-1.9H41.953a1.9,1.9,0,0,0-1.9,1.9v24.163a1.9,1.9,0,0,0,1.9,1.9H53.945a1.9,1.9,0,0,0,1.9-1.9v-.8l27.7,6.838a5.992,5.992,0,0,0,3.859-.337l29.779-13.168a7.208,7.208,0,0,0,3.748-9.352Zm-78.395-6.764H53.367v23.007H42.531Zm75.718,12.076a4.7,4.7,0,0,1-2.073,1.776L86.4,186.268a3.516,3.516,0,0,1-2.265.2l-28.29-6.985V164.549l11.864-4.81a3.511,3.511,0,0,1,2.173-.153l16.579,4.143a3.508,3.508,0,0,1,2.657,3.4,3.5,3.5,0,0,1-4.029,3.469l-7.1-1.069-.369,2.448,7.1,1.069a5.977,5.977,0,0,0,4.48-1.131,5.919,5.919,0,0,0,.48-.406l23.166-7.259a4.736,4.736,0,0,1,5.4,7.076Z" transform="translate(-40.055 -156.772)"/><path class="a" d="M53.82,165.765a2.136,2.136,0,1,0,2.136,2.136A2.136,2.136,0,0,0,53.82,165.765Z" transform="translate(-45.926 -161.312)"/></g><g transform="translate(15.147 20.537)"><ellipse class="d" cx="21.738" cy="21.739" rx="21.738" ry="21.739" transform="translate(0 16.639) rotate(-22.5)"/><path class="b" d="M105.839,70.366A21.741,21.741,0,0,1,127.51,90.372q.068-.858.068-1.733a21.738,21.738,0,1,0-43.477,0q0,.875.068,1.733A21.74,21.74,0,0,1,105.839,70.366Z" transform="translate(-77.437 -60.235)"/><path class="d" d="M127.724,96.337A14.187,14.187,0,1,1,113.537,82.15,14.187,14.187,0,0,1,127.724,96.337Z" transform="translate(-85.135 -67.934)"/><path class="b" d="M113.537,85.121a14.189,14.189,0,0,1,14.11,12.7,14.187,14.187,0,1,0-28.22,0A14.189,14.189,0,0,1,113.537,85.121Z" transform="translate(-85.135 -67.934)"/><g transform="translate(5.425 5.427)"><path class="a" d="M104.576,64.4a22.977,22.977,0,1,0,22.976,22.977A22.977,22.977,0,0,0,104.576,64.4Zm14.5,37.473a20.5,20.5,0,1,1,6-14.5A20.433,20.433,0,0,1,119.073,101.873Z" transform="translate(-81.6 -64.4)"/><path class="a" d="M112.275,79.65A15.425,15.425,0,1,0,127.7,95.075,15.425,15.425,0,0,0,112.275,79.65Zm9.156,24.582a12.95,12.95,0,1,1,3.793-9.156A12.9,12.9,0,0,1,121.431,104.232Z" transform="translate(-89.298 -72.098)"/></g></g><g transform="translate(33.038 0)"><path class="c" d="M109.273,20.207l9.273-5.354,9.273,5.354V30.914l-9.273,5.354-9.273-5.354Z" transform="translate(-108.035 -13.423)"/><path class="a" d="M117.284,11.966l-10.511,6.068V30.172l10.511,6.068L127.8,30.172V18.034Zm8.035,16.776-8.035,4.639-8.035-4.639V19.464l8.035-4.638,8.035,4.639Z" transform="translate(-106.773 -11.966)"/><path class="b" d="M121.058,37.517,117.1,33.562l1.786-1.786,2.169,2.169L126.005,29l1.786,1.786Z" transform="translate(-111.987 -20.564)"/></g></g><g transform="translate(-861.659 22582.094) rotate(45)"><g transform="translate(0 1.612)"><path class="b" d="M20.732,2.764a2.764,2.764,0,0,1-2.764,2.764H2.764A2.764,2.764,0,0,1,0,2.764H0A2.764,2.764,0,0,1,2.764,0h15.2a2.764,2.764,0,0,1,2.764,2.764Z"/></g><g transform="translate(3.686 0)"><path class="b" d="M2.3.921a.461.461,0,0,1-.461.461H.461A.461.461,0,0,1,0,.921V.461A.461.461,0,0,1,.461,0H1.843A.461.461,0,0,1,2.3.461Z"/></g><g transform="translate(14.743 0)"><path class="b" d="M2.3.921a.461.461,0,0,1-.461.461H.461A.461.461,0,0,1,0,.921V.461A.461.461,0,0,1,.461,0H1.843A.461.461,0,0,1,2.3.461Z" transform="translate(0)"/></g><g transform="translate(3.686 7.371)"><path class="b" d="M2.3.921a.461.461,0,0,1-.461.461H.461A.461.461,0,0,1,0,.921V.461A.461.461,0,0,1,.461,0H1.843A.461.461,0,0,1,2.3.461Z"/></g><g transform="translate(14.743 7.371)"><path class="b" d="M2.3.921a.461.461,0,0,1-.461.461H.461A.461.461,0,0,1,0,.921V.461A.461.461,0,0,1,.461,0H1.843A.461.461,0,0,1,2.3.461Z" transform="translate(0 0)"/></g></g></g></svg>