<svg xmlns="http://www.w3.org/2000/svg" width="82.678" height="100.449" viewBox="0 0 82.678 100.449"><defs><style>.a{fill:#7fb432;}.b{fill:#fff;}.c{fill:#4ea3da;}.d{fill:#122436;}.e{fill:#ffcc34;}</style></defs><g transform="translate(1860 -22376)"><g transform="translate(-1845.479 22376)"><g transform="translate(1.171 19.616)"><path class="a" d="M35.044,174.576c-8.728-3.614-14.512-9.912-14.512-17.082a31.6,31.6,0,0,0,31.594,31.594C44.956,189.089,38.659,183.3,35.044,174.576Z" transform="translate(-20.532 -125.9)"/><g transform="translate(0 31.594)"><path class="b" d="M86.551,224.909q.334.017.671.017C87,224.926,86.775,224.914,86.551,224.909Z" transform="translate(-55.627 -193.331)"/><path class="b" d="M20.549,158.165c0-.224-.017-.446-.017-.671Q20.532,157.831,20.549,158.165Z" transform="translate(-20.532 -157.494)"/><path class="b" d="M35.063,179.085a30.422,30.422,0,0,0,5.078,8.4,31.477,31.477,0,0,0,11.334,2.35c-6.891-.348-12.91-6.041-16.412-14.5-8.454-3.5-14.147-9.52-14.5-16.412a31.508,31.508,0,0,0,1.777,9.829C24.7,173.039,29.219,176.664,35.063,179.085Z" transform="translate(-20.551 -158.255)"/></g><path class="a" d="M105.065,174.576c-3.614,8.728-9.912,14.512-17.082,14.512a31.6,31.6,0,0,0,31.594-31.594C119.577,164.664,113.793,170.962,105.065,174.576Z" transform="translate(-56.389 -125.9)"/><g transform="translate(31.594 31.594)"><path class="b" d="M155.4,158.165q.017-.334.017-.671C155.415,157.719,155.4,157.941,155.4,158.165Z" transform="translate(-123.82 -157.494)"/><path class="b" d="M88.654,224.909c-.224,0-.446.017-.671.017C88.207,224.926,88.431,224.92,88.654,224.909Z" transform="translate(-87.983 -193.331)"/><path class="b" d="M105.827,179.085c5.845-2.421,10.367-6.046,12.718-10.329a31.5,31.5,0,0,0,1.777-9.829c-.348,6.891-6.041,12.91-14.5,16.412-3.5,8.454-9.52,14.147-16.411,14.5a31.479,31.479,0,0,0,11.334-2.35A30.443,30.443,0,0,0,105.827,179.085Z" transform="translate(-88.745 -158.256)"/></g><path class="a" d="M35.044,104.556c3.614-8.727,9.912-14.512,17.082-14.512a31.6,31.6,0,0,0-31.594,31.594C20.532,114.468,26.317,108.17,35.044,104.556Z" transform="translate(-20.532 -90.044)"/><g transform="translate(0)"><path class="b" d="M86.551,90.06c.224,0,.446-.017.671-.017Q86.885,90.043,86.551,90.06Z" transform="translate(-55.627 -90.043)"/><path class="b" d="M20.549,156.062q-.017.334-.017.671C20.532,156.508,20.544,156.286,20.549,156.062Z" transform="translate(-20.532 -125.138)"/><path class="b" d="M40.141,96.177c3.194-3.651,7.1-5.884,11.334-6.1a31.582,31.582,0,0,0-30.907,30.907,14.049,14.049,0,0,1,1.777-6.082A31.681,31.681,0,0,1,40.141,96.177Z" transform="translate(-20.551 -90.063)"/></g><path class="a" d="M105.065,104.556c8.728,3.614,14.512,9.912,14.512,17.082A31.6,31.6,0,0,0,87.983,90.044C95.153,90.044,101.451,95.828,105.065,104.556Z" transform="translate(-56.389 -90.044)"/><g transform="translate(31.594)"><path class="b" d="M155.4,156.062c0,.224.017.446.017.671Q155.415,156.4,155.4,156.062Z" transform="translate(-123.82 -125.138)"/><path class="b" d="M100.749,96.176a31.68,31.68,0,0,1,17.8,18.727,14.053,14.053,0,0,1,1.777,6.082A31.582,31.582,0,0,0,89.415,90.078C93.649,90.293,97.554,92.525,100.749,96.176Z" transform="translate(-88.744 -90.062)"/><path class="b" d="M88.654,90.06q-.334-.017-.671-.017C88.208,90.043,88.43,90.055,88.654,90.06Z" transform="translate(-87.983 -90.043)"/></g><path class="a" d="M51.514,104.556a42.708,42.708,0,0,1,10.954-2.843c1.448-7.119,3.655-11.669,6.129-11.669C61.426,90.044,55.129,95.828,51.514,104.556Z" transform="translate(-37.002 -90.044)"/><path class="b" d="M64.59,94.407c1.174-2.772,2.544-4.364,4.006-4.364-7.17,0-13.468,5.785-17.082,14.512.755-.312,1.533-.6,2.329-.874C56.672,99.03,60.4,95.714,64.59,94.407Z" transform="translate(-37.002 -90.043)"/><path class="a" d="M105.066,193.963a42.71,42.71,0,0,1-10.953,2.843c-1.448,7.119-3.655,11.669-6.129,11.669C95.154,208.476,101.451,202.691,105.066,193.963Z" transform="translate(-56.389 -145.286)"/><path class="b" d="M94.112,200.553a43.845,43.845,0,0,0,8.624-1.97,33.8,33.8,0,0,0,2.329-4.621,42.71,42.71,0,0,1-10.953,2.843c-1.448,7.119-3.655,11.669-6.129,11.669a13.428,13.428,0,0,0,4.006-.617A39.264,39.264,0,0,0,94.112,200.553Z" transform="translate(-56.389 -145.286)"/><path class="a" d="M94.111,101.712a42.709,42.709,0,0,1,10.953,2.843c-3.614-8.727-9.912-14.512-17.082-14.512C90.456,90.043,92.663,94.594,94.111,101.712Z" transform="translate(-56.388 -90.043)"/><path class="b" d="M91.989,94.407c4.193,1.306,7.918,4.622,10.746,9.274.8.271,1.575.561,2.329.874-3.614-8.727-9.912-14.512-17.082-14.512C89.445,90.043,90.814,91.635,91.989,94.407Z" transform="translate(-56.388 -90.043)"/><path class="c" d="M62.468,196.806a42.718,42.718,0,0,1-10.954-2.843c3.614,8.728,9.912,14.512,17.082,14.512C66.123,208.476,63.916,203.925,62.468,196.806Z" transform="translate(-37.002 -145.286)"/><path class="b" d="M62.468,200.553a39.3,39.3,0,0,0,2.122,7.3,13.413,13.413,0,0,0,4.006.617c-2.473,0-4.68-4.55-6.129-11.669a42.718,42.718,0,0,1-10.954-2.843,33.8,33.8,0,0,0,2.329,4.621A43.859,43.859,0,0,0,62.468,200.553Z" transform="translate(-37.002 -145.286)"/><path class="a" d="M74.9,101.712a48.91,48.91,0,0,1,12.257,0c-1.448-7.119-3.655-11.669-6.129-11.669S76.347,94.594,74.9,101.712Z" transform="translate(-49.433 -90.043)"/><path class="b" d="M81.028,93.79c1.992,0,3.81,2.952,5.2,7.819.31.033.622.064.929.1-1.448-7.119-3.655-11.669-6.129-11.669s-4.68,4.55-6.129,11.669c.307-.039.619-.07.929-.1C77.217,96.743,79.036,93.79,81.028,93.79Z" transform="translate(-49.433 -90.043)"/><path class="c" d="M87.156,200.033a48.909,48.909,0,0,1-12.257,0c1.448,7.119,3.655,11.669,6.129,11.669S85.708,207.152,87.156,200.033Z" transform="translate(-49.433 -148.513)"/><path class="b" d="M81.028,204.166a48.928,48.928,0,0,0,5.2-.282c.336-1.177.647-2.464.929-3.85a48.909,48.909,0,0,1-12.257,0c.282,1.386.593,2.673.929,3.85A48.928,48.928,0,0,0,81.028,204.166Z" transform="translate(-49.433 -148.514)"/><path class="a" d="M124.452,121.026A42.713,42.713,0,0,1,127.3,131.98c7.119,1.448,11.669,3.655,11.669,6.129C138.964,130.938,133.18,124.64,124.452,121.026Z" transform="translate(-75.775 -106.513)"/><path class="b" d="M137.491,135.72a3.193,3.193,0,0,1,1.473,2.387c0-7.17-5.785-13.468-14.512-17.082a39.8,39.8,0,0,1,1.52,4.419C131.348,127.966,135.437,131.552,137.491,135.72Z" transform="translate(-75.775 -106.513)"/><path class="a" d="M127.3,163.624a42.718,42.718,0,0,1-2.843,10.954c8.728-3.614,14.512-9.912,14.512-17.082C138.964,159.968,134.414,162.175,127.3,163.624Z" transform="translate(-75.775 -125.9)"/><path class="b" d="M127.3,167.371c4.723-.961,8.313-2.256,10.2-3.741a13.788,13.788,0,0,0,1.473-6.135c0,2.473-4.55,4.68-11.669,6.129a42.718,42.718,0,0,1-2.843,10.954q.776-.322,1.52-.672A44.724,44.724,0,0,0,127.3,167.371Z" transform="translate(-75.775 -125.9)"/><path class="a" d="M35.044,174.576A42.713,42.713,0,0,1,32.2,163.623c-7.119-1.448-11.669-3.655-11.669-6.129C20.532,164.664,26.317,170.962,35.044,174.576Z" transform="translate(-20.532 -125.9)"/><path class="b" d="M32.2,167.371a44.726,44.726,0,0,0,1.323,6.535q.745.349,1.52.672A42.713,42.713,0,0,1,32.2,163.624c-7.119-1.448-11.669-3.655-11.669-6.129a13.787,13.787,0,0,0,1.473,6.135C23.888,165.115,27.479,166.41,32.2,167.371Z" transform="translate(-20.533 -125.9)"/><path class="a" d="M32.2,131.979a42.718,42.718,0,0,1,2.843-10.954c-8.728,3.614-14.512,9.912-14.512,17.082C20.532,135.634,25.082,133.427,32.2,131.979Z" transform="translate(-20.532 -106.513)"/><path class="b" d="M22.005,135.72c2.054-4.168,6.144-7.754,11.52-10.275a39.8,39.8,0,0,1,1.52-4.419c-8.728,3.614-14.512,9.912-14.512,17.082A3.189,3.189,0,0,1,22.005,135.72Z" transform="translate(-20.533 -106.513)"/><path class="a" d="M45.444,170.579a42.718,42.718,0,0,0,2.843,10.954,42.708,42.708,0,0,0,10.954,2.843,90.84,90.84,0,0,1-1.534-12.262A90.979,90.979,0,0,1,45.444,170.579Z" transform="translate(-33.775 -132.855)"/><path class="b" d="M57.707,175.861c.187,3,.483,5.827.867,8.42.222.031.443.067.667.1a90.839,90.839,0,0,1-1.534-12.262,90.893,90.893,0,0,1-12.262-1.534c.167,1.325.393,2.616.663,3.875A92.579,92.579,0,0,0,57.707,175.861Z" transform="translate(-33.776 -132.855)"/><path class="a" d="M59.241,114.955A42.718,42.718,0,0,0,48.287,117.8a42.713,42.713,0,0,0-2.843,10.954,90.839,90.839,0,0,1,12.262-1.535A90.907,90.907,0,0,1,59.241,114.955Z" transform="translate(-33.775 -103.286)"/><path class="b" d="M48.287,121.546A42.464,42.464,0,0,1,58.573,118.8c.2-1.347.422-2.634.667-3.842A42.718,42.718,0,0,0,48.287,117.8a42.713,42.713,0,0,0-2.843,10.954c.216-.044.442-.085.663-.128A41.09,41.09,0,0,1,48.287,121.546Z" transform="translate(-33.775 -103.287)"/><path class="a" d="M114.864,128.752a42.718,42.718,0,0,0-2.843-10.954,42.71,42.71,0,0,0-10.953-2.843,90.906,90.906,0,0,1,1.535,12.262A90.821,90.821,0,0,1,114.864,128.752Z" transform="translate(-63.344 -103.286)"/><path class="b" d="M112.021,121.546a41.09,41.09,0,0,1,2.18,7.079c.221.043.447.084.663.128a42.718,42.718,0,0,0-2.843-10.954,42.71,42.71,0,0,0-10.953-2.843c.246,1.208.468,2.5.667,3.842A42.466,42.466,0,0,1,112.021,121.546Z" transform="translate(-63.344 -103.287)"/><path class="a" d="M102.6,172.113a90.815,90.815,0,0,1-1.535,12.262,42.71,42.71,0,0,0,10.953-2.843,42.713,42.713,0,0,0,2.843-10.954A90.794,90.794,0,0,1,102.6,172.113Z" transform="translate(-63.344 -132.855)"/><path class="b" d="M102.6,175.86a92.507,92.507,0,0,0,11.6-1.407c.27-1.259.5-2.55.663-3.875a90.839,90.839,0,0,1-12.262,1.534,90.815,90.815,0,0,1-1.535,12.262c.224-.029.445-.064.667-.1C102.119,181.688,102.415,178.861,102.6,175.86Z" transform="translate(-63.344 -132.855)"/><path class="a" d="M79.286,174.09c-2.644,0-5.209-.082-7.664-.235a90.9,90.9,0,0,0,1.535,12.262,48.909,48.909,0,0,0,12.257,0,90.91,90.91,0,0,0,1.535-12.262C84.495,174.008,81.929,174.09,79.286,174.09Z" transform="translate(-47.691 -134.597)"/><path class="b" d="M79.286,177.837c2.536,0,5-.078,7.362-.219q.178-1.831.3-3.764c-2.454.153-5.02.235-7.664.235s-5.209-.082-7.664-.235q.121,1.934.3,3.764C74.287,177.76,76.749,177.837,79.286,177.837Z" transform="translate(-47.691 -134.597)"/><path class="a" d="M79.286,126.545c2.644,0,5.209.082,7.664.235a90.833,90.833,0,0,0-1.535-12.262,48.909,48.909,0,0,0-12.257,0,90.836,90.836,0,0,0-1.535,12.262C74.077,126.627,76.643,126.545,79.286,126.545Z" transform="translate(-47.692 -102.849)"/><path class="b" d="M73.158,118.265a48.909,48.909,0,0,1,12.257,0,83.615,83.615,0,0,1,1.234,8.5l.3.016a90.833,90.833,0,0,0-1.535-12.262,48.909,48.909,0,0,0-12.257,0,90.836,90.836,0,0,0-1.535,12.262l.3-.016A83.488,83.488,0,0,1,73.158,118.265Z" transform="translate(-47.692 -102.849)"/><path class="a" d="M130.522,144.41a48.967,48.967,0,0,1,0,12.257c7.119-1.448,11.669-3.655,11.669-6.129S137.641,145.858,130.522,144.41Z" transform="translate(-79.002 -118.944)"/><g transform="translate(51.52 25.466)"><path class="b" d="M141.294,152.412a2.719,2.719,0,0,0,.9-1.874c0-2.473-4.55-4.68-11.669-6.129.157,1.246.263,2.521.325,3.815C135.941,149.29,139.672,150.748,141.294,152.412Z" transform="translate(-130.523 -144.41)"/></g><path class="a" d="M32.2,156.668a48.968,48.968,0,0,1,0-12.257c-7.119,1.448-11.669,3.655-11.669,6.129S25.082,155.22,32.2,156.668Z" transform="translate(-20.532 -118.945)"/><g transform="translate(0 25.466)"><path class="b" d="M31.876,148.225c.061-1.294.167-2.569.325-3.815-7.119,1.448-11.669,3.655-11.669,6.129a2.719,2.719,0,0,0,.9,1.874C23.051,150.748,26.783,149.29,31.876,148.225Z" transform="translate(-20.532 -144.41)"/></g><path class="a" d="M104.579,148.8c0,2.643-.082,5.209-.235,7.664a90.893,90.893,0,0,0,12.262-1.535,48.968,48.968,0,0,0,0-12.257,90.839,90.839,0,0,0-12.262-1.535C104.5,143.589,104.579,146.154,104.579,148.8Z" transform="translate(-65.086 -117.203)"/><g transform="translate(39.258 23.931)"><path class="b" d="M116.606,146.416c.175,1.388.29,2.809.346,4.255.024-.62.04-1.244.04-1.874a48.9,48.9,0,0,0-.385-6.129,90.839,90.839,0,0,0-12.262-1.535q.115,1.84.175,3.759A90.58,90.58,0,0,1,116.606,146.416Z" transform="translate(-104.345 -141.134)"/></g><path class="a" d="M57.034,148.8c0-2.644.082-5.209.235-7.664a90.9,90.9,0,0,0-12.262,1.534,48.968,48.968,0,0,0,0,12.257,90.838,90.838,0,0,0,12.262,1.535C57.116,154.006,57.034,151.44,57.034,148.8Z" transform="translate(-33.338 -117.202)"/><g transform="translate(11.284 23.931)"><path class="b" d="M45.007,146.416a90.578,90.578,0,0,1,12.087-1.522q.06-1.917.175-3.759a90.9,90.9,0,0,0-12.262,1.535,48.9,48.9,0,0,0-.385,6.129c0,.63.016,1.253.04,1.874C44.717,149.225,44.832,147.8,45.007,146.416Z" transform="translate(-44.622 -141.134)"/></g><path class="a" d="M86.682,140.867c-2.454-.153-5.02-.235-7.664-.235s-5.209.082-7.664.235c-.153,2.454-.235,5.02-.235,7.664s.082,5.209.235,7.664c2.454.153,5.02.235,7.664.235s5.209-.082,7.664-.235c.153-2.454.235-5.02.235-7.664S86.835,143.321,86.682,140.867Z" transform="translate(-47.424 -116.936)"/><path class="b" d="M71.356,144.614c2.454-.153,5.02-.235,7.664-.235s5.209.082,7.664.235c.117,1.87.191,3.805.221,5.79q.014-.93.015-1.874c0-2.644-.082-5.209-.235-7.664-2.454-.153-5.02-.235-7.664-.235s-5.209.082-7.664.235c-.153,2.454-.235,5.02-.235,7.664q0,.944.015,1.874C71.165,148.42,71.24,146.484,71.356,144.614Z" transform="translate(-47.425 -116.936)"/></g><path class="d" d="M58.908,89.707H42.687a32.764,32.764,0,1,0,16.221,0Zm13.4,10.239a30.449,30.449,0,0,1,7,10.888,28.811,28.811,0,0,0-10.382-7.291c-.05-.022-.1-.042-.153-.064a34.245,34.245,0,0,0-2.632-4.994,25.582,25.582,0,0,0-4.733-5.544A30.455,30.455,0,0,1,72.31,99.946Zm8.2,17.439a19.8,19.8,0,0,0-3.392-1.542,43.482,43.482,0,0,0-5.352-1.488,44.864,44.864,0,0,0-1.8-7.727c.889.457,1.74.94,2.54,1.454a21.522,21.522,0,0,1,6.426,6.115A14.477,14.477,0,0,1,80.514,117.385ZM58.932,136.463c.262-1.968.471-4.061.627-6.242a94.2,94.2,0,0,0,9.773-1.178,41.166,41.166,0,0,1-2.35,8.6,41.155,41.155,0,0,1-8.6,2.343Q58.684,138.3,58.932,136.463Zm-.55-33.538a41.166,41.166,0,0,1,8.6,2.35,41.156,41.156,0,0,1,2.343,8.6q-1.691-.3-3.528-.549c-1.968-.262-4.061-.471-6.242-.627A94.22,94.22,0,0,0,58.382,102.925Zm7.11,24.347c-1.824.244-3.766.44-5.789.59.105-2.071.163-4.209.163-6.4s-.056-4.335-.161-6.4a89.613,89.613,0,0,1,9.954,1.26,47.64,47.64,0,0,1,0,10.287C68.348,126.85,66.959,127.076,65.492,127.272Zm.138-24.983a44.94,44.94,0,0,0-7.731-1.807c-.123-.564-.249-1.118-.381-1.648a27.435,27.435,0,0,0-2.639-7.083l0-.007a14.486,14.486,0,0,1,3.185,1.582A23.32,23.32,0,0,1,65.63,102.288ZM50.8,128.187c-2.248,0-4.44-.06-6.552-.173-.113-2.114-.176-4.3-.176-6.555s.06-4.44.173-6.552c2.114-.113,4.3-.176,6.555-.175s4.44.06,6.552.173c.113,2.114.176,4.3.176,6.555s-.06,4.44-.173,6.552C55.238,128.124,53.048,128.187,50.8,128.187Zm6.4,2.181a89.6,89.6,0,0,1-1.26,9.953,47.637,47.637,0,0,1-10.287,0c-.249-1.311-.475-2.7-.671-4.166-.244-1.824-.44-3.766-.59-5.789,2.071.105,4.209.163,6.4.163S55.132,130.473,57.2,130.367ZM49.947,91.412a1.912,1.912,0,0,1,.483-.3.959.959,0,0,1,.366-.077h0a.959.959,0,0,1,.366.077,2.737,2.737,0,0,1,.993.813,13.5,13.5,0,0,1,2.053,4,39.169,39.169,0,0,1,1.223,4.268c-1.515-.14-3.062-.215-4.635-.215s-3.122.077-4.638.216c.062-.267.125-.534.189-.792a25.3,25.3,0,0,1,2.383-6.459A5.789,5.789,0,0,1,49.947,91.412Zm.85,10.907a47.694,47.694,0,0,1,5.142.279c.249,1.311.475,2.7.671,4.166.244,1.824.44,3.766.59,5.789-2.071-.105-4.209-.163-6.4-.163s-4.335.056-6.4.161a89.726,89.726,0,0,1,1.26-9.954A47.75,47.75,0,0,1,50.8,102.319Zm-7.262-8.994a14.507,14.507,0,0,1,3.188-1.583,19.8,19.8,0,0,0-1.542,3.392,43.4,43.4,0,0,0-1.487,5.352,44.852,44.852,0,0,0-7.727,1.8c.457-.889.94-1.74,1.454-2.54A21.515,21.515,0,0,1,43.535,93.325ZM36.1,115.646c1.824-.244,3.765-.44,5.789-.59-.105,2.071-.163,4.209-.163,6.4s.056,4.335.161,6.4a89.59,89.59,0,0,1-9.953-1.26,47.638,47.638,0,0,1,0-10.287Q33.9,115.943,36.1,115.646Zm-3.839-1.772a41.2,41.2,0,0,1,2.35-8.6,41.156,41.156,0,0,1,8.6-2.343q-.3,1.691-.549,3.528c-.262,1.968-.471,4.061-.627,6.242A94.081,94.081,0,0,0,32.264,113.875Zm3.529,15.719c1.968.262,4.061.471,6.242.627a94.2,94.2,0,0,0,1.178,9.773,41.153,41.153,0,0,1-8.6-2.35,41.155,41.155,0,0,1-2.343-8.6Q33.957,129.346,35.793,129.594ZM29.285,99.946a30.461,30.461,0,0,1,10.888-7,28.811,28.811,0,0,0-7.291,10.382c-.022.051-.042.1-.064.153a34.29,34.29,0,0,0-4.994,2.632,25.581,25.581,0,0,0-5.544,4.733A30.449,30.449,0,0,1,29.285,99.946ZM22.664,114.2a23.324,23.324,0,0,1,8.963-7.571,44.9,44.9,0,0,0-1.806,7.731c-.564.123-1.118.249-1.648.381a27.435,27.435,0,0,0-7.083,2.639l-.007,0A14.453,14.453,0,0,1,22.664,114.2Zm-1.913,8.112a1.912,1.912,0,0,1-.3-.483.911.911,0,0,1,0-.734,2.737,2.737,0,0,1,.813-.993,13.5,13.5,0,0,1,4-2.053,39.17,39.17,0,0,1,4.268-1.223c-.14,1.515-.215,3.061-.215,4.635s.077,3.122.216,4.638c-.267-.062-.534-.125-.792-.189a25.3,25.3,0,0,1-6.459-2.383A5.768,5.768,0,0,1,20.751,122.309Zm3.721,4.766a43.481,43.481,0,0,0,5.352,1.488,44.863,44.863,0,0,0,1.8,7.727c-.889-.457-1.741-.94-2.54-1.454a21.522,21.522,0,0,1-6.426-6.115,14.507,14.507,0,0,1-1.583-3.188A19.836,19.836,0,0,0,24.473,127.075Zm4.812,15.9a30.46,30.46,0,0,1-7-10.888,28.813,28.813,0,0,0,10.382,7.291l.153.064a34.246,34.246,0,0,0,2.632,4.994,25.582,25.582,0,0,0,4.733,5.544A30.453,30.453,0,0,1,29.285,142.972Zm14.25,6.621a23.324,23.324,0,0,1-7.571-8.963,44.9,44.9,0,0,0,7.731,1.806c.123.564.249,1.118.381,1.648a27.435,27.435,0,0,0,2.639,7.083l0,.008A14.492,14.492,0,0,1,43.535,149.593Zm8.112,1.913a1.912,1.912,0,0,1-.483.3.964.964,0,0,1-.367.077.954.954,0,0,1-.367-.077,2.737,2.737,0,0,1-.993-.813,13.5,13.5,0,0,1-2.053-4,39.171,39.171,0,0,1-1.223-4.268c1.515.14,3.062.215,4.635.215s3.122-.077,4.638-.216c-.062.267-.124.534-.189.792a25.28,25.28,0,0,1-2.383,6.459A5.8,5.8,0,0,1,51.648,151.506Zm6.412-1.913a14.507,14.507,0,0,1-3.188,1.583,19.872,19.872,0,0,0,1.543-3.392,43.4,43.4,0,0,0,1.487-5.352,44.863,44.863,0,0,0,7.727-1.8c-.457.889-.94,1.741-1.454,2.54A21.526,21.526,0,0,1,58.06,149.593Zm14.251-6.621a30.45,30.45,0,0,1-10.888,7,28.809,28.809,0,0,0,7.291-10.382c.022-.051.042-.1.064-.153a34.247,34.247,0,0,0,4.994-2.632,25.582,25.582,0,0,0,5.544-4.733A30.464,30.464,0,0,1,72.31,142.972Zm6.62-14.25a23.328,23.328,0,0,1-8.963,7.571,44.891,44.891,0,0,0,1.806-7.731c.564-.123,1.118-.249,1.648-.381a27.435,27.435,0,0,0,7.083-2.639l.007,0A14.47,14.47,0,0,1,78.931,128.721Zm1.4-5.9a13.5,13.5,0,0,1-4,2.053,39.169,39.169,0,0,1-4.268,1.223c.14-1.515.215-3.061.215-4.635s-.077-3.122-.216-4.638c.267.062.534.125.792.189a25.3,25.3,0,0,1,6.459,2.383,5.785,5.785,0,0,1,1.531,1.216,1.912,1.912,0,0,1,.3.483.909.909,0,0,1,0,.734A2.745,2.745,0,0,1,80.331,122.819Z" transform="translate(-18.032 -70.248)"/><g transform="translate(24.704 0)"><g transform="translate(1.171 1.171)"><path class="e" d="M213.129,39.5a2.638,2.638,0,0,1-2.635-2.635,2.2,2.2,0,1,0-4.392,0,2.638,2.638,0,0,1-2.635,2.635,2.2,2.2,0,1,0,0,4.392,2.638,2.638,0,0,1,2.635,2.635,2.2,2.2,0,1,0,4.392,0,2.638,2.638,0,0,1,2.635-2.635,2.2,2.2,0,1,0,0-4.392Z" transform="translate(-201.272 -34.665)"/></g><path class="d" d="M206.97,48.559a3.371,3.371,0,0,1-3.367-3.367,1.466,1.466,0,0,0-1.464-1.464,3.367,3.367,0,1,1,0-6.734,1.466,1.466,0,0,0,1.464-1.464,3.367,3.367,0,1,1,6.734,0,1.466,1.466,0,0,0,1.464,1.464,3.367,3.367,0,0,1,0,6.734,1.466,1.466,0,0,0-1.464,1.464A3.371,3.371,0,0,1,206.97,48.559Zm0-14.052a1.026,1.026,0,0,0-1.025,1.025,3.81,3.81,0,0,1-3.806,3.806,1.025,1.025,0,1,0,0,2.05,3.81,3.81,0,0,1,3.806,3.806,1.025,1.025,0,0,0,2.05,0,3.81,3.81,0,0,1,3.806-3.806,1.025,1.025,0,1,0,0-2.05,3.81,3.81,0,0,1-3.806-3.806A1.026,1.026,0,0,0,206.97,34.507Z" transform="translate(-198.772 -32.164)"/></g></g><g transform="translate(-1860 22443.785)"><g transform="translate(0 0)"><path class="b" d="M70.042,176.393v-8.078l14.168-5.381,19.333,4.6,2.58,2.751-.348,4.068.647.514,23.613-7.29,3.692.738,2.641,2.975.691,2.761-1.538,3.122-2.312,2L102.246,192.66l-2.457.186L70.042,186Z" transform="translate(-55.324 -161.494)"/><rect class="b" width="13.547" height="5.411" transform="translate(1.171 1.409)"/><rect class="a" width="13.547" height="20.488" transform="translate(1.171 6.616)"/><path class="b" d="M51.425,205.707h2.342v-2.342H51.425v2.342Zm-5.152,0h2.342v-2.342H46.272Zm-5.152,0h2.342v-2.342H41.12Z" transform="translate(-39.949 -182.987)"/><path class="e" d="M70.042,180.729l13.472-5.91a4.714,4.714,0,0,1,2.839-.3l20.036,4.092a5.683,5.683,0,0,1-6.611,4.052l-6.125-.922.358,1.336a7.127,7.127,0,0,0,4.8,4.972,7,7,0,0,0,4.38-.1l32.643-11.558s3.617,4.655-2.628,8.89-31.831,13.814-31.831,13.814l-30.405-7.256Z" transform="translate(-55.324 -167.601)"/><path class="d" d="M120.746,169.208a7.246,7.246,0,0,0-8.869-4.148L90.724,171.69a5.992,5.992,0,0,0-4.381-7.2l-16.871-4.216a6.007,6.007,0,0,0-3.714.261L54.509,165.1v-3.4a1.843,1.843,0,0,0-1.843-1.843h-12.2A1.843,1.843,0,0,0,38.62,161.7v24.589a1.842,1.842,0,0,0,1.843,1.842h12.2a1.842,1.842,0,0,0,1.843-1.842v-.929l28.3,6.986a6.009,6.009,0,0,0,3.87-.338l30.3-13.4a7.247,7.247,0,0,0,3.768-9.4ZM40.962,162.2H52.167v23.591H40.962Zm77.218,12.426a4.879,4.879,0,0,1-2.148,1.84l-30.3,13.4a3.668,3.668,0,0,1-2.362.207l-28.857-7.125V167.626l12.129-4.917a3.662,3.662,0,0,1,2.267-.159l16.872,4.216a3.656,3.656,0,0,1-.883,7.2,3.7,3.7,0,0,1-.549-.041l-7.222-1.088-.348,2.316L84,176.242a6.056,6.056,0,0,0,.9.067,5.9,5.9,0,0,0,4.091-1.621l23.594-7.393a4.908,4.908,0,0,1,5.6,7.332Z" transform="translate(-38.62 -159.86)"/><path class="d" d="M53.114,169.345a2.173,2.173,0,1,0,2.173,2.173A2.173,2.173,0,0,0,53.114,169.345Z" transform="translate(-45.17 -164.902)"/></g></g></g></svg>