<svg xmlns="http://www.w3.org/2000/svg" width="175.511" height="99.323" viewBox="0 0 175.511 99.323"><defs><style>.a{fill:#7fb432;}.b{fill:#f7b70d;}.c{fill:#fff;}.d{fill:#122436;}.e{fill:#ffcc34;}.f{fill:none;stroke:#122436;stroke-width:3px;}</style></defs><g transform="translate(265 -22723)"><path class="a" d="M-100.6,22761h-10.067v74.711l79.182-1.748v-5.189S-100.6,22834.52-100.6,22761Z" transform="translate(-60.115 -13.577)"/><g transform="translate(-265 22723)"><g transform="translate(0 0)"><rect class="b" width="74.285" height="76.528" transform="translate(1.526 21.268)"/><rect class="c" width="74.285" height="5.342" transform="translate(1.526 21.268)"/><rect class="c" width="47.471" height="21.98" transform="translate(16.358 32.411)"/><path class="d" d="M44.664,97.247V122.28H95.188V97.247H44.664Zm3.053,3.053H92.135v18.928H47.717Z" transform="translate(-29.832 -66.362)"/><path class="d" d="M20.372,46.664v99.323H97.71V46.664Zm74.285,96.269H23.425V49.716H94.657Z" transform="translate(-20.372 -46.663)"/><path class="e" d="M110.193,68.905H22.872V49.164h74.9Z" transform="translate(-21.346 -47.637)"/><path class="b" d="M110.193,68.905H22.872V49.164h74.9Z" transform="translate(-21.346 -47.637)"/><path class="c" d="M106.35,68.905h3.843L97.768,49.164h-74.9V55.27h74.9Z" transform="translate(-21.346 -47.637)"/><path class="d" d="M110.511,67.118,97.637,46.663H20.372V69.457h91.612Zm-87.086-17.4H95.952l10.5,16.689H23.425Z" transform="translate(-20.372 -46.663)"/></g><g transform="translate(0 47.471)"><rect class="e" width="91.178" height="9.972" transform="translate(1.526 14.2)"/><rect class="c" width="91.178" height="4.274" transform="translate(1.526 14.2)"/><rect class="e" width="91.178" height="9.972" transform="translate(1.526 32.72)"/><rect class="c" width="91.178" height="4.274" transform="translate(1.526 32.72)"/><g transform="translate(0 12.674)"><path class="d" d="M20.372,145.17V158.2H114.6V145.17Zm3.053,3.053H111.55v6.92H23.425Z" transform="translate(-20.372 -145.17)"/><path class="d" d="M20.372,188.528H114.6V175.5H20.372Zm3.053-9.972H111.55v6.92H23.425Z" transform="translate(-20.372 -156.983)"/></g><path class="a" d="M53.634,175.712h-17.1v-40.25a8.548,8.548,0,0,1,17.1,0v40.25Z" transform="translate(-26.668 -125.387)"/><path class="c" d="M52.48,131.174a8.548,8.548,0,0,0-15.943,4.287v6.106a8.548,8.548,0,0,1,17.1,0v-6.106A8.541,8.541,0,0,0,52.48,131.174Z" transform="translate(-26.667 -125.387)"/><path class="a" d="M100.634,175.712h-17.1v-40.25a8.548,8.548,0,0,1,17.1,0v40.25Z" transform="translate(-44.971 -125.387)"/><path class="c" d="M99.48,131.174a8.548,8.548,0,0,0-15.943,4.287v6.106a8.548,8.548,0,0,1,17.1,0v-6.106A8.541,8.541,0,0,0,99.48,131.174Z" transform="translate(-44.971 -125.387)"/><path class="a" d="M147.634,175.712h-17.1v-40.25a8.548,8.548,0,0,1,17.1,0v40.25Z" transform="translate(-63.274 -125.387)"/><path class="c" d="M146.48,131.174a8.548,8.548,0,0,0-15.943,4.287v6.106a8.548,8.548,0,0,1,17.1,0v-6.106A8.541,8.541,0,0,0,146.48,131.174Z" transform="translate(-63.274 -125.387)"/><g transform="translate(8.343)"><path class="d" d="M49.008,125.669a10.173,10.173,0,0,0-9.793,0,10.119,10.119,0,0,0-5.178,8.819v41.777H54.186V134.488a10.12,10.12,0,0,0-5.178-8.819ZM37.09,134.487a7.02,7.02,0,0,1,.947-3.522,6.941,6.941,0,0,1,2.655-2.625,7.12,7.12,0,0,1,6.837,0,6.937,6.937,0,0,1,2.655,2.625,7.022,7.022,0,0,1,.947,3.522v38.724H37.089V134.487Z" transform="translate(-34.037 -124.413)"/><path class="d" d="M96.009,125.669a10.173,10.173,0,0,0-9.793,0,10.119,10.119,0,0,0-5.178,8.819v41.777h20.149V134.488a10.12,10.12,0,0,0-5.178-8.819Zm-11.918,8.818a7.02,7.02,0,0,1,.947-3.522,6.941,6.941,0,0,1,2.655-2.625,7.12,7.12,0,0,1,6.837,0,6.947,6.947,0,0,1,2.656,2.625,7.022,7.022,0,0,1,.947,3.522v38.724H84.09V134.487Z" transform="translate(-52.341 -124.413)"/><path class="d" d="M146.827,129.434a10,10,0,0,0-3.819-3.765,10.173,10.173,0,0,0-9.793,0,10.119,10.119,0,0,0-5.178,8.819v41.777h20.149V134.488A10.067,10.067,0,0,0,146.827,129.434Zm-15.737,5.053a7.02,7.02,0,0,1,.947-3.522,6.941,6.941,0,0,1,2.655-2.625,7.12,7.12,0,0,1,6.837,0,6.941,6.941,0,0,1,2.655,2.625,7.022,7.022,0,0,1,.947,3.522v38.724H131.089Z" transform="translate(-70.644 -124.413)"/></g></g></g><path class="f" d="M-97.133,22761h-13.534v76.32h79.781v-9.158S-97.133,22836.1-97.133,22761Z" transform="translate(-60.103 -16.63)"/></g></svg>