<svg xmlns="http://www.w3.org/2000/svg" width="202.834" height="98.354" viewBox="0 0 202.834 98.354"><defs><style>.a{fill:#f7b70d;}.b{fill:#fff;}.c{fill:#122436;}.d{fill:#ffcc34;}.e{fill:#7fb432;}.f{fill:none;stroke:#122436;stroke-width:3px;}</style></defs><g transform="translate(826.334 -21639)"><g transform="translate(-826.334 21639)"><g transform="translate(0 27.686)"><g transform="translate(0 0)"><rect class="a" width="52.853" height="54.449" transform="translate(1.086 15.132)"/><rect class="b" width="52.853" height="3.801" transform="translate(1.086 15.132)"/><rect class="b" width="33.776" height="15.639" transform="translate(11.639 23.06)"/><path class="c" d="M44.664,97.247v17.811H80.612V97.247Zm2.172,2.172h31.6v13.467h-31.6Z" transform="translate(-34.111 -75.273)"/><path class="c" d="M20.372,46.664v70.667H75.4V46.664Zm52.853,68.495H22.544V48.836H73.225Z" transform="translate(-20.372 -46.664)"/><path class="d" d="M85,63.21H22.872V49.164H76.16Z" transform="translate(-21.786 -48.078)"/><path class="a" d="M85,63.21H22.872V49.164H76.16Z" transform="translate(-21.786 -48.078)"/><path class="b" d="M82.266,63.21H85L76.16,49.164H22.872v4.344H76.16Z" transform="translate(-21.786 -48.078)"/><path class="c" d="M84.505,61.217l-9.16-14.554H20.372V62.881H85.553ZM22.544,48.836h51.6L81.62,60.71H22.544Z" transform="translate(-20.372 -46.663)"/></g><g transform="translate(0 33.776)"><rect class="d" width="64.872" height="7.095" transform="translate(1.086 10.103)"/><rect class="b" width="64.872" height="3.041" transform="translate(1.086 10.103)"/><rect class="d" width="64.872" height="7.095" transform="translate(1.086 23.28)"/><rect class="b" width="64.872" height="3.041" transform="translate(1.086 23.28)"/><g transform="translate(0 9.017)"><path class="c" d="M20.372,145.17v9.267H87.416V145.17Zm2.172,2.172h62.7v4.923h-62.7Z" transform="translate(-20.372 -145.17)"/><path class="c" d="M20.372,184.77H87.416V175.5H20.372Zm2.172-7.1h62.7V182.6h-62.7Z" transform="translate(-20.372 -162.326)"/></g><path class="e" d="M48.7,161.633H36.538V133A6.082,6.082,0,0,1,48.7,133v28.638Z" transform="translate(-29.515 -125.827)"/><path class="b" d="M47.88,129.945A6.082,6.082,0,0,0,36.537,133v4.344a6.082,6.082,0,0,1,12.164,0V133A6.077,6.077,0,0,0,47.88,129.945Z" transform="translate(-29.515 -125.827)"/><path class="e" d="M95.7,161.633H83.538V133A6.082,6.082,0,0,1,95.7,133v28.638Z" transform="translate(-56.098 -125.827)"/><path class="b" d="M94.88,129.945A6.082,6.082,0,0,0,83.537,133v4.344a6.082,6.082,0,0,1,12.164,0V133A6.077,6.077,0,0,0,94.88,129.945Z" transform="translate(-56.097 -125.827)"/><path class="e" d="M142.7,161.633H130.538V133a6.082,6.082,0,0,1,12.164,0v28.638Z" transform="translate(-82.681 -125.827)"/><path class="b" d="M141.88,129.945A6.082,6.082,0,0,0,130.537,133v4.344a6.082,6.082,0,0,1,12.164,0V133A6.077,6.077,0,0,0,141.88,129.945Z" transform="translate(-82.68 -125.827)"/><g transform="translate(5.936)"><path class="c" d="M44.689,125.307a7.238,7.238,0,0,0-6.968,0,7.2,7.2,0,0,0-3.684,6.275v29.724H48.373V131.581a7.2,7.2,0,0,0-3.684-6.275Zm-8.479,6.274a5,5,0,0,1,.674-2.506,4.938,4.938,0,0,1,1.889-1.868,5.066,5.066,0,0,1,4.865,0,4.935,4.935,0,0,1,1.889,1.868,5,5,0,0,1,.674,2.506v27.552H36.209V131.581Z" transform="translate(-34.037 -124.413)"/><path class="c" d="M91.69,125.307a7.238,7.238,0,0,0-6.968,0,7.2,7.2,0,0,0-3.684,6.275v29.724H95.374V131.581a7.2,7.2,0,0,0-3.684-6.275Zm-8.48,6.274a5,5,0,0,1,.674-2.506,4.938,4.938,0,0,1,1.889-1.868,5.066,5.066,0,0,1,4.865,0,4.942,4.942,0,0,1,1.89,1.868,5,5,0,0,1,.674,2.506v27.552H83.21V131.581Z" transform="translate(-60.62 -124.413)"/><path class="c" d="M141.406,127.986a7.117,7.117,0,0,0-2.717-2.679,7.238,7.238,0,0,0-6.968,0,7.2,7.2,0,0,0-3.684,6.275v29.724h14.336V131.581A7.163,7.163,0,0,0,141.406,127.986Zm-11.2,3.6a5,5,0,0,1,.674-2.506,4.938,4.938,0,0,1,1.889-1.868,5.066,5.066,0,0,1,4.865,0,4.938,4.938,0,0,1,1.889,1.868,5,5,0,0,1,.674,2.506v27.552h-9.992Z" transform="translate(-87.202 -124.413)"/></g></g></g><path class="e" d="M-100.709,22761h-9.958v73.908l78.331-1.73v-5.133S-100.709,22833.729-100.709,22761Z" transform="translate(233.066 -22736.842)"/><g transform="translate(29.194 0)"><g transform="translate(0 0)"><rect class="a" width="73.486" height="75.705" transform="translate(1.51 21.04)"/><rect class="b" width="73.486" height="5.285" transform="translate(1.51 21.04)"/><rect class="b" width="46.961" height="21.744" transform="translate(16.182 32.063)"/><path class="c" d="M44.664,97.247v24.764H94.645V97.247Zm3.02,3.02H91.625v18.724H47.684Z" transform="translate(-29.992 -66.694)"/><path class="c" d="M20.372,46.664v98.255H96.878V46.664ZM93.858,141.9H23.392V49.683H93.858Z" transform="translate(-20.372 -46.663)"/><path class="d" d="M109.254,68.693H22.872V49.164H96.963Z" transform="translate(-21.362 -47.653)"/><path class="a" d="M109.254,68.693H22.872V49.164H96.963Z" transform="translate(-21.362 -47.653)"/><path class="b" d="M105.453,68.693h3.8L96.963,49.164H22.872V55.2H96.963Z" transform="translate(-21.362 -47.653)"/><path class="c" d="M109.542,66.9,96.806,46.663H20.372V69.212H111ZM23.392,49.684H95.139l10.391,16.51H23.392Z" transform="translate(-20.372 -46.663)"/></g><g transform="translate(0 46.961)"><rect class="d" width="90.197" height="9.865" transform="translate(1.51 14.047)"/><rect class="b" width="90.197" height="4.228" transform="translate(1.51 14.047)"/><rect class="d" width="90.197" height="9.865" transform="translate(1.51 32.368)"/><rect class="b" width="90.197" height="4.228" transform="translate(1.51 32.368)"/><g transform="translate(0 12.537)"><path class="c" d="M20.372,145.17v12.885h93.217V145.17Zm3.02,3.02h87.177v6.845H23.392Z" transform="translate(-20.372 -145.17)"/><path class="c" d="M20.372,188.388h93.217V175.5H20.372Zm3.02-9.865h87.177v6.845H23.392Z" transform="translate(-20.372 -157.182)"/></g><path class="e" d="M53.45,175.187H36.538V135.369a8.456,8.456,0,0,1,16.913,0v39.818Z" transform="translate(-26.774 -125.403)"/><path class="b" d="M52.309,131.128a8.456,8.456,0,0,0-15.772,4.241v6.04a8.456,8.456,0,0,1,16.913,0v-6.04A8.449,8.449,0,0,0,52.309,131.128Z" transform="translate(-26.773 -125.403)"/><path class="e" d="M100.45,175.187H83.538V135.369a8.456,8.456,0,0,1,16.913,0v39.818Z" transform="translate(-45.386 -125.403)"/><path class="b" d="M99.309,131.128a8.456,8.456,0,0,0-15.772,4.241v6.04a8.456,8.456,0,0,1,16.913,0v-6.04A8.449,8.449,0,0,0,99.309,131.128Z" transform="translate(-45.385 -125.403)"/><path class="e" d="M147.45,175.187H130.538V135.369a8.456,8.456,0,0,1,16.913,0v39.818Z" transform="translate(-63.998 -125.403)"/><path class="b" d="M146.309,131.128a8.456,8.456,0,0,0-15.772,4.241v6.04a8.456,8.456,0,0,1,16.913,0v-6.04A8.449,8.449,0,0,0,146.309,131.128Z" transform="translate(-63.997 -125.403)"/><g transform="translate(8.254)"><path class="c" d="M48.847,125.655a10.063,10.063,0,0,0-9.688,0,10.01,10.01,0,0,0-5.123,8.724v41.327H53.969V134.38a10.011,10.011,0,0,0-5.122-8.724Zm-11.789,8.724a6.945,6.945,0,0,1,.937-3.484,6.866,6.866,0,0,1,2.627-2.6,7.044,7.044,0,0,1,6.764,0,6.862,6.862,0,0,1,2.627,2.6,6.947,6.947,0,0,1,.937,3.484v38.308H37.056V134.379Z" transform="translate(-34.037 -124.413)"/><path class="c" d="M95.848,125.655a10.063,10.063,0,0,0-9.688,0,10.01,10.01,0,0,0-5.123,8.724v41.327H100.97V134.38a10.011,10.011,0,0,0-5.122-8.724Zm-11.79,8.724a6.945,6.945,0,0,1,.937-3.484,6.866,6.866,0,0,1,2.627-2.6,7.044,7.044,0,0,1,6.764,0,6.872,6.872,0,0,1,2.627,2.6,6.947,6.947,0,0,1,.937,3.484v38.308H84.057V134.379Z" transform="translate(-52.649 -124.413)"/><path class="c" d="M146.625,129.38a9.9,9.9,0,0,0-3.778-3.725,10.063,10.063,0,0,0-9.688,0,10.01,10.01,0,0,0-5.123,8.724v41.328h19.932V134.38A9.959,9.959,0,0,0,146.625,129.38Zm-15.568,5a6.945,6.945,0,0,1,.937-3.484,6.866,6.866,0,0,1,2.627-2.6,7.044,7.044,0,0,1,6.764,0,6.866,6.866,0,0,1,2.627,2.6,6.946,6.946,0,0,1,.937,3.484v38.308H131.056Z" transform="translate(-71.261 -124.413)"/></g></g></g><path class="f" d="M-97.278,22761h-13.389v75.5h78.923v-9.061S-97.278,22835.295-97.278,22761Z" transform="translate(233.078 -22739.861)"/></g></g></svg>